<svg width="50" height="50" viewBox="0 0 50 50" fill="none" xmlns="http://www.w3.org/2000/svg">
<path d="M34.3716 46.8458C31.6799 47.5541 28.5799 47.9166 24.9987 47.9166C21.4174 47.9166 18.3174 47.5541 15.6258 46.8458C15.632 39.8603 18.0008 37.4999 24.9987 37.4999C31.9966 37.4999 34.3654 39.8624 34.3716 46.8458ZM24.9987 16.6666C21.6883 16.6666 20.832 17.5228 20.832 20.8333C20.832 24.1437 21.6883 24.9999 24.9987 24.9999C28.3091 24.9999 29.1654 24.1437 29.1654 20.8333C29.1654 17.5228 28.3091 16.6666 24.9987 16.6666ZM47.9154 24.9999C47.9154 35.4749 44.9779 42.0103 38.4945 45.3062C38.0362 37.0458 33.8216 33.3333 24.9987 33.3333C16.1758 33.3333 11.9612 37.0458 11.5029 45.3062C5.02161 42.0103 2.08203 35.4728 2.08203 24.9999C2.08203 8.93742 8.9362 2.08325 24.9987 2.08325C41.0612 2.08325 47.9154 8.93742 47.9154 24.9999ZM33.332 20.8333C33.332 15.227 30.6049 12.4999 24.9987 12.4999C19.3924 12.4999 16.6654 15.227 16.6654 20.8333C16.6654 26.4395 19.3924 29.1666 24.9987 29.1666C30.6049 29.1666 33.332 26.4395 33.332 20.8333Z" fill="#F7CB4E"/>
</svg>
