<svg xmlns="http://www.w3.org/2000/svg" xmlns:xlink="http://www.w3.org/1999/xlink" width="401" zoomAndPan="magnify"
    viewBox="0 0 300.75 221.999995" height="296" preserveAspectRatio="xMidYMid meet" version="1.0">
    <defs>
        <clipPath id="cc82c49910">
            <path d="M 0 0.09375 L 300 0.09375 L 300 218 L 0 218 Z M 0 0.09375 " clip-rule="nonzero" />
        </clipPath>
        <clipPath id="a96d1c0cb1">
            <path d="M 9 8 L 300.363281 8 L 300.363281 221.238281 L 9 221.238281 Z M 9 8 " clip-rule="nonzero" />
        </clipPath>
        <clipPath id="c715b887f6">
            <path
                d="M 209.910156 151.605469 L 210.769531 151.605469 L 210.769531 156.878906 L 209.910156 156.878906 Z M 209.910156 151.605469 "
                clip-rule="nonzero" />
        </clipPath>
        <clipPath id="6c06600666">
            <path
                d="M 210.699219 152.335938 C 210.539062 152.539062 210.445312 152.878906 210.390625 153.097656 C 210.347656 153.269531 210.316406 153.421875 210.285156 153.605469 C 210.253906 153.792969 210.230469 153.960938 210.207031 154.191406 C 210.171875 154.496094 210.132812 154.910156 210.113281 155.292969 C 210.097656 155.699219 210.136719 156.316406 210.109375 156.578125 C 210.09375 156.730469 210.0625 156.824219 210.039062 156.867188 C 210.023438 156.890625 209.996094 156.875 209.980469 156.839844 C 209.960938 156.804688 209.941406 156.738281 209.929688 156.652344 C 209.917969 156.550781 209.917969 156.339844 209.925781 156.238281 C 209.9375 156.144531 209.953125 156.070312 209.972656 156.035156 C 209.992188 155.992188 210.015625 155.96875 210.03125 155.992188 C 210.058594 156.019531 210.09375 156.144531 210.105469 156.246094 C 210.117188 156.332031 210.117188 156.441406 210.109375 156.535156 C 210.105469 156.621094 210.09375 156.722656 210.078125 156.773438 C 210.0625 156.832031 210.039062 156.882812 210.019531 156.875 C 209.992188 156.875 209.953125 156.78125 209.9375 156.695312 C 209.921875 156.621094 209.921875 156.542969 209.917969 156.425781 C 209.910156 156.179688 209.914062 155.679688 209.921875 155.316406 C 209.9375 154.945312 209.960938 154.570312 209.992188 154.207031 C 210.027344 153.828125 210.078125 153.421875 210.136719 153.089844 C 210.195312 152.761719 210.273438 152.464844 210.347656 152.226562 C 210.417969 152.007812 210.503906 151.789062 210.566406 151.695312 C 210.613281 151.625 210.660156 151.59375 210.691406 151.617188 C 210.714844 151.625 210.730469 151.660156 210.746094 151.726562 C 210.757812 151.796875 210.769531 151.949219 210.765625 152.050781 C 210.761719 152.160156 210.699219 152.335938 210.699219 152.335938 "
                clip-rule="nonzero" />
        </clipPath>
        <clipPath id="82654fa478">
            <path
                d="M 210.058594 158.574219 L 210.273438 158.574219 L 210.273438 159.40625 L 210.058594 159.40625 Z M 210.058594 158.574219 "
                clip-rule="nonzero" />
        </clipPath>
        <clipPath id="02e01c03f5">
            <path
                d="M 210.269531 159.074219 C 210.203125 159.394531 210.160156 159.414062 210.132812 159.378906 C 210.105469 159.34375 210.074219 159.234375 210.070312 159.140625 C 210.066406 159.058594 210.078125 158.914062 210.097656 158.847656 C 210.113281 158.777344 210.160156 158.734375 210.1875 158.746094 C 210.214844 158.761719 210.25 158.855469 210.261719 158.9375 C 210.273438 159.015625 210.269531 159.167969 210.257812 159.242188 C 210.246094 159.3125 210.226562 159.355469 210.207031 159.378906 C 210.1875 159.40625 210.160156 159.414062 210.144531 159.394531 C 210.121094 159.378906 210.101562 159.335938 210.089844 159.277344 C 210.070312 159.191406 210.058594 159.015625 210.058594 158.90625 C 210.0625 158.820312 210.074219 158.726562 210.09375 158.675781 C 210.113281 158.617188 210.140625 158.566406 210.167969 158.574219 C 210.199219 158.582031 210.269531 158.796875 210.269531 158.796875 "
                clip-rule="nonzero" />
        </clipPath>
        <clipPath id="b25d42938b">
            <path
                d="M 210.167969 160.292969 L 210.371094 160.292969 L 210.371094 160.921875 L 210.167969 160.921875 Z M 210.167969 160.292969 "
                clip-rule="nonzero" />
        </clipPath>
        <clipPath id="9344cedcf7">
            <path
                d="M 210.371094 160.511719 C 210.34375 160.84375 210.328125 160.878906 210.316406 160.894531 C 210.300781 160.910156 210.285156 160.929688 210.265625 160.917969 C 210.238281 160.910156 210.195312 160.84375 210.183594 160.765625 C 210.164062 160.691406 210.167969 160.546875 210.171875 160.472656 C 210.179688 160.421875 210.191406 160.386719 210.207031 160.351562 C 210.21875 160.328125 210.234375 160.292969 210.253906 160.292969 C 210.277344 160.285156 210.34375 160.378906 210.34375 160.378906 "
                clip-rule="nonzero" />
        </clipPath>
        <clipPath id="abb5569482">
            <path
                d="M 220.644531 159.851562 L 220.921875 159.851562 L 220.921875 161.238281 L 220.644531 161.238281 Z M 220.644531 159.851562 "
                clip-rule="nonzero" />
        </clipPath>
        <clipPath id="65a8c02e66">
            <path
                d="M 220.644531 160.460938 C 220.664062 160.175781 220.683594 160.023438 220.703125 159.953125 C 220.726562 159.886719 220.765625 159.851562 220.789062 159.851562 C 220.804688 159.84375 220.816406 159.863281 220.832031 159.894531 C 220.851562 159.9375 220.882812 160.039062 220.894531 160.148438 C 220.910156 160.25 220.914062 160.429688 220.914062 160.53125 C 220.914062 160.605469 220.910156 160.65625 220.902344 160.726562 C 220.890625 160.816406 220.863281 160.953125 220.84375 161.011719 C 220.828125 161.046875 220.816406 161.0625 220.800781 161.070312 C 220.789062 161.082031 220.773438 161.089844 220.757812 161.070312 C 220.738281 161.046875 220.703125 160.980469 220.683594 160.886719 C 220.664062 160.800781 220.652344 160.632812 220.644531 160.53125 C 220.644531 160.453125 220.644531 160.394531 220.648438 160.335938 C 220.652344 160.269531 220.65625 160.207031 220.664062 160.148438 C 220.679688 160.066406 220.707031 159.9375 220.730469 159.894531 C 220.746094 159.863281 220.757812 159.84375 220.773438 159.851562 C 220.796875 159.851562 220.832031 159.886719 220.855469 159.953125 C 220.878906 160.023438 220.898438 160.15625 220.910156 160.269531 C 220.917969 160.378906 220.921875 160.496094 220.917969 160.613281 C 220.914062 160.75 220.902344 160.929688 220.882812 161.03125 C 220.859375 161.132812 220.824219 161.214844 220.792969 161.234375 C 220.765625 161.25 220.722656 161.199219 220.699219 161.113281 C 220.675781 161.039062 220.644531 160.742188 220.644531 160.742188 "
                clip-rule="nonzero" />
        </clipPath>
        <clipPath id="f6918d0e4a">
            <path
                d="M 220.28125 161.796875 L 220.550781 161.796875 L 220.550781 163.023438 L 220.28125 163.023438 Z M 220.28125 161.796875 "
                clip-rule="nonzero" />
        </clipPath>
        <clipPath id="5cf2cf785b">
            <path
                d="M 220.550781 162.230469 C 220.550781 162.613281 220.539062 162.714844 220.527344 162.789062 C 220.511719 162.867188 220.496094 162.933594 220.476562 162.96875 C 220.457031 163.011719 220.433594 163.027344 220.410156 163.019531 C 220.390625 163.019531 220.367188 162.984375 220.347656 162.933594 C 220.328125 162.882812 220.3125 162.808594 220.304688 162.730469 C 220.292969 162.644531 220.285156 162.542969 220.28125 162.453125 C 220.28125 162.359375 220.285156 162.25 220.296875 162.164062 C 220.304688 162.078125 220.316406 161.996094 220.335938 161.933594 C 220.351562 161.875 220.375 161.832031 220.394531 161.808594 C 220.414062 161.792969 220.441406 161.800781 220.460938 161.832031 C 220.480469 161.859375 220.515625 161.976562 220.515625 161.976562 "
                clip-rule="nonzero" />
        </clipPath>
        <clipPath id="b1fd724f27">
            <path
                d="M 219.734375 163.195312 L 220.003906 163.195312 L 220.003906 164.410156 L 219.734375 164.410156 Z M 219.734375 163.195312 "
                clip-rule="nonzero" />
        </clipPath>
        <clipPath id="8639362937">
            <path
                d="M 220.003906 163.628906 C 220.003906 164.007812 219.992188 164.101562 219.980469 164.179688 C 219.964844 164.253906 219.945312 164.320312 219.925781 164.355469 C 219.910156 164.398438 219.882812 164.414062 219.863281 164.40625 C 219.84375 164.40625 219.820312 164.371094 219.800781 164.320312 C 219.78125 164.269531 219.765625 164.195312 219.753906 164.117188 C 219.742188 164.035156 219.738281 163.933594 219.734375 163.839844 C 219.734375 163.746094 219.738281 163.644531 219.746094 163.550781 C 219.757812 163.46875 219.769531 163.382812 219.785156 163.324219 C 219.804688 163.273438 219.828125 163.222656 219.847656 163.203125 C 219.867188 163.1875 219.890625 163.195312 219.914062 163.222656 C 219.929688 163.253906 219.96875 163.375 219.96875 163.375 "
                clip-rule="nonzero" />
        </clipPath>
    </defs>
    <g clip-path="url(#cc82c49910)">
        <path fill="#f6d20c"
            d="M 132.242188 9.050781 L 121.03125 7.964844 L 40 0.09375 L 10.335938 14.484375 L 10.320312 14.492188 L 10.066406 17.070312 L 8.890625 29 L 0.128906 108.039062 L 31.292969 111.324219 L 30.265625 112.101562 L 98.105469 118.367188 L 98.441406 118.398438 L 99.28125 118.484375 L 100.691406 117.65625 L 115.074219 109.25 L 124.773438 103.582031 L 133.871094 11.125 L 134.058594 9.222656 Z M 101.066406 213.628906 L 29.03125 213.628906 L 29.03125 139.453125 L 101.066406 139.453125 Z M 287.5 116.699219 L 211.277344 88.082031 L 178.886719 94.300781 L 173.746094 107.941406 L 144.789062 182.011719 L 237.050781 217.507812 L 237.839844 217.808594 L 255.492188 212.984375 L 266.324219 210.027344 L 299.757812 121.300781 Z M 287.5 116.699219 "
            fill-opacity="1" fill-rule="nonzero" />
    </g>
    <path fill="#e29f3d"
        d="M 132.242188 9.050781 L 108.496094 24.472656 L 99.28125 118.484375 L 100.691406 117.65625 L 116.300781 110.167969 L 116.445312 108.453125 L 124.777344 103.589844 L 133.878906 11.128906 L 134.066406 9.226562 Z M 271.003906 129.855469 L 237.050781 217.507812 L 237.839844 217.808594 L 255.492188 212.984375 L 266.324219 210.027344 L 299.757812 121.300781 Z M 271.003906 129.855469 "
        fill-opacity="1" fill-rule="nonzero" />
    <path fill="#ff5757"
        d="M 83.007812 92.785156 L 68.503906 37.839844 C 68.230469 36.800781 67.488281 36.078125 66.617188 35.996094 L 49.785156 34.316406 C 48.902344 34.226562 48.039062 34.789062 47.5625 35.753906 L 22.558594 86.765625 C 21.664062 88.589844 22.542969 90.871094 24.210938 91.035156 L 37.472656 92.359375 C 38.425781 92.453125 39.347656 91.792969 39.789062 90.707031 L 42.121094 84.949219 C 42.566406 83.863281 43.488281 83.199219 44.4375 83.296875 L 61.746094 85.023438 C 62.6875 85.113281 63.457031 85.929688 63.679688 87.070312 L 64.890625 93.238281 C 65.117188 94.378906 65.886719 95.195312 66.828125 95.289062 L 80.542969 96.652344 C 82.207031 96.816406 83.527344 94.753906 83.007812 92.785156 Z M 57.523438 71.792969 L 51.308594 71.171875 C 49.71875 71.015625 48.820312 68.90625 49.574219 67.09375 L 53.6875 57.148438 C 54.671875 54.769531 57.425781 55.042969 57.925781 57.566406 L 60.023438 68.125 C 60.410156 70.050781 59.109375 71.953125 57.523438 71.792969 Z M 66.117188 165.949219 C 67.179688 164.925781 67.710938 163.449219 67.710938 161.519531 C 67.710938 159.730469 67.179688 158.328125 66.117188 157.320312 C 65.058594 156.3125 63.210938 155.808594 60.582031 155.808594 L 52.914062 155.808594 L 52.914062 167.488281 L 60.460938 167.488281 C 63.175781 167.484375 65.058594 166.972656 66.117188 165.949219 Z M 68.074219 180.816406 C 66.859375 179.714844 64.742188 179.164062 61.707031 179.164062 L 52.914062 179.164062 L 52.914062 191.585938 L 61.746094 191.585938 C 64.726562 191.585938 66.832031 191.003906 68.054688 189.847656 C 69.277344 188.695312 69.886719 187.140625 69.886719 185.1875 C 69.894531 183.371094 69.289062 181.917969 68.074219 180.816406 Z M 116.769531 108.265625 L 99.929688 117.5 L 99.085938 117.417969 L 31.070312 111.304688 L 11.640625 125.519531 L 11.640625 220.382812 L 110.363281 220.382812 L 134.269531 203.0625 L 134.269531 108.242188 Z M 85.25 195.949219 C 83.894531 198.492188 82.050781 200.507812 79.703125 201.988281 C 78.253906 202.910156 76.0625 203.578125 73.125 203.996094 C 69.226562 204.558594 66.640625 204.839844 65.363281 204.839844 L 40.367188 204.839844 C 37.660156 204.839844 35.46875 201.851562 35.46875 198.175781 L 35.46875 149.960938 C 35.46875 146.277344 37.660156 143.289062 40.367188 143.289062 L 67.898438 143.289062 C 73.304688 143.289062 77.457031 144.765625 80.347656 147.707031 C 83.242188 150.652344 84.683594 154.292969 84.683594 158.636719 C 84.683594 162.285156 83.652344 165.40625 81.589844 168.015625 C 80.214844 169.75 78.199219 171.125 75.550781 172.132812 C 79.574219 173.195312 82.53125 175.019531 84.429688 177.609375 C 86.332031 180.199219 87.273438 183.445312 87.273438 187.359375 C 87.273438 190.539062 86.601562 193.40625 85.25 195.949219 Z M 201.3125 189.253906 C 207.078125 191.226562 212.117188 192.050781 216.445312 191.726562 C 220.769531 191.402344 224.773438 190.101562 228.453125 187.820312 C 230.773438 186.378906 232.941406 184.546875 234.957031 182.316406 C 236.957031 180.097656 236.578125 176.722656 234.128906 174.988281 L 226.984375 169.929688 C 224.816406 168.398438 221.769531 168.703125 219.996094 170.664062 C 218.484375 172.335938 216.902344 173.59375 215.25 174.4375 C 212.542969 175.820312 209.289062 175.859375 205.484375 174.554688 C 201.5625 173.214844 198.992188 170.910156 197.765625 167.640625 C 196.539062 164.375 197.195312 159.328125 199.726562 152.511719 C 201.769531 147.007812 204.175781 143.28125 206.949219 141.332031 C 210.640625 138.6875 214.742188 138.136719 219.253906 139.683594 C 221.246094 140.367188 222.90625 141.375 224.226562 142.707031 C 225.550781 144.042969 226.5 145.625 227.070312 147.457031 C 227.171875 147.777344 227.253906 148.140625 227.320312 148.542969 C 227.679688 150.75 229.484375 152.472656 231.792969 152.746094 L 240.191406 153.75 C 243.585938 154.152344 246.480469 151.339844 246 148.082031 C 245.339844 143.59375 243.8125 139.722656 241.417969 136.457031 C 237.949219 131.722656 232.164062 127.972656 224.0625 125.195312 C 213.707031 121.652344 204.679688 121.652344 196.984375 125.191406 C 189.285156 128.730469 183.546875 135.601562 179.757812 145.796875 C 176.917969 153.445312 176.195312 160.269531 177.589844 166.273438 C 178.988281 172.277344 181.542969 177.011719 185.253906 180.472656 C 188.96875 183.933594 194.320312 186.863281 201.3125 189.253906 Z M 201.3125 189.253906 "
        fill-opacity="1" fill-rule="nonzero" />
    <path fill="#dd4949"
        d="M 108.496094 125.964844 L 110.363281 220.378906 L 134.269531 203.058594 L 134.269531 108.242188 Z M 108.496094 125.964844 "
        fill-opacity="1" fill-rule="nonzero" />
    <g clip-path="url(#a96d1c0cb1)">
        <path fill="#763b2f"
            d="M 10.460938 14.492188 C 9.742188 14.425781 9.109375 14.964844 9.042969 15.683594 C 8.984375 16.402344 9.515625 17.035156 10.238281 17.101562 L 107.199219 25.363281 L 98.046875 117.847656 C 97.980469 118.566406 98.5 119.210938 99.222656 119.28125 C 99.265625 119.285156 99.308594 119.285156 99.355469 119.285156 C 100.019531 119.285156 100.589844 118.777344 100.652344 118.105469 L 109.867188 24.964844 L 133.914062 11.105469 C 134.535156 10.746094 134.753906 9.945312 134.394531 9.320312 C 134.035156 8.695312 133.234375 8.480469 132.609375 8.839844 L 108.332031 22.824219 Z M 135.050781 107.667969 C 134.628906 107.082031 133.8125 106.949219 133.230469 107.367188 L 109.605469 124.355469 L 12.839844 124.523438 C 10.917969 124.523438 10.605469 125.082031 10.613281 125.804688 C 10.613281 126.527344 11.625 127.070312 11.945312 127.09375 L 108.722656 126.976562 L 108.671875 219.929688 C 108.671875 220.652344 109.257812 221.238281 109.980469 221.238281 C 110.703125 221.238281 111.285156 220.652344 111.285156 219.929688 L 111.335938 126.335938 L 134.753906 109.488281 C 135.34375 109.066406 135.476562 108.25 135.050781 107.667969 Z M 179.019531 94.335938 C 178.34375 94.089844 177.589844 94.4375 177.34375 95.121094 C 177.097656 95.800781 177.449219 96.550781 178.132812 96.796875 L 269.636719 129.914062 L 236.8125 216.863281 C 236.558594 217.542969 236.898438 218.292969 237.574219 218.550781 C 237.613281 218.5625 237.660156 218.578125 237.699219 218.589844 C 238.34375 218.761719 239.019531 218.421875 239.261719 217.789062 L 272.308594 130.222656 L 299.128906 123.074219 C 299.824219 122.886719 300.238281 122.167969 300.054688 121.472656 C 299.871094 120.773438 299.152344 120.359375 298.453125 120.542969 L 271.382812 127.757812 Z M 179.019531 94.335938 "
            fill-opacity="1" fill-rule="nonzero" />
    </g>
    <g clip-path="url(#c715b887f6)">
        <g clip-path="url(#6c06600666)">
            <path fill="#f6d20c"
                d="M 209.84375 151.28125 L 210.839844 151.28125 L 210.839844 157.222656 L 209.84375 157.222656 Z M 209.84375 151.28125 "
                fill-opacity="1" fill-rule="nonzero" />
        </g>
    </g>
    <g clip-path="url(#82654fa478)">
        <g clip-path="url(#02e01c03f5)">
            <path fill="#ffffff"
                d="M 209.953125 158.238281 L 210.378906 158.238281 L 210.378906 159.734375 L 209.953125 159.734375 Z M 209.953125 158.238281 "
                fill-opacity="1" fill-rule="nonzero" />
        </g>
    </g>
    <g clip-path="url(#b25d42938b)">
        <g clip-path="url(#9344cedcf7)">
            <path fill="#ffffff"
                d="M 210.0625 159.953125 L 210.484375 159.953125 L 210.484375 161.265625 L 210.0625 161.265625 Z M 210.0625 159.953125 "
                fill-opacity="1" fill-rule="nonzero" />
        </g>
    </g>
    <g clip-path="url(#abb5569482)">
        <g clip-path="url(#65a8c02e66)">
            <path fill="#ffffff"
                d="M 220.570312 159.515625 L 220.996094 159.515625 L 220.996094 161.578125 L 220.570312 161.578125 Z M 220.570312 159.515625 "
                fill-opacity="1" fill-rule="nonzero" />
        </g>
    </g>
    <g clip-path="url(#f6918d0e4a)">
        <g clip-path="url(#5cf2cf785b)">
            <path fill="#ffffff"
                d="M 220.207031 161.46875 L 220.628906 161.46875 L 220.628906 163.355469 L 220.207031 163.355469 Z M 220.207031 161.46875 "
                fill-opacity="1" fill-rule="nonzero" />
        </g>
    </g>
    <g clip-path="url(#b1fd724f27)">
        <g clip-path="url(#8639362937)">
            <path fill="#ffffff"
                d="M 219.660156 162.867188 L 220.082031 162.867188 L 220.082031 164.746094 L 219.660156 164.746094 Z M 219.660156 162.867188 "
                fill-opacity="1" fill-rule="nonzero" />
        </g>
    </g>
</svg>