<svg xmlns="http://www.w3.org/2000/svg" xmlns:xlink="http://www.w3.org/1999/xlink" width="271" zoomAndPan="magnify" viewBox="0 0 203.25 201.000001" height="268" preserveAspectRatio="xMidYMid meet" version="1.0"><defs><clipPath id="839139c754"><path d="M 2 9 L 166 9 L 166 198 L 2 198 Z M 2 9 " clip-rule="nonzero"/></clipPath><clipPath id="a65e94853d"><path d="M 2.007812 60.261719 L 143.578125 1.816406 L 200.402344 139.453125 L 58.832031 197.898438 Z M 2.007812 60.261719 " clip-rule="nonzero"/></clipPath><clipPath id="4d562efe70"><path d="M -154.398438 51.542969 L 117.601562 -60.75 L 200.398438 139.804688 L -71.597656 252.097656 Z M -154.398438 51.542969 " clip-rule="nonzero"/></clipPath><clipPath id="fe0f69b43b"><path d="M 2 9 L 166 9 L 166 160 L 2 160 Z M 2 9 " clip-rule="nonzero"/></clipPath><clipPath id="a9a9d4394c"><path d="M 2.007812 60.261719 L 143.578125 1.816406 L 200.402344 139.453125 L 58.832031 197.898438 Z M 2.007812 60.261719 " clip-rule="nonzero"/></clipPath><clipPath id="0eb961caea"><path d="M -154.398438 51.542969 L 117.601562 -60.75 L 200.398438 139.804688 L -71.597656 252.097656 Z M -154.398438 51.542969 " clip-rule="nonzero"/></clipPath><clipPath id="b930207e6a"><path d="M 2 59 L 127 59 L 127 198 L 2 198 Z M 2 59 " clip-rule="nonzero"/></clipPath><clipPath id="752a704bc2"><path d="M 2.007812 60.261719 L 143.578125 1.816406 L 200.402344 139.453125 L 58.832031 197.898438 Z M 2.007812 60.261719 " clip-rule="nonzero"/></clipPath><clipPath id="fdb759eafd"><path d="M -154.398438 51.542969 L 117.601562 -60.75 L 200.398438 139.804688 L -71.597656 252.097656 Z M -154.398438 51.542969 " clip-rule="nonzero"/></clipPath><clipPath id="7dea995912"><path d="M 2 9 L 164 9 L 164 198 L 2 198 Z M 2 9 " clip-rule="nonzero"/></clipPath><clipPath id="ca519c0141"><path d="M 2.007812 60.261719 L 143.578125 1.816406 L 200.402344 139.453125 L 58.832031 197.898438 Z M 2.007812 60.261719 " clip-rule="nonzero"/></clipPath><clipPath id="31ae05f6a2"><path d="M -154.398438 51.542969 L 117.601562 -60.75 L 200.398438 139.804688 L -71.597656 252.097656 Z M -154.398438 51.542969 " clip-rule="nonzero"/></clipPath><clipPath id="695b9848d8"><path d="M 51 76 L 136 76 L 136 152 L 51 152 Z M 51 76 " clip-rule="nonzero"/></clipPath><clipPath id="fed506608a"><path d="M 51.414062 79.230469 L 132.816406 76.367188 L 135.339844 148.144531 L 53.941406 151.007812 Z M 51.414062 79.230469 " clip-rule="nonzero"/></clipPath></defs><g clip-path="url(#839139c754)"><g clip-path="url(#a65e94853d)"><g clip-path="url(#4d562efe70)"><path fill="#0dbcb7" d="M -31.253906 10.203125 L -41.816406 13.410156 L -118.167969 36.582031 L -139.652344 60.714844 L -139.664062 60.726562 L -138.933594 63.160156 L -135.535156 74.402344 L -113.914062 149.28125 L -84.457031 140.601562 L -85.097656 141.691406 L -21.296875 121.992188 L -20.980469 121.898438 L -20.1875 121.660156 L -19.21875 120.386719 L -9.332031 107.390625 L -2.667969 98.628906 L -29 11.46875 L -29.542969 9.675781 Z M 17.011719 207.183594 L -48.242188 234.125 L -75.984375 166.929688 L -10.730469 139.988281 Z M 149.648438 49.652344 L 69.898438 52.238281 L 42.882812 69.980469 L 43.328125 84.261719 L 44.796875 162.191406 L 141.648438 159.839844 L 142.476562 159.816406 L 156.664062 148.847656 L 165.371094 142.117188 L 162.472656 49.238281 Z M 149.648438 49.652344 " fill-opacity="1" fill-rule="nonzero"/></g></g></g><g clip-path="url(#fe0f69b43b)"><g clip-path="url(#a9a9d4394c)"><g clip-path="url(#0eb961caea)"><path fill="#0aa6a2" d="M -31.253906 10.203125 L -47 33.050781 L -20.1875 121.660156 L -19.21875 120.386719 L -7.878906 107.765625 L -8.386719 106.15625 L -2.660156 98.632812 L -28.996094 11.472656 L -29.539062 9.679688 Z M 139.625 67.742188 L 141.648438 159.839844 L 142.476562 159.816406 L 156.664062 148.847656 L 165.371094 142.117188 L 162.472656 49.238281 Z M 139.625 67.742188 " fill-opacity="1" fill-rule="nonzero"/></g></g></g><g clip-path="url(#b930207e6a)"><g clip-path="url(#752a704bc2)"><g clip-path="url(#fdb759eafd)"><path fill="#ff5757" d="M -44.539062 104.46875 L -78.230469 60.117188 C -78.863281 59.28125 -79.804688 58.902344 -80.628906 59.15625 L -96.503906 63.925781 C -97.332031 64.175781 -97.90625 65.007812 -97.976562 66.0625 L -101.550781 121.621094 C -101.679688 123.609375 -100.03125 125.34375 -98.457031 124.875 L -85.949219 121.109375 C -85.050781 120.839844 -84.464844 119.898438 -84.46875 118.75 L -84.507812 112.660156 C -84.511719 111.507812 -83.925781 110.5625 -83.027344 110.296875 L -66.703125 105.386719 C -65.816406 105.117188 -64.816406 105.570312 -64.183594 106.519531 L -60.78125 111.652344 C -60.152344 112.601562 -59.148438 113.054688 -58.261719 112.785156 L -45.324219 108.894531 C -43.757812 108.417969 -43.335938 106.054688 -44.539062 104.46875 Z M -75.476562 94.980469 L -81.339844 96.746094 C -82.835938 97.195312 -84.4375 95.625 -84.4375 93.699219 L -84.429688 83.152344 C -84.425781 80.625 -81.828125 79.847656 -80.433594 81.941406 L -74.582031 90.726562 C -73.511719 92.328125 -73.976562 94.535156 -75.476562 94.980469 Z M -32.476562 177.0625 C -31.898438 175.734375 -31.96875 174.203125 -32.691406 172.453125 C -33.359375 170.832031 -34.363281 169.761719 -35.703125 169.246094 C -37.042969 168.730469 -38.90625 168.964844 -41.285156 169.945312 L -48.230469 172.8125 L -43.863281 183.394531 L -37.023438 180.574219 C -34.570312 179.554688 -33.054688 178.386719 -32.476562 177.0625 Z M -25.144531 189.796875 C -26.65625 189.253906 -28.78125 189.550781 -31.53125 190.683594 L -39.496094 193.972656 L -34.851562 205.222656 L -26.851562 201.917969 C -24.148438 200.804688 -22.460938 199.492188 -21.785156 197.988281 C -21.105469 196.484375 -21.136719 194.851562 -21.867188 193.078125 C -22.542969 191.433594 -23.632812 190.34375 -25.144531 189.796875 Z M -8.164062 105.863281 L -19.96875 120.527344 L -20.765625 120.769531 L -84.664062 140.667969 L -96.949219 160.8125 L -61.472656 246.746094 L 27.960938 209.824219 L 43.140625 185.195312 L 7.679688 99.296875 Z M -3.925781 197.082031 C -4.203125 199.894531 -5.117188 202.410156 -6.691406 204.628906 C -7.660156 206.007812 -9.398438 207.433594 -11.898438 208.910156 C -15.222656 210.875 -17.460938 212.097656 -18.617188 212.574219 L -41.257812 221.921875 C -43.710938 222.933594 -46.816406 221.046875 -48.191406 217.71875 L -66.222656 174.039062 C -67.597656 170.707031 -66.730469 167.179688 -64.277344 166.167969 L -39.339844 155.871094 C -34.441406 153.847656 -30.128906 153.632812 -26.410156 155.21875 C -22.6875 156.800781 -20.015625 159.558594 -18.390625 163.496094 C -17.027344 166.796875 -16.796875 170.011719 -17.6875 173.148438 C -18.285156 175.234375 -19.597656 177.234375 -21.621094 179.136719 C -17.578125 178.59375 -14.214844 179.136719 -11.527344 180.773438 C -8.835938 182.410156 -6.765625 185 -5.304688 188.542969 C -4.117188 191.421875 -3.652344 194.273438 -3.925781 197.082031 Z M 98.707031 147.613281 C 104.667969 147.242188 109.542969 146.105469 113.339844 144.191406 C 117.136719 142.28125 120.277344 139.605469 122.757812 136.164062 C 124.324219 133.992188 125.601562 131.519531 126.589844 128.746094 C 127.574219 125.988281 125.96875 123.070312 123.101562 122.414062 L 114.738281 120.507812 C 112.203125 119.929688 109.554688 121.34375 108.683594 123.785156 C 107.9375 125.863281 106.972656 127.59375 105.792969 128.976562 C 103.855469 131.242188 100.925781 132.496094 96.992188 132.738281 C 92.9375 132.988281 89.746094 131.863281 87.410156 129.359375 C 85.082031 126.859375 83.785156 122.042969 83.527344 114.921875 C 83.324219 109.171875 84.109375 104.894531 85.890625 102.089844 C 88.246094 98.316406 91.757812 96.28125 96.421875 95.996094 C 98.480469 95.871094 100.363281 96.164062 102.058594 96.875 C 103.757812 97.59375 105.207031 98.671875 106.410156 100.117188 C 106.621094 100.367188 106.835938 100.667969 107.042969 101.007812 C 108.191406 102.871094 110.472656 103.753906 112.664062 103.140625 L 120.648438 100.910156 C 123.875 100.003906 125.445312 96.375 123.792969 93.605469 C 121.515625 89.785156 118.683594 86.847656 115.292969 84.785156 C 110.378906 81.792969 103.738281 80.5625 95.359375 81.074219 C 84.652344 81.738281 76.476562 85.113281 70.828125 91.199219 C 65.179688 97.28125 62.550781 105.652344 62.929688 116.308594 C 63.21875 124.296875 65.117188 130.75 68.625 135.667969 C 72.132812 140.582031 76.222656 143.917969 80.875 145.664062 C 85.535156 147.410156 91.480469 148.058594 98.707031 147.613281 Z M 98.707031 147.613281 " fill-opacity="1" fill-rule="nonzero"/></g></g></g><g clip-path="url(#7dea995912)"><g clip-path="url(#ca519c0141)"><g clip-path="url(#31ae05f6a2)"><path fill="#763b2f" d="M -139.542969 60.675781 C -140.214844 60.886719 -140.589844 61.609375 -140.375 62.285156 C -140.160156 62.957031 -139.445312 63.332031 -138.765625 63.121094 L -47.84375 34.34375 L -21.542969 121.546875 C -21.335938 122.222656 -20.621094 122.613281 -19.941406 122.40625 C -19.902344 122.390625 -19.859375 122.375 -19.820312 122.359375 C -19.21875 122.109375 -18.894531 121.441406 -19.085938 120.804688 L -45.574219 32.984375 L -28.972656 11.4375 C -28.542969 10.878906 -28.644531 10.074219 -29.203125 9.640625 C -29.761719 9.210938 -30.570312 9.3125 -31 9.871094 L -47.761719 31.621094 Z M 8.171875 98.484375 C 7.570312 98.113281 6.78125 98.296875 6.410156 98.894531 L -8.636719 123.121094 L -96.234375 159.460938 C -97.976562 160.179688 -98.046875 160.804688 -97.773438 161.457031 C -97.503906 162.109375 -96.382812 162.222656 -96.085938 162.125 L -8.460938 125.824219 L 26.261719 210.046875 C 26.53125 210.703125 27.277344 211.011719 27.933594 210.742188 C 28.585938 210.472656 28.898438 209.722656 28.628906 209.070312 L -6.328125 124.265625 L 8.582031 100.25 C 8.957031 99.644531 8.773438 98.855469 8.171875 98.484375 Z M 43.015625 69.964844 C 42.308594 69.996094 41.757812 70.589844 41.792969 71.300781 C 41.824219 72.007812 42.421875 72.558594 43.132812 72.527344 L 138.410156 68.304688 L 141.195312 159.347656 C 141.214844 160.054688 141.804688 160.609375 142.515625 160.589844 C 142.554688 160.585938 142.601562 160.582031 142.640625 160.578125 C 143.289062 160.492188 143.777344 159.933594 143.757812 159.269531 L 140.945312 67.585938 L 162.566406 51.078125 C 163.128906 50.648438 163.234375 49.84375 162.808594 49.28125 C 162.378906 48.71875 161.574219 48.613281 161.011719 49.039062 L 139.183594 65.699219 Z M 43.015625 69.964844 " fill-opacity="1" fill-rule="nonzero"/></g></g></g><g clip-path="url(#695b9848d8)"><g clip-path="url(#fed506608a)"><path fill="#0dbcb7" d="M 51.414062 79.230469 L 132.726562 76.371094 L 135.25 148.148438 L 53.941406 151.007812 Z M 51.414062 79.230469 " fill-opacity="1" fill-rule="nonzero"/></g></g></svg>