<svg width="504" height="194" viewBox="0 0 504 194" fill="none" xmlns="http://www.w3.org/2000/svg">
    <mask id="mask0_1610_149" style="mask-type:luminance" maskUnits="userSpaceOnUse" x="10" y="11" width="494"
        height="165">
        <path d="M10.9297 11.7656H504.001V175.056H10.9297V11.7656Z" fill="white" />
    </mask>
    <g mask="url(#mask0_1610_149)">
        <mask id="mask1_1610_149" style="mask-type:luminance" maskUnits="userSpaceOnUse" x="-42" y="-121" width="573"
            height="431">
            <path d="M435.5 309.616L-41.7539 127.364L53.2624 -120.274L530.516 61.9778L435.5 309.616Z" fill="white" />
        </mask>
        <g mask="url(#mask1_1610_149)">
            <mask id="mask2_1610_149" style="mask-type:luminance" maskUnits="userSpaceOnUse" x="-42" y="-121"
                width="573" height="431">
                <path d="M435.5 309.616L-41.7539 127.364L53.2624 -120.274L530.516 61.9778L435.5 309.616Z"
                    fill="white" />
            </mask>
            <g mask="url(#mask2_1610_149)">
                <path
                    d="M59.8889 15.9849C95.3244 9.15078 136.538 15.042 173.34 15.9215C230.78 18.6948 294.304 9.69355 349.56 12.4629C406.869 14.9113 446.364 33.7458 468.063 54.0898C492.95 77.421 508.117 103.775 501.473 130.157C493.582 157.743 452.948 172.41 385.889 172.766C346.276 173.166 306.262 171.265 266.446 172.089C213.346 172.552 154.758 178.162 107.409 170.896C48.4834 161.824 29.2983 134.004 19.1597 110.288C10.1767 86.347 -4.13172 30.2633 59.4322 16.0681L59.8889 15.9849Z"
                    fill="#FF5757" />
            </g>
        </g>
    </g>
    <mask id="mask3_1610_149" style="mask-type:luminance" maskUnits="userSpaceOnUse" x="8" y="4" width="494"
        height="164">
        <path d="M8.11719 4.05811H501.188V167.349H8.11719V4.05811Z" fill="white" />
    </mask>
    <g mask="url(#mask3_1610_149)">
        <mask id="mask4_1610_149" style="mask-type:luminance" maskUnits="userSpaceOnUse" x="-45" y="-128" width="573"
            height="430">
            <path d="M432.687 301.908L-44.5664 119.656L50.4499 -127.982L527.703 54.2702L432.687 301.908Z"
                fill="white" />
        </mask>
        <g mask="url(#mask4_1610_149)">
            <mask id="mask5_1610_149" style="mask-type:luminance" maskUnits="userSpaceOnUse" x="-45" y="-128"
                width="573" height="430">
                <path d="M432.687 301.908L-44.5664 119.656L50.4499 -127.982L527.703 54.2702L432.687 301.908Z"
                    fill="white" />
            </mask>
            <g mask="url(#mask5_1610_149)">
                <path
                    d="M57.0764 8.27741C92.5119 1.44326 133.726 7.33449 170.527 8.21402C227.967 10.9873 291.492 1.98603 346.748 4.75534C404.057 7.20375 443.551 26.0383 465.25 46.3823C490.138 69.7135 505.304 96.0675 498.66 122.449C490.769 150.036 450.135 164.702 383.077 165.059C343.464 165.459 303.449 163.557 263.633 164.381C210.534 164.845 151.946 170.455 104.596 163.189C45.6709 154.116 26.4858 126.296 16.3472 102.581C7.36422 78.6395 -6.94422 22.5558 56.6197 8.36061L57.0764 8.27741Z"
                    fill="#F1F1F1" />
            </g>
        </g>
    </g>
    <mask id="mask6_1610_149" style="mask-type:luminance" maskUnits="userSpaceOnUse" x="28" y="35" width="36"
        height="48">
        <path d="M28.3555 35.3911H63.6639V82.8855H28.3555V35.3911Z" fill="white" />
    </mask>
    <g mask="url(#mask6_1610_149)">
        <mask id="mask7_1610_149" style="mask-type:luminance" maskUnits="userSpaceOnUse" x="28" y="35" width="36"
            height="48">
            <path
                d="M60.8272 42.0193C54.1237 43.8417 50.3908 46.8804 48.1073 48.8574C46.356 50.3787 45.0613 51.7455 43.7667 53.4174C42.4721 55.0893 41.4793 56.6067 40.4904 58.6589C39.1203 61.3926 37.4445 65.1167 36.7574 68.5358C36.0744 72.1806 37.5954 77.7272 36.5311 80.0845C35.9235 81.4513 34.7043 82.2873 33.7115 82.6676C32.953 82.8934 31.8847 82.7429 31.2017 82.4378C30.4392 82.1367 29.6012 81.5266 29.22 80.7699C28.7633 79.8547 28.7633 77.957 29.0691 77.0458C29.4464 76.2098 30.2088 75.5244 30.8959 75.2233C31.6584 74.843 32.6472 74.6132 33.4097 74.843C34.474 75.0688 35.9235 76.2098 36.3802 77.121C36.8369 77.8817 36.8369 78.8682 36.6065 79.7041C36.4556 80.4648 35.9235 81.376 35.3119 81.8316C34.6289 82.3625 33.7115 82.8181 32.8736 82.7429C31.8093 82.7429 30.1334 81.9069 29.4464 81.1463C28.9142 80.4648 28.8388 79.7794 28.6879 78.7177C28.3821 76.5149 28.4575 72.0301 28.9142 68.7616C29.4464 65.4218 30.4392 62.078 31.8093 58.8095C33.2548 55.3904 35.2365 51.7455 37.5954 48.7821C40.0337 45.8186 43.2346 43.1603 46.2805 41.0328C49.1716 39.0558 52.6782 37.0789 55.3429 36.2469C57.2452 35.6368 59.2268 35.3317 60.5214 35.5615C61.4348 35.6368 62.1219 35.9418 62.654 36.548C63.1862 37.1581 63.7183 38.5249 63.4919 39.4361C63.2616 40.4226 60.8272 42.0193 60.8272 42.0193Z"
                fill="white" />
        </mask>
        <g mask="url(#mask7_1610_149)">
            <path d="M25.6406 32.5227H66.5366V85.9123H25.6406V32.5227Z" fill="white" />
        </g>
    </g>
    <mask id="mask8_1610_149" style="mask-type:luminance" maskUnits="userSpaceOnUse" x="33" y="98" width="7" height="8">
        <path d="M33.25 98.0039H39.465V105.48H33.25V98.0039Z" fill="white" />
    </mask>
    <g mask="url(#mask8_1610_149)">
        <mask id="mask9_1610_149" style="mask-type:luminance" maskUnits="userSpaceOnUse" x="33" y="98" width="7"
            height="8">
            <path
                d="M39.427 102.497C37.4453 105.385 36.1507 105.535 35.3882 105.234C34.6297 104.929 33.7123 103.943 33.5614 103.107C33.4105 102.346 33.7917 101.054 34.3239 100.444C34.856 99.8382 36.1507 99.4578 36.9886 99.5331C37.7511 99.6876 38.8154 100.524 39.1966 101.28C39.5024 101.966 39.3515 103.333 39.0457 104.018C38.7399 104.624 38.1323 105.004 37.5962 105.234C36.9886 105.46 36.2261 105.535 35.694 105.385C35.0864 105.234 34.4748 104.854 34.0936 104.319C33.5614 103.562 33.1802 101.966 33.2556 100.979C33.3311 100.219 33.7123 99.3826 34.2484 98.927C34.7806 98.3961 35.6185 97.9405 36.381 98.0157C37.2944 98.091 39.427 99.9887 39.427 99.9887"
                fill="white" />
        </mask>
        <g mask="url(#mask9_1610_149)">
            <path d="M30.2109 94.9771H42.5496V108.439H30.2109V94.9771Z" fill="white" />
        </g>
    </g>
    <mask id="mask10_1610_149" style="mask-type:luminance" maskUnits="userSpaceOnUse" x="37" y="113" width="6"
        height="7">
        <path d="M37.4531 113.427H42.9414V119.124H37.4531V113.427Z" fill="white" />
    </mask>
    <g mask="url(#mask10_1610_149)">
        <mask id="mask11_1610_149" style="mask-type:luminance" maskUnits="userSpaceOnUse" x="37" y="113" width="6"
            height="7">
            <path
                d="M42.9304 115.412C42.2434 118.376 41.7867 118.681 41.4054 118.831C41.0242 118.986 40.5675 119.136 40.0353 119.061C39.3523 118.986 38.2086 118.376 37.8273 117.694C37.3706 117.009 37.4461 115.717 37.597 115.036C37.7519 114.576 38.1331 114.275 38.5143 113.97C38.8162 113.744 39.1974 113.439 39.7295 113.439C40.4166 113.364 42.2434 114.2 42.2434 114.2"
                fill="white" />
        </mask>
        <g mask="url(#mask11_1610_149)">
            <path d="M34.5508 110.401H45.9761V122.195H34.5508V110.401Z" fill="white" />
        </g>
    </g>
    <mask id="mask12_1610_149" style="mask-type:luminance" maskUnits="userSpaceOnUse" x="469" y="109" width="12"
        height="13">
        <path d="M469.047 109.426H480.373V121.945H469.047V109.426Z" fill="white" />
    </mask>
    <g mask="url(#mask12_1610_149)">
        <mask id="mask13_1610_149" style="mask-type:luminance" maskUnits="userSpaceOnUse" x="469" y="109" width="12"
            height="13">
            <path
                d="M469.109 114.957C469.792 112.373 470.63 111.007 471.544 110.4C472.457 109.79 473.982 109.489 474.971 109.489C475.583 109.41 476.115 109.564 476.722 109.866C477.56 110.246 478.779 111.157 479.391 112.148C479.999 113.059 480.15 114.655 480.15 115.567C480.15 116.248 479.999 116.704 479.693 117.314C479.161 118.15 478.017 119.366 477.258 119.897C476.647 120.202 476.115 120.353 475.507 120.428C474.971 120.503 474.363 120.578 473.752 120.428C472.838 120.202 471.393 119.592 470.63 118.756C469.868 117.995 469.336 116.478 469.109 115.567C469.03 114.881 469.109 114.35 469.26 113.819C469.336 113.209 469.491 112.678 469.868 112.148C470.48 111.387 471.699 110.246 472.612 109.866C473.22 109.564 473.676 109.41 474.363 109.489C475.277 109.489 476.802 109.79 477.715 110.4C478.704 111.007 479.466 112.223 479.923 113.209C480.304 114.2 480.455 115.262 480.304 116.327C480.15 117.54 479.693 119.136 478.779 120.047C477.942 120.959 476.496 121.719 475.201 121.87C473.982 122.024 472.306 121.569 471.317 120.808C470.325 120.123 469.109 117.464 469.109 117.464"
                fill="white" />
        </mask>
        <g mask="url(#mask13_1610_149)">
            <path d="M466.062 106.447H483.425V124.988H466.062V106.447Z" fill="white" />
        </g>
    </g>
    <mask id="mask14_1610_149" style="mask-type:luminance" maskUnits="userSpaceOnUse" x="454" y="126" width="11"
        height="12">
        <path d="M454.047 126.909H464.861V137.935H454.047V126.909Z" fill="white" />
    </mask>
    <g mask="url(#mask14_1610_149)">
        <mask id="mask15_1610_149" style="mask-type:luminance" maskUnits="userSpaceOnUse" x="454" y="126" width="11"
            height="12">
            <path
                d="M464.848 130.836C464.848 134.255 464.466 135.17 463.934 135.851C463.398 136.537 462.64 137.143 461.877 137.448C461.115 137.828 460.126 137.979 459.288 137.904C458.45 137.904 457.537 137.598 456.774 137.143C456.012 136.687 455.329 136.002 454.947 135.32C454.491 134.56 454.185 133.649 454.109 132.813C454.109 131.977 454.26 130.99 454.642 130.229C454.947 129.469 455.555 128.708 456.242 128.177C456.925 127.646 457.763 127.266 458.601 127.04C459.439 126.886 460.428 126.961 461.266 127.266C462.028 127.496 463.478 128.558 463.478 128.558"
                fill="white" />
        </mask>
        <g mask="url(#mask15_1610_149)">
            <path d="M451.062 123.998H468.044V140.942H451.062V123.998Z" fill="white" />
        </g>
    </g>
    <mask id="mask16_1610_149" style="mask-type:luminance" maskUnits="userSpaceOnUse" x="431" y="139" width="12"
        height="12">
        <path d="M431.566 139.433H442.329V150.439H431.566V139.433Z" fill="white" />
    </mask>
    <g mask="url(#mask16_1610_149)">
        <mask id="mask17_1610_149" style="mask-type:luminance" maskUnits="userSpaceOnUse" x="431" y="139" width="12"
            height="12">
            <path
                d="M442.298 143.375C442.298 146.794 441.917 147.63 441.385 148.311C440.853 148.997 440.09 149.603 439.328 149.908C438.565 150.288 437.577 150.439 436.739 150.363C435.901 150.363 434.987 150.058 434.225 149.603C433.542 149.147 432.855 148.466 432.398 147.78C431.941 147.02 431.715 146.108 431.636 145.272C431.56 144.436 431.79 143.525 432.092 142.689C432.473 141.929 433.085 141.172 433.693 140.637C434.38 140.181 435.293 139.726 436.131 139.575C436.893 139.421 437.882 139.5 438.72 139.726C439.483 140.031 440.928 141.093 440.928 141.093"
                fill="white" />
        </mask>
        <g mask="url(#mask17_1610_149)">
            <path d="M428.59 136.537H445.499V153.402H428.59V136.537Z" fill="white" />
        </g>
    </g>
</svg>