<svg xmlns="http://www.w3.org/2000/svg" xmlns:xlink="http://www.w3.org/1999/xlink" width="752" zoomAndPan="magnify" viewBox="0 0 564 424.499987" height="566" preserveAspectRatio="xMidYMid meet" version="1.0"><defs><clipPath id="39d1902e35"><path d="M 52 130 L 537 130 L 537 291 L 52 291 Z M 52 130 " clip-rule="nonzero"/></clipPath><clipPath id="7880aaaf71"><path d="M 469.621094 423.671875 L 0.179688 243.976562 L 93.640625 -0.1875 L 563.082031 179.507812 Z M 469.621094 423.671875 " clip-rule="nonzero"/></clipPath><clipPath id="cd839a3c69"><path d="M 469.621094 423.671875 L 0.179688 243.976562 L 93.640625 -0.1875 L 563.082031 179.507812 Z M 469.621094 423.671875 " clip-rule="nonzero"/></clipPath><clipPath id="277307cf9d"><path d="M 69.140625 154.894531 L 103.871094 154.894531 L 103.871094 201.722656 L 69.140625 201.722656 Z M 69.140625 154.894531 " clip-rule="nonzero"/></clipPath><clipPath id="8e47184d76"><path d="M 101.082031 161.429688 C 94.488281 163.226562 90.816406 166.222656 88.570312 168.171875 C 86.847656 169.671875 85.574219 171.019531 84.300781 172.667969 C 83.027344 174.316406 82.050781 175.8125 81.078125 177.835938 C 79.730469 180.53125 78.082031 184.203125 77.40625 187.574219 C 76.734375 191.167969 78.230469 196.636719 77.183594 198.960938 C 76.585938 200.308594 75.386719 201.132812 74.410156 201.507812 C 73.664062 201.730469 72.613281 201.582031 71.941406 201.28125 C 71.191406 200.984375 70.367188 200.382812 69.992188 199.636719 C 69.542969 198.734375 69.542969 196.863281 69.84375 195.964844 C 70.214844 195.140625 70.964844 194.464844 71.640625 194.167969 C 72.390625 193.792969 73.363281 193.566406 74.113281 193.792969 C 75.160156 194.015625 76.585938 195.140625 77.035156 196.039062 C 77.484375 196.789062 77.484375 197.761719 77.257812 198.585938 C 77.109375 199.335938 76.585938 200.234375 75.984375 200.683594 C 75.3125 201.207031 74.410156 201.65625 73.585938 201.582031 C 72.539062 201.582031 70.890625 200.757812 70.214844 200.007812 C 69.691406 199.335938 69.617188 198.660156 69.46875 197.613281 C 69.167969 195.441406 69.242188 191.019531 69.691406 187.796875 C 70.214844 184.503906 71.191406 181.207031 72.539062 177.984375 C 73.960938 174.613281 75.910156 171.019531 78.230469 168.097656 C 80.628906 165.175781 83.777344 162.554688 86.773438 160.457031 C 89.617188 158.507812 93.066406 156.558594 95.6875 155.738281 C 97.558594 155.136719 99.507812 154.835938 100.78125 155.0625 C 101.679688 155.136719 102.355469 155.4375 102.878906 156.035156 C 103.402344 156.636719 103.925781 157.984375 103.703125 158.882812 C 103.476562 159.855469 101.082031 161.429688 101.082031 161.429688 " clip-rule="nonzero"/></clipPath><clipPath id="15a0c8c32f"><path d="M 73.953125 216.628906 L 80.066406 216.628906 L 80.066406 224 L 73.953125 224 Z M 73.953125 216.628906 " clip-rule="nonzero"/></clipPath><clipPath id="c1a3d6e5af"><path d="M 80.03125 221.058594 C 78.082031 223.90625 76.808594 224.054688 76.058594 223.757812 C 75.3125 223.457031 74.410156 222.484375 74.261719 221.660156 C 74.113281 220.910156 74.488281 219.636719 75.011719 219.035156 C 75.535156 218.4375 76.808594 218.0625 77.632812 218.136719 C 78.382812 218.289062 79.429688 219.113281 79.804688 219.859375 C 80.105469 220.535156 79.957031 221.882812 79.65625 222.558594 C 79.355469 223.15625 78.757812 223.53125 78.230469 223.757812 C 77.632812 223.980469 76.882812 224.054688 76.359375 223.90625 C 75.761719 223.757812 75.160156 223.382812 74.785156 222.855469 C 74.261719 222.109375 73.886719 220.535156 73.960938 219.5625 C 74.035156 218.8125 74.410156 217.988281 74.9375 217.539062 C 75.460938 217.015625 76.285156 216.566406 77.035156 216.640625 C 77.933594 216.714844 80.03125 218.585938 80.03125 218.585938 " clip-rule="nonzero"/></clipPath><clipPath id="46f8bec322"><path d="M 78.089844 231.835938 L 83.488281 231.835938 L 83.488281 237.453125 L 78.089844 237.453125 Z M 78.089844 231.835938 " clip-rule="nonzero"/></clipPath><clipPath id="d3c8188ab2"><path d="M 83.476562 233.792969 C 82.800781 236.714844 82.351562 237.015625 81.976562 237.164062 C 81.601562 237.316406 81.152344 237.464844 80.628906 237.390625 C 79.957031 237.316406 78.832031 236.714844 78.457031 236.042969 C 78.007812 235.367188 78.082031 234.09375 78.230469 233.421875 C 78.382812 232.96875 78.757812 232.671875 79.132812 232.371094 C 79.429688 232.148438 79.804688 231.847656 80.328125 231.847656 C 81.003906 231.773438 82.800781 232.597656 82.800781 232.597656 " clip-rule="nonzero"/></clipPath><clipPath id="c805cfa4c4"><path d="M 502.621094 227.890625 L 513.761719 227.890625 L 513.761719 240.234375 L 502.621094 240.234375 Z M 502.621094 227.890625 " clip-rule="nonzero"/></clipPath><clipPath id="d08efdcfbc"><path d="M 502.683594 233.34375 C 503.355469 230.796875 504.179688 229.449219 505.078125 228.851562 C 505.976562 228.25 507.476562 227.953125 508.449219 227.953125 C 509.050781 227.875 509.574219 228.027344 510.171875 228.324219 C 510.996094 228.699219 512.195312 229.597656 512.796875 230.574219 C 513.394531 231.472656 513.542969 233.046875 513.542969 233.945312 C 513.542969 234.617188 513.394531 235.066406 513.09375 235.667969 C 512.570312 236.492188 511.445312 237.691406 510.699219 238.214844 C 510.097656 238.515625 509.574219 238.664062 508.976562 238.738281 C 508.449219 238.8125 507.851562 238.886719 507.25 238.738281 C 506.351562 238.515625 504.929688 237.914062 504.179688 237.089844 C 503.429688 236.339844 502.90625 234.84375 502.683594 233.945312 C 502.605469 233.269531 502.683594 232.746094 502.832031 232.222656 C 502.90625 231.621094 503.058594 231.097656 503.429688 230.574219 C 504.03125 229.824219 505.230469 228.699219 506.128906 228.324219 C 506.726562 228.027344 507.175781 227.875 507.851562 227.953125 C 508.75 227.953125 510.25 228.25 511.148438 228.851562 C 512.121094 229.449219 512.871094 230.648438 513.320312 231.621094 C 513.695312 232.597656 513.84375 233.644531 513.695312 234.695312 C 513.542969 235.890625 513.09375 237.464844 512.195312 238.363281 C 511.371094 239.261719 509.949219 240.011719 508.675781 240.160156 C 507.476562 240.3125 505.828125 239.863281 504.855469 239.113281 C 503.878906 238.4375 502.683594 235.816406 502.683594 235.816406 " clip-rule="nonzero"/></clipPath><clipPath id="ad8c117a85"><path d="M 487.863281 245.128906 L 498.5 245.128906 L 498.5 256 L 487.863281 256 Z M 487.863281 245.128906 " clip-rule="nonzero"/></clipPath><clipPath id="6a504cbba7"><path d="M 498.488281 249 C 498.488281 252.371094 498.113281 253.273438 497.589844 253.945312 C 497.0625 254.621094 496.316406 255.21875 495.566406 255.519531 C 494.816406 255.894531 493.84375 256.042969 493.019531 255.96875 C 492.195312 255.96875 491.296875 255.667969 490.546875 255.21875 C 489.796875 254.769531 489.125 254.09375 488.75 253.421875 C 488.300781 252.671875 488 251.773438 487.925781 250.949219 C 487.925781 250.125 488.074219 249.152344 488.449219 248.402344 C 488.75 247.652344 489.347656 246.902344 490.023438 246.378906 C 490.695312 245.855469 491.519531 245.480469 492.34375 245.257812 C 493.167969 245.105469 494.140625 245.179688 494.964844 245.480469 C 495.714844 245.707031 497.140625 246.753906 497.140625 246.753906 " clip-rule="nonzero"/></clipPath><clipPath id="72dc22adf2"><path d="M 465.753906 257.476562 L 476.339844 257.476562 L 476.339844 268.328125 L 465.753906 268.328125 Z M 465.753906 257.476562 " clip-rule="nonzero"/></clipPath><clipPath id="c252c06c63"><path d="M 476.3125 261.363281 C 476.3125 264.734375 475.9375 265.558594 475.414062 266.230469 C 474.890625 266.90625 474.140625 267.503906 473.390625 267.804688 C 472.640625 268.179688 471.667969 268.328125 470.84375 268.253906 C 470.019531 268.253906 469.121094 267.953125 468.371094 267.503906 C 467.699219 267.054688 467.023438 266.382812 466.574219 265.707031 C 466.125 264.957031 465.902344 264.058594 465.824219 263.234375 C 465.75 262.410156 465.976562 261.511719 466.273438 260.6875 C 466.648438 259.9375 467.25 259.191406 467.847656 258.664062 C 468.523438 258.214844 469.421875 257.765625 470.246094 257.617188 C 470.996094 257.464844 471.96875 257.542969 472.792969 257.765625 C 473.542969 258.066406 474.964844 259.113281 474.964844 259.113281 " clip-rule="nonzero"/></clipPath></defs><g clip-path="url(#39d1902e35)"><g clip-path="url(#7880aaaf71)"><g clip-path="url(#cd839a3c69)"><path fill="#ff5757" d="M 100.160156 134.160156 C 135.015625 127.421875 175.554688 133.230469 211.753906 134.097656 C 268.253906 136.832031 330.738281 127.957031 385.089844 130.6875 C 441.460938 133.101562 480.308594 151.671875 501.652344 171.730469 C 526.132812 194.734375 541.050781 220.71875 534.515625 246.730469 C 526.753906 273.929688 486.785156 288.390625 420.824219 288.742188 C 381.859375 289.136719 342.5 287.261719 303.335938 288.074219 C 251.105469 288.53125 193.476562 294.0625 146.902344 286.898438 C 88.941406 277.953125 70.070312 250.523438 60.097656 227.140625 C 51.261719 203.535156 37.1875 148.238281 99.710938 134.242188 Z M 100.160156 134.160156 " fill-opacity="1" fill-rule="nonzero"/></g></g></g><g clip-path="url(#277307cf9d)"><g clip-path="url(#8e47184d76)"><path fill="#ffffff" d="M 66.472656 152.066406 L 106.699219 152.066406 L 106.699219 204.707031 L 66.472656 204.707031 Z M 66.472656 152.066406 " fill-opacity="1" fill-rule="nonzero"/></g></g><g clip-path="url(#15a0c8c32f)"><g clip-path="url(#c1a3d6e5af)"><path fill="#ffffff" d="M 70.964844 213.644531 L 83.101562 213.644531 L 83.101562 226.917969 L 70.964844 226.917969 Z M 70.964844 213.644531 " fill-opacity="1" fill-rule="nonzero"/></g></g><g clip-path="url(#46f8bec322)"><g clip-path="url(#d3c8188ab2)"><path fill="#ffffff" d="M 75.234375 228.851562 L 86.472656 228.851562 L 86.472656 240.480469 L 75.234375 240.480469 Z M 75.234375 228.851562 " fill-opacity="1" fill-rule="nonzero"/></g></g><g clip-path="url(#c805cfa4c4)"><g clip-path="url(#d08efdcfbc)"><path fill="#ffffff" d="M 499.6875 224.953125 L 516.765625 224.953125 L 516.765625 243.234375 L 499.6875 243.234375 Z M 499.6875 224.953125 " fill-opacity="1" fill-rule="nonzero"/></g></g><g clip-path="url(#ad8c117a85)"><g clip-path="url(#6a504cbba7)"><path fill="#ffffff" d="M 484.929688 242.257812 L 501.632812 242.257812 L 501.632812 258.964844 L 484.929688 258.964844 Z M 484.929688 242.257812 " fill-opacity="1" fill-rule="nonzero"/></g></g><g clip-path="url(#72dc22adf2)"><g clip-path="url(#c252c06c63)"><path fill="#ffffff" d="M 462.828125 254.621094 L 479.460938 254.621094 L 479.460938 271.25 L 462.828125 271.25 Z M 462.828125 254.621094 " fill-opacity="1" fill-rule="nonzero"/></g></g></svg>