<svg xmlns="http://www.w3.org/2000/svg" xmlns:xlink="http://www.w3.org/1999/xlink" width="706" zoomAndPan="magnify" viewBox="0 0 529.5 619.499986" height="826" preserveAspectRatio="xMidYMid meet" version="1.0"><defs><clipPath id="6605207bb8"><path d="M 348 221 L 412 221 L 412 283 L 348 283 Z M 348 221 " clip-rule="nonzero"/></clipPath><clipPath id="e67623c661"><path d="M 409.378906 218.300781 L 416.679688 280.0625 L 349.710938 287.980469 L 342.40625 226.21875 Z M 409.378906 218.300781 " clip-rule="nonzero"/></clipPath><clipPath id="7750b48d1d"><path d="M 409.378906 218.300781 L 416.679688 280.0625 L 349.710938 287.980469 L 342.40625 226.21875 Z M 409.378906 218.300781 " clip-rule="nonzero"/></clipPath><clipPath id="fe0334174b"><path d="M 40 199 L 402 199 L 402 617 L 40 617 Z M 40 199 " clip-rule="nonzero"/></clipPath><clipPath id="5ff1963e21"><path d="M 0 39.425781 L 480.933594 0.0429688 L 528.390625 579.554688 L 47.453125 618.9375 Z M 0 39.425781 " clip-rule="nonzero"/></clipPath><clipPath id="d4ce70c914"><path d="M 0 39.425781 L 480.933594 0.0429688 L 528.390625 579.554688 L 47.453125 618.9375 Z M 0 39.425781 " clip-rule="nonzero"/></clipPath><clipPath id="841a98d548"><path d="M 206 6 L 507 6 L 507 393 L 206 393 Z M 206 6 " clip-rule="nonzero"/></clipPath><clipPath id="980e14ac47"><path d="M 0 39.425781 L 480.933594 0.0429688 L 528.390625 579.554688 L 47.453125 618.9375 Z M 0 39.425781 " clip-rule="nonzero"/></clipPath><clipPath id="98d2292b53"><path d="M 0 39.425781 L 480.933594 0.0429688 L 528.390625 579.554688 L 47.453125 618.9375 Z M 0 39.425781 " clip-rule="nonzero"/></clipPath><clipPath id="09c2f23e16"><path d="M 239 199 L 278 199 L 278 233 L 239 233 Z M 239 199 " clip-rule="nonzero"/></clipPath><clipPath id="f6b0679b4d"><path d="M 0 39.425781 L 480.933594 0.0429688 L 528.390625 579.554688 L 47.453125 618.9375 Z M 0 39.425781 " clip-rule="nonzero"/></clipPath><clipPath id="e4db79fb36"><path d="M 0 39.425781 L 480.933594 0.0429688 L 528.390625 579.554688 L 47.453125 618.9375 Z M 0 39.425781 " clip-rule="nonzero"/></clipPath><clipPath id="6e9cb20a34"><path d="M 170 270 L 263 270 L 263 394 L 170 394 Z M 170 270 " clip-rule="nonzero"/></clipPath><clipPath id="112e8903bf"><path d="M 0 39.425781 L 480.933594 0.0429688 L 528.390625 579.554688 L 47.453125 618.9375 Z M 0 39.425781 " clip-rule="nonzero"/></clipPath><clipPath id="bc939b4003"><path d="M 0 39.425781 L 480.933594 0.0429688 L 528.390625 579.554688 L 47.453125 618.9375 Z M 0 39.425781 " clip-rule="nonzero"/></clipPath></defs><g clip-path="url(#6605207bb8)"><g clip-path="url(#e67623c661)"><g clip-path="url(#7750b48d1d)"><path fill="#ff5757" d="M 348.566406 246.734375 C 349.820312 231.367188 367.414062 223.277344 381.234375 222.097656 C 388.148438 221.480469 394.246094 221.90625 399.648438 225.027344 C 409.523438 230.714844 412.816406 247.371094 411.59375 258.261719 C 410.515625 266.699219 407.589844 274.4375 401.351562 279.574219 C 398.105469 282.121094 393.820312 283.117188 389.644531 282.921875 C 372.738281 282.113281 347.140625 266.359375 348.5625 246.785156 Z M 348.566406 246.734375 " fill-opacity="1" fill-rule="nonzero"/></g></g></g><g clip-path="url(#fe0334174b)"><g clip-path="url(#5ff1963e21)"><g clip-path="url(#d4ce70c914)"><path fill="#f8b780" d="M 267.066406 264.304688 C 269.191406 261.84375 271.371094 259.261719 273.59375 256.558594 C 293.03125 232.851562 294.769531 214.429688 278.980469 201.710938 C 277.277344 200.339844 275.183594 199.722656 272.769531 199.75 C 264.683594 199.832031 253.023438 207.105469 240.574219 217.484375 C 222.15625 232.8125 202 254.898438 189.078125 270.550781 C 166.320312 298.113281 170.546875 334.089844 171.167969 338.496094 L 61.277344 445.984375 C 61.277344 445.984375 37.167969 475 41.421875 535.960938 C 45.925781 600.273438 75.242188 616.5 75.242188 616.5 C 75.242188 616.5 242.820312 428.054688 250.824219 428.714844 C 258.84375 429.390625 271.199219 442.132812 283.695312 439.441406 C 322.234375 431.128906 401.683594 362.007812 401.683594 362.007812 Z M 267.066406 264.304688 " fill-opacity="1" fill-rule="nonzero"/></g></g></g><g clip-path="url(#841a98d548)"><g clip-path="url(#980e14ac47)"><g clip-path="url(#98d2292b53)"><path fill="#bdebaa" d="M 484.953125 355.667969 L 295.703125 392.390625 C 281.339844 395.179688 267.4375 385.796875 264.644531 371.433594 L 247.941406 285.378906 C 254.664062 278.105469 263.804688 268.503906 273.59375 256.570312 C 293.035156 232.863281 294.769531 214.441406 278.980469 201.722656 C 277.277344 200.351562 275.183594 199.734375 272.769531 199.761719 C 264.683594 199.84375 253.027344 207.121094 240.574219 217.496094 C 238.929688 218.875 237.261719 220.289062 235.597656 221.757812 L 207.066406 74.753906 C 204.273438 60.390625 213.65625 46.488281 228.023438 43.695312 L 417.28125 6.972656 C 431.648438 4.179688 445.550781 13.566406 448.339844 27.929688 L 505.921875 324.605469 C 508.699219 338.972656 499.316406 352.875 484.953125 355.667969 Z M 484.953125 355.667969 " fill-opacity="1" fill-rule="nonzero"/></g></g></g><g clip-path="url(#09c2f23e16)"><g clip-path="url(#f6b0679b4d)"><g clip-path="url(#e4db79fb36)"><path fill="#ffd7c0" d="M 277.320312 211.789062 C 277.597656 219.894531 267.8125 231.425781 257.761719 232.570312 C 249.347656 233.53125 241.921875 221.5 239.738281 217.554688 C 252.203125 207.175781 263.863281 199.910156 271.933594 199.820312 C 273.652344 201.527344 277.121094 205.691406 277.320312 211.789062 Z M 277.320312 211.789062 " fill-opacity="1" fill-rule="nonzero"/></g></g></g><g clip-path="url(#6e9cb20a34)"><g clip-path="url(#112e8903bf)"><g clip-path="url(#bc939b4003)"><path fill="#000000" d="M 223.515625 393.066406 C 223 393.105469 222.492188 392.890625 222.160156 392.464844 C 221.636719 391.785156 221.777344 390.816406 222.460938 390.308594 C 222.570312 390.222656 228.515625 385.648438 233.949219 377.488281 C 238.960938 369.992188 244.554688 357.824219 242.816406 342.441406 C 239.40625 312.332031 233.644531 298.285156 233.59375 298.148438 L 233.191406 297.1875 L 233.933594 296.453125 C 234.125 296.257812 253.339844 277.269531 259.332031 270.691406 C 259.898438 270.0625 260.878906 270.023438 261.507812 270.589844 C 262.136719 271.160156 262.1875 272.140625 261.605469 272.769531 C 256.234375 278.675781 240.394531 294.398438 236.820312 297.9375 C 238.195312 301.625 242.894531 315.625 245.890625 342.097656 C 246.703125 349.324219 246.085938 356.484375 244.027344 363.386719 C 242.386719 368.898438 239.851562 374.25 236.464844 379.296875 C 230.714844 387.886719 224.585938 392.578125 224.328125 392.765625 C 224.074219 392.941406 223.796875 393.042969 223.515625 393.066406 Z M 176.742188 353.21875 C 177.859375 352.53125 177.1875 350.761719 177.1875 350.761719 L 177.199219 350.773438 C 177.171875 350.738281 174.417969 346.492188 173.621094 333.269531 C 172.792969 319.671875 173.484375 315.027344 173.492188 314.988281 C 173.632812 314.148438 173.0625 313.355469 172.222656 313.21875 C 171.386719 313.078125 170.59375 313.648438 170.453125 314.488281 C 170.417969 314.683594 169.691406 319.382812 170.546875 333.457031 C 171.421875 347.785156 174.550781 352.363281 174.683594 352.546875 C 174.667969 352.546875 175.410156 354.023438 176.742188 353.21875 Z M 176.742188 353.21875 " fill-opacity="1" fill-rule="nonzero"/></g></g></g></svg>