<svg xmlns="http://www.w3.org/2000/svg" xmlns:xlink="http://www.w3.org/1999/xlink" width="446" zoomAndPan="magnify" viewBox="0 0 334.5 262.499992" height="350" preserveAspectRatio="xMidYMid meet" version="1.0"><defs><g/><clipPath id="2d91a046ef"><path d="M 0.0703125 29 L 162 29 L 162 222 L 0.0703125 222 Z M 0.0703125 29 " clip-rule="nonzero"/></clipPath><clipPath id="3989582ef4"><path d="M 0.0703125 81.195312 L 144.046875 27.597656 L 196.152344 167.574219 L 52.175781 221.171875 Z M 0.0703125 81.195312 " clip-rule="nonzero"/></clipPath><clipPath id="52c5a5050b"><path d="M -156.410156 66.9375 L 120.210938 -36.039062 L 196.136719 167.929688 L -80.484375 270.902344 Z M -156.410156 66.9375 " clip-rule="nonzero"/></clipPath><clipPath id="63862aa97a"><path d="M 0.0703125 29 L 162 29 L 162 186 L 0.0703125 186 Z M 0.0703125 29 " clip-rule="nonzero"/></clipPath><clipPath id="d507f7d119"><path d="M 0.0703125 81.195312 L 144.046875 27.597656 L 196.152344 167.574219 L 52.175781 221.171875 Z M 0.0703125 81.195312 " clip-rule="nonzero"/></clipPath><clipPath id="c13357df6a"><path d="M -156.410156 66.9375 L 120.210938 -36.039062 L 196.136719 167.929688 L -80.484375 270.902344 Z M -156.410156 66.9375 " clip-rule="nonzero"/></clipPath><clipPath id="fffd1f1823"><path d="M 0.0703125 77 L 123 77 L 123 222 L 0.0703125 222 Z M 0.0703125 77 " clip-rule="nonzero"/></clipPath><clipPath id="0f1d70b86a"><path d="M 0.0703125 81.195312 L 144.046875 27.597656 L 196.152344 167.574219 L 52.175781 221.171875 Z M 0.0703125 81.195312 " clip-rule="nonzero"/></clipPath><clipPath id="87356f48d8"><path d="M -156.410156 66.9375 L 120.210938 -36.039062 L 196.136719 167.929688 L -80.484375 270.902344 Z M -156.410156 66.9375 " clip-rule="nonzero"/></clipPath><clipPath id="939d9cdd8f"><path d="M 0.0703125 29 L 162 29 L 162 222 L 0.0703125 222 Z M 0.0703125 29 " clip-rule="nonzero"/></clipPath><clipPath id="5164c925b6"><path d="M 0.0703125 81.195312 L 144.046875 27.597656 L 196.152344 167.574219 L 52.175781 221.171875 Z M 0.0703125 81.195312 " clip-rule="nonzero"/></clipPath><clipPath id="9a5f0940a2"><path d="M -156.410156 66.9375 L 120.210938 -36.039062 L 196.136719 167.929688 L -80.484375 270.902344 Z M -156.410156 66.9375 " clip-rule="nonzero"/></clipPath><clipPath id="2aa538fc68"><path d="M 48.925781 101.953125 L 130.628906 101.953125 L 130.628906 173.996094 L 48.925781 173.996094 Z M 48.925781 101.953125 " clip-rule="nonzero"/></clipPath><clipPath id="61f873929a"><path d="M 144 36 L 300 36 L 300 193 L 144 193 Z M 144 36 " clip-rule="nonzero"/></clipPath><clipPath id="abfdb7e4aa"><path d="M 144.320312 44.757812 L 297.730469 36.558594 L 305.703125 185.707031 L 152.292969 193.90625 Z M 144.320312 44.757812 " clip-rule="nonzero"/></clipPath><clipPath id="5efd414635"><path d="M -0.777344 -15.539062 L 293.96875 -31.289062 L 305.582031 186.042969 L 10.835938 201.789062 Z M -0.777344 -15.539062 " clip-rule="nonzero"/></clipPath><clipPath id="574f543883"><path d="M 144 36 L 300 36 L 300 186 L 144 186 Z M 144 36 " clip-rule="nonzero"/></clipPath><clipPath id="7c3c236780"><path d="M 144.320312 44.757812 L 297.730469 36.558594 L 305.703125 185.707031 L 152.292969 193.90625 Z M 144.320312 44.757812 " clip-rule="nonzero"/></clipPath><clipPath id="eed32c3936"><path d="M -0.777344 -15.539062 L 293.96875 -31.289062 L 305.582031 186.042969 L 10.835938 201.789062 Z M -0.777344 -15.539062 " clip-rule="nonzero"/></clipPath><clipPath id="491e3ad2b9"><path d="M 144 36 L 249 36 L 249 194 L 144 194 Z M 144 36 " clip-rule="nonzero"/></clipPath><clipPath id="b1722bfdeb"><path d="M 144.320312 44.757812 L 297.730469 36.558594 L 305.703125 185.707031 L 152.292969 193.90625 Z M 144.320312 44.757812 " clip-rule="nonzero"/></clipPath><clipPath id="772d58ff59"><path d="M -0.777344 -15.539062 L 293.96875 -31.289062 L 305.582031 186.042969 L 10.835938 201.789062 Z M -0.777344 -15.539062 " clip-rule="nonzero"/></clipPath><clipPath id="58e59bcc65"><path d="M 144 36 L 301 36 L 301 194 L 144 194 Z M 144 36 " clip-rule="nonzero"/></clipPath><clipPath id="206abc0779"><path d="M 144.320312 44.757812 L 297.730469 36.558594 L 305.703125 185.707031 L 152.292969 193.90625 Z M 144.320312 44.757812 " clip-rule="nonzero"/></clipPath><clipPath id="6c436ec49a"><path d="M -0.777344 -15.539062 L 293.96875 -31.289062 L 305.582031 186.042969 L 10.835938 201.789062 Z M -0.777344 -15.539062 " clip-rule="nonzero"/></clipPath><clipPath id="1e403d344a"><path d="M 163 79 L 263 79 L 263 173 L 163 173 Z M 163 79 " clip-rule="nonzero"/></clipPath><clipPath id="95f9b44687"><path d="M 184.761719 79.148438 L 262.738281 103.523438 L 241.242188 172.285156 L 163.265625 147.910156 Z M 184.761719 79.148438 " clip-rule="nonzero"/></clipPath></defs><g clip-path="url(#2d91a046ef)"><g clip-path="url(#3989582ef4)"><g clip-path="url(#52c5a5050b)"><path fill="#f6d20c" d="M -31.511719 29.839844 L -42.210938 32.683594 L -119.566406 53.21875 L -141.957031 76.652344 L -141.96875 76.664062 L -141.320312 79.128906 L -138.3125 90.519531 L -119.273438 166.34375 L -89.441406 158.683594 L -90.121094 159.75 L -25.46875 142.253906 L -25.148438 142.171875 L -24.347656 141.960938 L -23.332031 140.714844 L -12.960938 128.035156 L -5.972656 119.492188 L -29.296875 31.1875 L -29.777344 29.375 Z M 9.929688 229.007812 L -56.4375 253.710938 L -81.875 185.371094 L -15.511719 160.667969 Z M 148.445312 75.765625 L 68.410156 75.542969 L 40.699219 92.378906 L 40.644531 106.710938 L 39.363281 184.882812 L 136.539062 185.941406 L 137.371094 185.945312 L 151.980469 175.449219 L 160.941406 169.011719 L 161.3125 75.800781 Z M 148.445312 75.765625 " fill-opacity="1" fill-rule="nonzero"/></g></g></g><g clip-path="url(#63862aa97a)"><g clip-path="url(#d507f7d119)"><g clip-path="url(#c13357df6a)"><path fill="#e29f3d" d="M -31.511719 29.839844 L -48.097656 52.191406 L -24.347656 141.960938 L -23.332031 140.714844 L -11.519531 128.464844 L -11.972656 126.832031 L -5.964844 119.492188 L -29.289062 31.191406 L -29.769531 29.375 Z M 137.757812 93.542969 L 136.539062 185.941406 L 137.371094 185.945312 L 151.980469 175.449219 L 160.941406 169.011719 L 161.3125 75.800781 Z M 137.757812 93.542969 " fill-opacity="1" fill-rule="nonzero"/></g></g></g><g clip-path="url(#fffd1f1823)"><g clip-path="url(#0f1d70b86a)"><g clip-path="url(#87356f48d8)"><path fill="#ff5757" d="M -48.148438 123.867188 L -80.359375 78.21875 C -80.964844 77.359375 -81.894531 76.945312 -82.730469 77.167969 L -98.8125 81.394531 C -99.65625 81.613281 -100.257812 82.425781 -100.367188 83.480469 L -105.90625 139.050781 C -106.105469 141.039062 -104.515625 142.839844 -102.921875 142.421875 L -90.25 139.089844 C -89.339844 138.847656 -88.71875 137.925781 -88.683594 136.773438 L -88.507812 130.667969 C -88.472656 129.515625 -87.847656 128.585938 -86.941406 128.351562 L -70.402344 124.007812 C -69.503906 123.769531 -68.515625 124.257812 -67.917969 125.230469 L -64.6875 130.496094 C -64.089844 131.46875 -63.097656 131.957031 -62.203125 131.722656 L -49.097656 128.277344 C -47.507812 127.855469 -47 125.5 -48.148438 123.867188 Z M -78.828125 113.265625 L -84.769531 114.828125 C -86.285156 115.226562 -87.835938 113.59375 -87.765625 111.664062 L -87.386719 101.089844 C -87.292969 98.558594 -84.664062 97.871094 -83.339844 100.019531 L -77.78125 109.03125 C -76.769531 110.671875 -77.3125 112.871094 -78.828125 113.265625 Z M -38.617188 197.066406 C -37.992188 195.753906 -38.011719 194.214844 -38.671875 192.433594 C -39.285156 190.789062 -40.253906 189.679688 -41.578125 189.113281 C -42.902344 188.550781 -44.777344 188.71875 -47.199219 189.621094 L -54.261719 192.25 L -50.257812 203.011719 L -43.300781 200.421875 C -40.804688 199.488281 -39.246094 198.371094 -38.617188 197.066406 Z M -31.71875 210.089844 C -33.214844 209.492188 -35.355469 209.710938 -38.152344 210.753906 L -46.253906 213.769531 L -41.992188 225.210938 L -33.859375 222.179688 C -31.109375 221.15625 -29.371094 219.902344 -28.640625 218.417969 C -27.90625 216.933594 -27.878906 215.296875 -28.550781 213.492188 C -29.167969 211.820312 -30.222656 210.6875 -31.71875 210.089844 Z M -11.738281 126.550781 L -24.085938 140.832031 L -24.894531 141.046875 L -89.652344 158.738281 L -102.675781 178.5 L -70.144531 265.894531 L 20.808594 232.039062 L 36.898438 207.882812 L 4.375 120.527344 Z M -10.707031 218.140625 C -11.082031 220.949219 -12.089844 223.4375 -13.746094 225.605469 C -14.765625 226.957031 -16.554688 228.324219 -19.113281 229.714844 C -22.515625 231.566406 -24.800781 232.710938 -25.980469 233.152344 L -49.007812 241.722656 C -51.5 242.652344 -54.546875 240.648438 -55.804688 237.265625 L -72.339844 192.84375 C -73.605469 189.453125 -72.609375 185.949219 -70.113281 185.019531 L -44.75 175.578125 C -39.769531 173.726562 -35.441406 173.660156 -31.769531 175.378906 C -28.09375 177.097656 -25.511719 179.957031 -24.023438 183.960938 C -22.769531 187.320312 -22.652344 190.550781 -23.660156 193.660156 C -24.332031 195.730469 -25.714844 197.691406 -27.8125 199.527344 C -23.738281 199.125 -20.386719 199.789062 -17.75 201.523438 C -15.113281 203.257812 -13.128906 205.925781 -11.785156 209.53125 C -10.695312 212.460938 -10.332031 215.335938 -10.707031 218.140625 Z M 93.925781 172.167969 C 99.910156 172.007812 104.839844 171.039062 108.710938 169.257812 C 112.585938 167.476562 115.828125 164.902344 118.4375 161.539062 C 120.082031 159.417969 121.449219 156.984375 122.539062 154.238281 C 123.621094 151.511719 122.117188 148.53125 119.265625 147.769531 L 110.949219 145.5625 C 108.425781 144.894531 105.722656 146.21875 104.761719 148.632812 C 103.941406 150.691406 102.914062 152.394531 101.683594 153.738281 C 99.664062 155.941406 96.679688 157.089844 92.726562 157.195312 C 88.65625 157.304688 85.496094 156.0625 83.242188 153.472656 C 80.996094 150.882812 79.867188 146.007812 79.859375 138.863281 C 79.855469 133.089844 80.796875 128.832031 82.683594 126.082031 C 85.175781 122.382812 88.765625 120.46875 93.453125 120.347656 C 95.523438 120.292969 97.398438 120.652344 99.074219 121.425781 C 100.75 122.203125 102.164062 123.335938 103.320312 124.828125 C 103.523438 125.089844 103.726562 125.394531 103.921875 125.746094 C 105.007812 127.652344 107.265625 128.617188 109.484375 128.082031 L 117.566406 126.125 C 120.832031 125.332031 122.535156 121.75 120.972656 118.914062 C 118.828125 115.003906 116.089844 111.960938 112.765625 109.769531 C 107.945312 106.601562 101.332031 105.128906 92.914062 105.351562 C 82.160156 105.636719 73.839844 108.734375 67.964844 114.632812 C 62.089844 120.53125 59.15625 128.832031 59.164062 139.523438 C 59.167969 147.542969 60.84375 154.078125 64.191406 159.132812 C 67.535156 164.183594 71.511719 167.671875 76.117188 169.585938 C 80.726562 171.5 86.660156 172.363281 93.925781 172.167969 Z M 93.925781 172.167969 " fill-opacity="1" fill-rule="nonzero"/></g></g></g><g clip-path="url(#939d9cdd8f)"><g clip-path="url(#5164c925b6)"><g clip-path="url(#9a5f0940a2)"><path fill="#763b2f" d="M -141.839844 76.617188 C -142.523438 76.804688 -142.925781 77.515625 -142.734375 78.203125 C -142.542969 78.882812 -141.835938 79.285156 -141.148438 79.097656 L -48.988281 53.453125 L -25.699219 141.800781 C -25.519531 142.484375 -24.816406 142.898438 -24.128906 142.714844 C -24.085938 142.703125 -24.042969 142.6875 -24.003906 142.671875 C -23.394531 142.445312 -23.042969 141.785156 -23.214844 141.140625 L -46.667969 52.171875 L -29.265625 31.15625 C -28.816406 30.613281 -28.890625 29.800781 -29.433594 29.347656 C -29.980469 28.898438 -30.792969 28.972656 -31.242188 29.515625 L -48.8125 50.726562 Z M 4.898438 119.726562 C 4.308594 119.332031 3.511719 119.492188 3.117188 120.078125 L -12.820312 143.832031 L -101.914062 177.171875 C -103.683594 177.832031 -103.777344 178.453125 -103.523438 179.117188 C -103.277344 179.78125 -102.160156 179.933594 -101.855469 179.847656 L -12.738281 146.546875 L 19.097656 232.203125 C 19.34375 232.867188 20.085938 233.203125 20.75 232.957031 C 21.414062 232.710938 21.753906 231.96875 21.503906 231.304688 L -10.546875 145.0625 L 5.25 121.511719 C 5.648438 120.917969 5.488281 120.121094 4.898438 119.726562 Z M 40.835938 92.367188 C 40.125 92.371094 39.550781 92.949219 39.558594 93.664062 C 39.566406 94.375 40.144531 94.945312 40.859375 94.9375 L 136.519531 94.066406 L 136.101562 185.429688 C 136.097656 186.140625 136.667969 186.71875 137.378906 186.722656 C 137.421875 186.722656 137.46875 186.71875 137.507812 186.714844 C 138.160156 186.652344 138.667969 186.109375 138.671875 185.441406 L 139.089844 93.4375 L 161.34375 77.652344 C 161.921875 77.238281 162.054688 76.4375 161.648438 75.855469 C 161.238281 75.277344 160.433594 75.144531 159.855469 75.550781 L 137.386719 91.480469 Z M 40.835938 92.367188 " fill-opacity="1" fill-rule="nonzero"/></g></g></g><g clip-path="url(#2aa538fc68)"><path fill="#f6d20c" d="M 48.925781 101.953125 L 130.535156 101.953125 L 130.535156 173.996094 L 48.925781 173.996094 Z M 48.925781 101.953125 " fill-opacity="1" fill-rule="nonzero"/></g><g fill="#ff5757" fill-opacity="1"><g transform="translate(55.125282, 170.833373)"><g><path d="M 31.578125 -66.453125 C 38.554688 -66.453125 44.664062 -65.050781 49.90625 -62.25 C 55.15625 -59.457031 59.191406 -55.546875 62.015625 -50.515625 C 64.847656 -45.492188 66.265625 -39.75 66.265625 -33.28125 C 66.265625 -26.863281 64.832031 -21.140625 61.96875 -16.109375 C 59.113281 -11.085938 55.0625 -7.144531 49.8125 -4.28125 C 44.570312 -1.425781 38.492188 0 31.578125 0 L 5.28125 0 L 5.28125 -66.453125 Z M 30.171875 -16.3125 C 35.566406 -16.3125 39.804688 -17.785156 42.890625 -20.734375 C 45.972656 -23.691406 47.515625 -27.875 47.515625 -33.28125 C 47.515625 -38.75 45.972656 -42.972656 42.890625 -45.953125 C 39.804688 -48.941406 35.566406 -50.4375 30.171875 -50.4375 L 23.75 -50.4375 L 23.75 -16.3125 Z M 30.171875 -16.3125 "/></g></g></g><g clip-path="url(#61f873929a)"><g clip-path="url(#abfdb7e4aa)"><g clip-path="url(#5efd414635)"><path fill="#0dbcb7" d="M 129.503906 -13.683594 L 118.441406 -14.160156 L 38.484375 -17.636719 L 10.121094 -1.953125 L 10.105469 -1.949219 L 9.992188 0.597656 L 9.464844 12.367188 L 5.007812 90.417969 L 35.769531 92.007812 L 34.800781 92.824219 L 101.730469 95.417969 L 102.058594 95.433594 L 102.886719 95.46875 L 104.230469 94.585938 L 117.90625 85.578125 L 127.128906 79.507812 L 131.214844 -11.730469 L 131.296875 -13.609375 Z M 109.628906 188.777344 L 38.917969 192.554688 L 35.027344 119.738281 L 105.738281 115.960938 Z M 287.558594 83.847656 L 211.234375 59.753906 L 179.765625 67.554688 L 175.433594 81.21875 L 150.890625 155.445312 L 243.320312 185.453125 L 244.113281 185.703125 L 261.191406 180.046875 L 271.667969 176.574219 L 299.832031 87.71875 Z M 287.558594 83.847656 " fill-opacity="1" fill-rule="nonzero"/></g></g></g><g clip-path="url(#574f543883)"><g clip-path="url(#7c3c236780)"><g clip-path="url(#eed32c3936)"><path fill="#0aa6a2" d="M 129.503906 -13.683594 L 107.003906 2.703125 L 102.886719 95.46875 L 104.230469 94.585938 L 119.15625 86.414062 L 119.210938 84.722656 L 127.132812 79.511719 L 131.21875 -11.726562 L 131.300781 -13.605469 Z M 272.054688 97.625 L 243.320312 185.453125 L 244.113281 185.703125 L 261.191406 180.046875 L 271.667969 176.574219 L 299.832031 87.71875 Z M 272.054688 97.625 " fill-opacity="1" fill-rule="nonzero"/></g></g></g><g clip-path="url(#491e3ad2b9)"><g clip-path="url(#b1722bfdeb)"><g clip-path="url(#772d58ff59)"><path fill="#ff5757" d="M 85.566406 71.097656 L 68.445312 17.921875 C 68.125 16.917969 67.359375 16.246094 66.496094 16.210938 L 49.882812 15.445312 C 49.015625 15.402344 48.195312 16 47.777344 16.972656 L 25.910156 68.359375 C 25.128906 70.195312 26.109375 72.386719 27.753906 72.464844 L 40.84375 73.066406 C 41.785156 73.109375 42.652344 72.414062 43.03125 71.324219 L 45.019531 65.546875 C 45.394531 64.460938 46.269531 63.757812 47.203125 63.804688 L 64.285156 64.589844 C 65.21875 64.632812 66.011719 65.394531 66.292969 66.5 L 67.804688 72.492188 C 68.085938 73.601562 68.886719 74.359375 69.8125 74.402344 L 83.347656 75.023438 C 84.992188 75.097656 86.175781 73 85.566406 71.097656 Z M 59.449219 51.828125 L 53.3125 51.542969 C 51.746094 51.472656 50.753906 49.453125 51.394531 47.632812 L 54.914062 37.652344 C 55.757812 35.265625 58.472656 35.390625 59.097656 37.839844 L 61.710938 48.097656 C 62.1875 49.96875 61.015625 51.902344 59.449219 51.828125 Z M 72.824219 143.804688 C 73.8125 142.742188 74.253906 141.265625 74.15625 139.371094 C 74.0625 137.617188 73.464844 136.269531 72.371094 135.335938 C 71.277344 134.402344 69.4375 134.003906 66.855469 134.140625 L 59.328125 134.542969 L 59.941406 146.007812 L 67.351562 145.613281 C 70.015625 145.464844 71.835938 144.867188 72.824219 143.804688 Z M 75.523438 158.296875 C 74.273438 157.28125 72.167969 156.851562 69.183594 157.011719 L 60.554688 157.472656 L 61.207031 169.660156 L 69.875 169.199219 C 72.804688 169.042969 74.835938 168.363281 75.976562 167.164062 C 77.117188 165.96875 77.636719 164.410156 77.53125 162.492188 C 77.441406 160.710938 76.773438 159.3125 75.523438 158.296875 Z M 119.519531 84.523438 L 103.472656 94.472656 L 102.640625 94.433594 L 35.550781 92 L 17.222656 106.976562 L 22.199219 200.097656 L 119.109375 194.917969 L 141.671875 176.664062 L 136.699219 83.582031 Z M 93.179688 172.25 C 91.980469 174.820312 90.277344 176.894531 88.046875 178.46875 C 86.671875 179.453125 84.558594 180.222656 81.699219 180.789062 C 77.898438 181.542969 75.375 181.953125 74.121094 182.019531 L 49.585938 183.332031 C 46.925781 183.472656 44.617188 180.65625 44.425781 177.046875 L 41.898438 129.714844 C 41.703125 126.101562 43.699219 123.054688 46.355469 122.914062 L 73.382812 121.46875 C 78.6875 121.183594 82.84375 122.414062 85.832031 125.152344 C 88.828125 127.890625 90.4375 131.390625 90.667969 135.652344 C 90.855469 139.234375 90.007812 142.351562 88.117188 145.019531 C 86.859375 146.796875 84.953125 148.253906 82.40625 149.378906 C 86.414062 150.210938 89.414062 151.847656 91.410156 154.289062 C 93.414062 156.730469 94.507812 159.871094 94.714844 163.710938 C 94.882812 166.832031 94.371094 169.683594 93.179688 172.25 Z M 206.757812 159.589844 C 212.519531 161.222656 217.515625 161.769531 221.742188 161.222656 C 225.96875 160.679688 229.832031 159.191406 233.328125 156.757812 C 235.527344 155.222656 237.558594 153.3125 239.421875 151.015625 C 241.269531 148.734375 240.71875 145.441406 238.226562 143.867188 L 230.945312 139.277344 C 228.738281 137.886719 225.765625 138.34375 224.125 140.363281 C 222.726562 142.082031 221.238281 143.398438 219.664062 144.316406 C 217.078125 145.8125 213.886719 146.023438 210.082031 144.945312 C 206.164062 143.832031 203.519531 141.703125 202.140625 138.5625 C 200.769531 135.417969 201.144531 130.429688 203.273438 123.605469 C 204.992188 118.09375 207.160156 114.3125 209.777344 112.25 C 213.261719 109.460938 217.261719 108.707031 221.773438 109.988281 C 223.761719 110.554688 225.445312 111.457031 226.8125 112.695312 C 228.179688 113.9375 229.195312 115.441406 229.851562 117.210938 C 229.96875 117.519531 230.070312 117.871094 230.152344 118.265625 C 230.621094 120.410156 232.484375 122.003906 234.761719 122.15625 L 243.058594 122.699219 C 246.414062 122.914062 249.109375 120.003906 248.464844 116.832031 C 247.582031 112.460938 245.878906 108.738281 243.359375 105.65625 C 239.707031 101.195312 233.832031 97.816406 225.730469 95.515625 C 215.378906 92.582031 206.515625 93.054688 199.148438 96.929688 C 191.78125 100.808594 186.503906 107.851562 183.320312 118.0625 C 180.933594 125.71875 180.582031 132.457031 182.265625 138.277344 C 183.953125 144.09375 186.710938 148.613281 190.53125 151.8125 C 194.359375 155.015625 199.769531 157.609375 206.757812 159.589844 Z M 206.757812 159.589844 " fill-opacity="1" fill-rule="nonzero"/></g></g></g><g clip-path="url(#58e59bcc65)"><g clip-path="url(#206abc0779)"><g clip-path="url(#6c436ec49a)"><path fill="#763b2f" d="M 10.242188 -1.953125 C 9.535156 -1.980469 8.941406 -1.421875 8.914062 -0.707031 C 8.894531 0 9.449219 0.59375 10.160156 0.617188 L 105.773438 3.640625 L 101.644531 94.914062 C 101.613281 95.621094 102.160156 96.226562 102.871094 96.253906 C 102.914062 96.257812 102.957031 96.253906 103.003906 96.253906 C 103.652344 96.21875 104.1875 95.691406 104.214844 95.027344 L 108.375 3.113281 L 131.25 -11.753906 C 131.84375 -12.136719 132.015625 -12.9375 131.628906 -13.53125 C 131.246094 -14.125 130.449219 -14.292969 129.855469 -13.910156 L 106.757812 1.09375 Z M 137.433594 82.976562 C 136.988281 82.425781 136.183594 82.335938 135.628906 82.777344 L 113.332031 100.695312 L 18.347656 105.933594 C 16.460938 106.035156 16.1875 106.601562 16.230469 107.308594 C 16.265625 108.019531 17.289062 108.496094 17.605469 108.503906 L 112.601562 103.3125 L 117.425781 194.5625 C 117.464844 195.273438 118.070312 195.816406 118.78125 195.777344 C 119.488281 195.738281 120.03125 195.136719 119.992188 194.425781 L 115.132812 102.546875 L 137.238281 84.78125 C 137.792969 84.335938 137.882812 83.527344 137.433594 82.976562 Z M 179.898438 67.582031 C 179.21875 67.375 178.5 67.757812 178.292969 68.441406 C 178.089844 69.121094 178.46875 69.839844 179.152344 70.046875 L 270.714844 97.757812 L 243.054688 184.832031 C 242.839844 185.511719 243.214844 186.230469 243.894531 186.445312 C 243.933594 186.457031 243.976562 186.472656 244.015625 186.476562 C 244.65625 186.613281 245.304688 186.246094 245.507812 185.609375 L 273.355469 97.921875 L 299.308594 89.496094 C 299.984375 89.273438 300.351562 88.546875 300.136719 87.871094 C 299.914062 87.199219 299.1875 86.832031 298.515625 87.046875 L 272.316406 95.546875 Z M 179.898438 67.582031 " fill-opacity="1" fill-rule="nonzero"/></g></g></g><g clip-path="url(#1e403d344a)"><g clip-path="url(#95f9b44687)"><path fill="#0dbcb7" d="M 184.761719 79.148438 L 262.652344 103.496094 L 241.15625 172.257812 L 163.265625 147.910156 Z M 184.761719 79.148438 " fill-opacity="1" fill-rule="nonzero"/></g></g><g fill="#f6d20c" fill-opacity="1"><g transform="translate(178.827074, 151.704001)"><g><path d="M 38.078125 -42.21875 L 34.84375 -31.875 L 55.09375 -25.53125 L 50.90625 -12.125 L 30.65625 -18.46875 L 27.09375 -7.046875 L 50.046875 0.140625 L 45.625 14.265625 L 5.046875 1.578125 L 24.875 -61.84375 L 65.453125 -49.15625 L 61.03125 -35.03125 Z M 38.078125 -42.21875 "/></g></g></g></svg>