<svg xmlns="http://www.w3.org/2000/svg" xmlns:xlink="http://www.w3.org/1999/xlink" width="135" zoomAndPan="magnify" viewBox="0 0 101.25 115.499996" height="154" preserveAspectRatio="xMidYMid meet" version="1.0"><defs><clipPath id="3a3cd6e922"><path d="M 62.820312 57.488281 L 64.011719 57.488281 L 64.011719 58.679688 L 62.820312 58.679688 Z M 62.820312 57.488281 " clip-rule="nonzero"/></clipPath><clipPath id="a5263b1da0"><path d="M 63.417969 57.488281 C 63.089844 57.488281 62.820312 57.753906 62.820312 58.085938 C 62.820312 58.414062 63.089844 58.679688 63.417969 58.679688 C 63.746094 58.679688 64.011719 58.414062 64.011719 58.085938 C 64.011719 57.753906 63.746094 57.488281 63.417969 57.488281 Z M 63.417969 57.488281 " clip-rule="nonzero"/></clipPath></defs><path fill="#0dbcb7" d="M 28.441406 24.945312 C 35.074219 37.304688 46.464844 42.078125 58.296875 48.558594 C 64.613281 51.839844 70.074219 54.566406 58.59375 51.929688 C 50.382812 50.210938 42.488281 48.46875 34.066406 48.28125 C 24.082031 48.257812 11.339844 48.796875 4.542969 57.097656 C 0.0078125 62.800781 3.054688 70.664062 9.6875 72.878906 C 17.199219 75.515625 26.101562 73.5 33.394531 71.679688 C 40.628906 69.722656 47.617188 66.808594 54.414062 63.632812 C 55.464844 63.199219 60.550781 60.589844 58.984375 62.863281 C 48.320312 73.785156 32.828125 84.789062 32.910156 101.828125 C 32.707031 108.925781 38.460938 114.792969 45.695312 112.957031 C 52.195312 111.324219 56.382812 105.707031 59.570312 99.964844 C 65.457031 89.070312 68.230469 76.53125 69.105469 64.164062 C 71.414062 75.761719 76.617188 89.839844 84 94.480469 C 88.992188 98.105469 97.1875 96.664062 98.738281 90.347656 L 98.820312 90.007812 C 100.421875 76.542969 83.78125 66.875 74.164062 60.359375 C 69.699219 57.390625 70.238281 54.832031 74.113281 51.648438 C 81.992188 44.394531 94.710938 34.820312 93.84375 23.054688 C 92.480469 13.679688 81.054688 13.210938 76.121094 20.21875 C 70.683594 27.929688 68.949219 37.472656 68.183594 46.855469 C 65.113281 31.832031 56.734375 12.113281 45.152344 6.734375 C 31.886719 0.179688 21.625 12.453125 28.441406 24.945312 Z M 28.441406 24.945312 " fill-opacity="1" fill-rule="nonzero"/><g clip-path="url(#3a3cd6e922)"><g clip-path="url(#a5263b1da0)"><path fill="#0aa6a2" d="M 62.820312 57.488281 L 64.011719 57.488281 L 64.011719 58.679688 L 62.820312 58.679688 Z M 62.820312 57.488281 " fill-opacity="1" fill-rule="nonzero"/></g></g></svg>