<svg xmlns="http://www.w3.org/2000/svg" xmlns:xlink="http://www.w3.org/1999/xlink" width="232" zoomAndPan="magnify" viewBox="0 0 174 193.499995" height="258" preserveAspectRatio="xMidYMid meet" version="1.0"><defs><clipPath id="cdb50342a3"><path d="M 42 61 L 120 61 L 120 132 L 42 132 Z M 42 61 " clip-rule="nonzero"/></clipPath><clipPath id="334432d6a1"><path d="M 75.128906 151.15625 L 21.757812 89.507812 L 78.878906 40.054688 L 132.25 101.703125 Z M 75.128906 151.15625 " clip-rule="nonzero"/></clipPath><clipPath id="3ff2321196"><path d="M 75.128906 151.15625 L 21.757812 89.507812 L 78.878906 40.054688 L 132.25 101.703125 Z M 75.128906 151.15625 " clip-rule="nonzero"/></clipPath></defs><g clip-path="url(#cdb50342a3)"><g clip-path="url(#334432d6a1)"><g clip-path="url(#3ff2321196)"><path fill="#f6d20c" d="M 116.203125 87.167969 C 120.636719 94.808594 120.035156 104.175781 115.167969 111.8125 C 108.917969 121.867188 96.476562 127.984375 84.78125 130.464844 C 78.28125 131.808594 71.914062 132.210938 65.855469 130.316406 C 53.707031 126.414062 46.691406 113.882812 44.046875 101.402344 C 42.269531 92.386719 42.09375 82.96875 45.945312 74.722656 C 50.476562 64.960938 60.558594 59.933594 71.195312 61.871094 C 74.503906 62.371094 77.945312 63.359375 81.464844 64.578125 C 93.933594 69.136719 109.605469 75.722656 116.148438 87.074219 Z M 116.203125 87.167969 " fill-opacity="1" fill-rule="nonzero"/></g></g></g><path fill="#ff5757" d="M 118.253906 191.355469 C 103.347656 187.972656 97.136719 170.898438 94.179688 157.371094 C 92.179688 148.363281 92.105469 138.914062 92.101562 129.617188 C 92.054688 128.082031 92.242188 122.542969 91.605469 126.488281 C 88.464844 142.707031 84.617188 160.417969 72.910156 172.90625 C 68.335938 177.453125 61.457031 181 54.914062 179.136719 C 45.011719 176.582031 40.625 165.132812 41.621094 155.378906 C 41.804688 151.535156 42.789062 147.457031 43.921875 143.652344 C 44.054688 142.832031 45.019531 140.730469 44.1875 140.464844 C 42.480469 140.542969 41.101562 141.828125 39.003906 142.691406 C 35.695312 144.226562 31.949219 145.605469 28.507812 145.953125 C 13.15625 147.691406 4.058594 132.660156 10.320312 119.105469 C 13.144531 112.625 19.496094 106.90625 25.929688 103.460938 C 27.664062 102.464844 29.367188 101.75 30.964844 100.953125 C 32.585938 100.15625 32.636719 99.410156 30.808594 98.609375 C 21.71875 95.191406 12.855469 90.785156 6.84375 83.054688 C 2.210938 76.976562 0.222656 70.347656 3.792969 63.9375 C 9.828125 54.78125 22.9375 57.101562 31.890625 60.136719 C 34.101562 60.84375 36.292969 61.757812 38.496094 62.597656 C 39.207031 62.875 40.753906 63.363281 40.410156 62.160156 C 39.191406 59.347656 37.417969 57.289062 36.203125 54.273438 C 35.09375 51.808594 34.09375 49.230469 33.210938 46.664062 C 30.355469 38.550781 29.8125 28.949219 32.890625 21.160156 C 39.671875 4.601562 58.707031 4.25 70.699219 15.34375 C 81.402344 25.25 85.933594 40.578125 88.917969 54.5625 C 89.828125 59.058594 90.332031 63.675781 90.707031 68.28125 C 90.804688 69.292969 90.898438 69.875 91.03125 69.742188 C 91.246094 69.5625 91.707031 67.078125 92.152344 64.753906 C 96.417969 40.492188 101.679688 9.730469 123.175781 2.332031 C 130.476562 0.046875 138.59375 3.210938 141.515625 10.480469 C 143.859375 15.996094 142.992188 22.515625 141.539062 28.074219 C 140.539062 31.976562 138.15625 37.179688 136.121094 41.441406 C 135.914062 42.054688 134.6875 44.300781 135.855469 44.046875 C 138.835938 42.59375 141.289062 40.53125 144.667969 39.371094 C 151.835938 36.257812 160.808594 37.445312 165.792969 43.746094 C 173.390625 53.714844 166.421875 66.226562 157.125 72.113281 C 155.449219 73.296875 153.527344 74.179688 153.320312 75.078125 C 153.691406 76.199219 156.816406 76.082031 159.324219 76.941406 C 160.03125 77.15625 160.71875 77.410156 161.394531 77.710938 C 168.726562 80.785156 172.539062 87.765625 171.320312 95.476562 C 170.304688 101.578125 165.859375 106.417969 159.738281 109.542969 C 147.632812 115.460938 133.683594 111.8125 121.695312 107.40625 C 112.171875 104.164062 110.855469 103.695312 120.921875 108.367188 C 134.121094 115.046875 153.75 128.054688 155.414062 143.914062 C 155.808594 150.054688 150.320312 154.589844 144.339844 153.472656 C 139.484375 152.777344 136.007812 149.191406 132.660156 145.777344 C 130.046875 143.269531 127.921875 139.6875 125.601562 137.242188 C 126.515625 139.710938 128.414062 142.484375 129.582031 144.90625 C 134.320312 154.117188 137.640625 164.488281 136.550781 174.820312 C 136.027344 183.621094 127.996094 192.894531 118.488281 191.378906 Z M 79.023438 129.617188 C 85.816406 126.21875 91.132812 112.660156 91.644531 105.304688 C 91.523438 102.832031 89.550781 104.105469 87.371094 104.015625 C 86.089844 104.0625 84.851562 103.988281 83.957031 104.167969 C 83.058594 104.324219 82.417969 104.863281 81.886719 105.582031 C 80.09375 108.097656 77.742188 112.546875 76.386719 115.894531 C 74.839844 119.515625 72.808594 130.785156 78.8125 129.675781 Z M 108.242188 119.769531 C 112.332031 114.519531 105.613281 106.640625 101.6875 103.265625 C 95.707031 97.753906 91.628906 100.003906 94.53125 107.878906 C 95.71875 112.5 98.554688 117.765625 102.5625 119.796875 C 104.195312 120.671875 106.582031 121.070312 108.070312 119.917969 Z M 66.910156 112.109375 C 67.882812 112.023438 68.652344 111.433594 69.925781 110.53125 C 71.742188 109.21875 73.546875 107.816406 75.390625 106.378906 C 76.761719 105.242188 78.847656 103.855469 79.386719 102.925781 C 80.066406 101.730469 79.320312 99.875 78.152344 99.328125 C 77.710938 99.140625 77.171875 99.136719 76.496094 99.25 C 72.414062 100.328125 68.109375 101.449219 64.230469 103.289062 C 58.050781 106.101562 61.164062 112.167969 66.8125 112.117188 Z M 77.644531 95.117188 C 78.320312 94.179688 78.597656 92.867188 78.203125 92.019531 C 77.921875 91.527344 77.480469 91.234375 77.003906 90.871094 C 75.269531 89.5625 72.175781 87.660156 69.777344 86.773438 C 65.128906 84.609375 55.441406 85.207031 56.445312 91.621094 C 57.492188 95.433594 62.25 95.488281 65.675781 95.695312 C 67.390625 95.773438 69.027344 95.789062 70.753906 95.835938 C 72.410156 95.863281 74.355469 95.988281 75.660156 95.976562 C 76.386719 95.953125 77.117188 95.757812 77.585938 95.195312 Z M 102.640625 97 C 106.992188 95.027344 110.496094 89.917969 109.945312 85.121094 C 109.589844 80.609375 105.296875 78.035156 101.054688 78.835938 C 96.328125 79.390625 93.070312 83.738281 92.617188 88.285156 C 92.542969 89.988281 93.628906 91.433594 94.273438 93 C 94.945312 94.433594 94.886719 97.015625 95.972656 97.820312 C 96.441406 98.238281 97.347656 98.332031 97.90625 98.292969 C 99.457031 98.207031 101.003906 97.808594 102.398438 97.125 Z M 81.777344 89.539062 C 82.703125 89.066406 83.730469 88.425781 84.886719 88.199219 C 86.839844 87.6875 88.820312 88.449219 89.902344 87.398438 C 90.941406 86.054688 90.554688 84.109375 90.417969 82.488281 C 89.96875 79.40625 89.089844 76.371094 86.96875 74.132812 C 79.371094 66.027344 75.863281 77.902344 77.324219 84.519531 C 77.914062 86.566406 78.671875 91.03125 81.566406 89.644531 Z M 81.777344 89.539062 " fill-opacity="1" fill-rule="nonzero"/></svg>