<svg xmlns="http://www.w3.org/2000/svg" xmlns:xlink="http://www.w3.org/1999/xlink" width="245" zoomAndPan="magnify"
    viewBox="0 0 183.75 156.749997" height="209" preserveAspectRatio="xMidYMid meet" version="1.0">
    <defs>
        <filter x="0%" y="0%" width="100%" height="100%" id="d71226e14f">
            <feColorMatrix values="0 0 0 0 1 0 0 0 0 1 0 0 0 0 1 0 0 0 1 0" color-interpolation-filters="sRGB" />
        </filter>
        <clipPath id="00e5382185">
            <path d="M 0.0234375 0 L 183.480469 0 L 183.480469 156.5 L 0.0234375 156.5 Z M 0.0234375 0 "
                clip-rule="nonzero" />
        </clipPath>
        <mask id="8a13c1c7cb">
            <g filter="url(#d71226e14f)">
                <rect x="-18.375" width="220.5" fill="#000000" y="-15.675" height="188.099996" fill-opacity="0.83" />
            </g>
        </mask>
        <clipPath id="e7aa1d7005">
            <path d="M 0.0234375 0 L 183.328125 0 L 183.328125 156.5 L 0.0234375 156.5 Z M 0.0234375 0 "
                clip-rule="nonzero" />
        </clipPath>
        <clipPath id="2bd9960a89">
            <rect x="0" width="184" y="0" height="157" />
        </clipPath>
        <mask id="88626793d7">
            <g filter="url(#d71226e14f)">
                <rect x="-18.375" width="220.5" fill="#000000" y="-15.675" height="188.099996" fill-opacity="0.83" />
            </g>
        </mask>
        <clipPath id="e3b2140c96">
            <path d="M 0.0234375 0 L 183.328125 0 L 183.328125 156.5 L 0.0234375 156.5 Z M 0.0234375 0 "
                clip-rule="nonzero" />
        </clipPath>
        <clipPath id="34022e4135">
            <rect x="0" width="184" y="0" height="157" />
        </clipPath>
    </defs>
    <g clip-path="url(#00e5382185)">
        <g mask="url(#8a13c1c7cb)">
            <g transform="matrix(1, 0, 0, 1, 0.000000000000000003, 0.000000000000011987)">
                <g clip-path="url(#2bd9960a89)">
                    <g clip-path="url(#e7aa1d7005)">
                        <path fill="#ffd7c0"
                            d="M -2.582031 -38.75 L -2.582031 -24.171875 L 12.117188 -24.171875 L 12.117188 -38.75 L 12.972656 -38.75 L 12.972656 -24.171875 L 27.683594 -24.171875 L 27.683594 -38.75 L 28.539062 -38.75 L 28.539062 -24.171875 L 43.25 -24.171875 L 43.25 -38.75 L 44.089844 -38.75 L 44.089844 -24.171875 L 58.800781 -24.171875 L 58.800781 -38.75 L 59.65625 -38.75 L 59.65625 -24.171875 L 74.371094 -24.171875 L 74.371094 -38.75 L 75.226562 -38.75 L 75.226562 -24.171875 L 89.921875 -24.171875 L 89.921875 -38.75 L 90.777344 -38.75 L 90.777344 -24.171875 L 105.488281 -24.171875 L 105.488281 -38.75 L 106.34375 -38.75 L 106.34375 -24.171875 L 121.054688 -24.171875 L 121.054688 -38.75 L 121.894531 -38.75 L 121.894531 -24.171875 L 136.609375 -24.171875 L 136.609375 -38.75 L 137.464844 -38.75 L 137.464844 -24.171875 L 152.175781 -24.171875 L 152.175781 -38.75 L 153.03125 -38.75 L 153.03125 -24.171875 L 167.726562 -24.171875 L 167.726562 -38.75 L 168.582031 -38.75 L 168.582031 -24.171875 L 183.160156 -24.171875 L 183.160156 -23.316406 L 168.582031 -23.316406 L 168.582031 -8.621094 L 183.160156 -8.621094 L 183.160156 -7.765625 L 168.582031 -7.765625 L 168.582031 6.945312 L 183.160156 6.945312 L 183.160156 7.800781 L 168.582031 7.800781 L 168.582031 22.515625 L 183.160156 22.515625 L 183.160156 23.355469 L 168.582031 23.355469 L 168.582031 38.066406 L 183.160156 38.066406 L 183.160156 38.921875 L 168.582031 38.921875 L 168.582031 53.632812 L 183.160156 53.632812 L 183.160156 54.488281 L 168.582031 54.488281 L 168.582031 69.183594 L 183.160156 69.183594 L 183.160156 70.039062 L 168.582031 70.039062 L 168.582031 84.753906 L 183.160156 84.753906 L 183.160156 85.609375 L 168.582031 85.609375 L 168.582031 100.320312 L 183.160156 100.320312 L 183.160156 101.160156 L 168.582031 101.160156 L 168.582031 115.871094 L 183.160156 115.871094 L 183.160156 116.726562 L 168.582031 116.726562 L 168.582031 131.4375 L 183.160156 131.4375 L 183.160156 132.292969 L 168.582031 132.292969 L 168.582031 146.992188 L 183.160156 146.992188 L 183.160156 147.847656 L 168.582031 147.847656 L 168.582031 162.421875 L 167.726562 162.421875 L 167.726562 147.847656 L 153.03125 147.847656 L 153.03125 162.421875 L 152.175781 162.421875 L 152.175781 147.847656 L 137.464844 147.847656 L 137.464844 162.421875 L 136.609375 162.421875 L 136.609375 147.847656 L 121.894531 147.847656 L 121.894531 162.421875 L 121.054688 162.421875 L 121.054688 147.847656 L 106.34375 147.847656 L 106.34375 162.421875 L 105.488281 162.421875 L 105.488281 147.847656 L 90.777344 147.847656 L 90.777344 162.421875 L 89.921875 162.421875 L 89.921875 147.847656 L 75.226562 147.847656 L 75.226562 162.421875 L 74.371094 162.421875 L 74.371094 147.847656 L 59.65625 147.847656 L 59.65625 162.421875 L 58.800781 162.421875 L 58.800781 147.847656 L 44.089844 147.847656 L 44.089844 162.421875 L 43.25 162.421875 L 43.25 147.847656 L 28.539062 147.847656 L 28.539062 162.421875 L 27.683594 162.421875 L 27.683594 147.847656 L 12.972656 147.847656 L 12.972656 162.421875 L 12.117188 162.421875 L 12.117188 147.847656 L -2.582031 147.847656 L -2.582031 162.421875 L -3.4375 162.421875 L -3.4375 147.847656 L -18.011719 147.847656 L -18.011719 146.992188 L -3.4375 146.992188 L -3.4375 132.292969 L -18.011719 132.292969 L -18.011719 131.4375 L -3.4375 131.4375 L -3.4375 116.726562 L -18.011719 116.726562 L -18.011719 115.871094 L -3.4375 115.871094 L -3.4375 101.160156 L -18.011719 101.160156 L -18.011719 100.320312 L -3.4375 100.320312 L -3.4375 85.609375 L -18.011719 85.609375 L -18.011719 84.753906 L -3.4375 84.753906 L -3.4375 70.039062 L -18.011719 70.039062 L -18.011719 69.183594 L -3.4375 69.183594 L -3.4375 54.488281 L -18.011719 54.488281 L -18.011719 53.632812 L -3.4375 53.632812 L -3.4375 38.921875 L -18.011719 38.921875 L -18.011719 38.066406 L -3.4375 38.066406 L -3.4375 23.355469 L -18.011719 23.355469 L -18.011719 22.515625 L -3.4375 22.515625 L -3.4375 7.800781 L -18.011719 7.800781 L -18.011719 6.945312 L -3.4375 6.945312 L -3.4375 -7.765625 L -18.011719 -7.765625 L -18.011719 -8.621094 L -3.4375 -8.621094 L -3.4375 -23.316406 L -18.011719 -23.316406 L -18.011719 -24.171875 L -3.4375 -24.171875 L -3.4375 -38.75 Z M -2.582031 -23.316406 L -2.582031 -8.621094 L 12.117188 -8.621094 L 12.117188 -23.316406 Z M -2.582031 -7.765625 L -2.582031 6.945312 L 12.117188 6.945312 L 12.117188 -7.765625 Z M -2.582031 7.800781 L -2.582031 22.515625 L 12.117188 22.515625 L 12.117188 7.800781 Z M -2.582031 23.355469 L -2.582031 38.066406 L 12.117188 38.066406 L 12.117188 23.355469 Z M -2.582031 38.921875 L -2.582031 53.632812 L 12.117188 53.632812 L 12.117188 38.921875 Z M -2.582031 54.488281 L -2.582031 69.183594 L 12.117188 69.183594 L 12.117188 54.488281 Z M -2.582031 70.039062 L -2.582031 84.753906 L 12.117188 84.753906 L 12.117188 70.039062 Z M -2.582031 85.609375 L -2.582031 100.320312 L 12.117188 100.320312 L 12.117188 85.609375 Z M -2.582031 101.160156 L -2.582031 115.871094 L 12.117188 115.871094 L 12.117188 101.160156 Z M -2.582031 116.726562 L -2.582031 131.4375 L 12.117188 131.4375 L 12.117188 116.726562 Z M -2.582031 132.292969 L -2.582031 146.992188 L 12.117188 146.992188 L 12.117188 132.292969 Z M 167.726562 -23.316406 L 153.03125 -23.316406 L 153.03125 -8.621094 L 167.726562 -8.621094 Z M 152.175781 -23.316406 L 137.464844 -23.316406 L 137.464844 -8.621094 L 152.175781 -8.621094 Z M 136.609375 -23.316406 L 121.894531 -23.316406 L 121.894531 -8.621094 L 136.609375 -8.621094 Z M 121.054688 -23.316406 L 106.34375 -23.316406 L 106.34375 -8.621094 L 121.054688 -8.621094 Z M 105.488281 -23.316406 L 90.777344 -23.316406 L 90.777344 -8.621094 L 105.488281 -8.621094 Z M 89.921875 -23.316406 L 75.226562 -23.316406 L 75.226562 -8.621094 L 89.921875 -8.621094 Z M 74.371094 -23.316406 L 59.65625 -23.316406 L 59.65625 -8.621094 L 74.371094 -8.621094 Z M 58.800781 -23.316406 L 44.089844 -23.316406 L 44.089844 -8.621094 L 58.800781 -8.621094 Z M 43.25 -23.316406 L 28.539062 -23.316406 L 28.539062 -8.621094 L 43.25 -8.621094 Z M 27.683594 -23.316406 L 12.972656 -23.316406 L 12.972656 -8.621094 L 27.683594 -8.621094 Z M 12.972656 146.992188 L 27.683594 146.992188 L 27.683594 132.292969 L 12.972656 132.292969 Z M 28.539062 146.992188 L 43.25 146.992188 L 43.25 132.292969 L 28.539062 132.292969 Z M 44.089844 146.992188 L 58.800781 146.992188 L 58.800781 132.292969 L 44.089844 132.292969 Z M 59.65625 146.992188 L 74.371094 146.992188 L 74.371094 132.292969 L 59.65625 132.292969 Z M 75.226562 146.992188 L 89.921875 146.992188 L 89.921875 132.292969 L 75.226562 132.292969 Z M 90.777344 146.992188 L 105.488281 146.992188 L 105.488281 132.292969 L 90.777344 132.292969 Z M 106.34375 146.992188 L 121.054688 146.992188 L 121.054688 132.292969 L 106.34375 132.292969 Z M 121.894531 146.992188 L 136.609375 146.992188 L 136.609375 132.292969 L 121.894531 132.292969 Z M 137.464844 146.992188 L 152.175781 146.992188 L 152.175781 132.292969 L 137.464844 132.292969 Z M 153.03125 146.992188 L 167.726562 146.992188 L 167.726562 132.292969 L 153.03125 132.292969 Z M 12.972656 131.4375 L 27.683594 131.4375 L 27.683594 116.726562 L 12.972656 116.726562 Z M 28.539062 131.4375 L 43.25 131.4375 L 43.25 116.726562 L 28.539062 116.726562 Z M 44.089844 131.4375 L 58.800781 131.4375 L 58.800781 116.726562 L 44.089844 116.726562 Z M 59.65625 131.4375 L 74.371094 131.4375 L 74.371094 116.726562 L 59.65625 116.726562 Z M 75.226562 131.4375 L 89.921875 131.4375 L 89.921875 116.726562 L 75.226562 116.726562 Z M 90.777344 131.4375 L 105.488281 131.4375 L 105.488281 116.726562 L 90.777344 116.726562 Z M 106.34375 131.4375 L 121.054688 131.4375 L 121.054688 116.726562 L 106.34375 116.726562 Z M 121.894531 131.4375 L 136.609375 131.4375 L 136.609375 116.726562 L 121.894531 116.726562 Z M 137.464844 131.4375 L 152.175781 131.4375 L 152.175781 116.726562 L 137.464844 116.726562 Z M 153.03125 131.4375 L 167.726562 131.4375 L 167.726562 116.726562 L 153.03125 116.726562 Z M 12.972656 115.871094 L 27.683594 115.871094 L 27.683594 101.160156 L 12.972656 101.160156 Z M 28.539062 115.871094 L 43.25 115.871094 L 43.25 101.160156 L 28.539062 101.160156 Z M 44.089844 115.871094 L 58.800781 115.871094 L 58.800781 101.160156 L 44.089844 101.160156 Z M 59.65625 115.871094 L 74.371094 115.871094 L 74.371094 101.160156 L 59.65625 101.160156 Z M 75.226562 115.871094 L 89.921875 115.871094 L 89.921875 101.160156 L 75.226562 101.160156 Z M 90.777344 115.871094 L 105.488281 115.871094 L 105.488281 101.160156 L 90.777344 101.160156 Z M 106.34375 115.871094 L 121.054688 115.871094 L 121.054688 101.160156 L 106.34375 101.160156 Z M 121.894531 115.871094 L 136.609375 115.871094 L 136.609375 101.160156 L 121.894531 101.160156 Z M 137.464844 115.871094 L 152.175781 115.871094 L 152.175781 101.160156 L 137.464844 101.160156 Z M 153.03125 115.871094 L 167.726562 115.871094 L 167.726562 101.160156 L 153.03125 101.160156 Z M 12.972656 100.320312 L 27.683594 100.320312 L 27.683594 85.609375 L 12.972656 85.609375 Z M 28.539062 100.320312 L 43.25 100.320312 L 43.25 85.609375 L 28.539062 85.609375 Z M 44.089844 100.320312 L 58.800781 100.320312 L 58.800781 85.609375 L 44.089844 85.609375 Z M 59.65625 100.320312 L 74.371094 100.320312 L 74.371094 85.609375 L 59.65625 85.609375 Z M 75.226562 100.320312 L 89.921875 100.320312 L 89.921875 85.609375 L 75.226562 85.609375 Z M 90.777344 100.320312 L 105.488281 100.320312 L 105.488281 85.609375 L 90.777344 85.609375 Z M 106.34375 100.320312 L 121.054688 100.320312 L 121.054688 85.609375 L 106.34375 85.609375 Z M 121.894531 100.320312 L 136.609375 100.320312 L 136.609375 85.609375 L 121.894531 85.609375 Z M 137.464844 100.320312 L 152.175781 100.320312 L 152.175781 85.609375 L 137.464844 85.609375 Z M 153.03125 100.320312 L 167.726562 100.320312 L 167.726562 85.609375 L 153.03125 85.609375 Z M 12.972656 84.753906 L 27.683594 84.753906 L 27.683594 70.039062 L 12.972656 70.039062 Z M 28.539062 84.753906 L 43.25 84.753906 L 43.25 70.039062 L 28.539062 70.039062 Z M 44.089844 84.753906 L 58.800781 84.753906 L 58.800781 70.039062 L 44.089844 70.039062 Z M 59.65625 84.753906 L 74.371094 84.753906 L 74.371094 70.039062 L 59.65625 70.039062 Z M 75.226562 84.753906 L 89.921875 84.753906 L 89.921875 70.039062 L 75.226562 70.039062 Z M 90.777344 84.753906 L 105.488281 84.753906 L 105.488281 70.039062 L 90.777344 70.039062 Z M 106.34375 84.753906 L 121.054688 84.753906 L 121.054688 70.039062 L 106.34375 70.039062 Z M 121.894531 84.753906 L 136.609375 84.753906 L 136.609375 70.039062 L 121.894531 70.039062 Z M 137.464844 84.753906 L 152.175781 84.753906 L 152.175781 70.039062 L 137.464844 70.039062 Z M 153.03125 84.753906 L 167.726562 84.753906 L 167.726562 70.039062 L 153.03125 70.039062 Z M 12.972656 69.183594 L 27.683594 69.183594 L 27.683594 54.488281 L 12.972656 54.488281 Z M 28.539062 69.183594 L 43.25 69.183594 L 43.25 54.488281 L 28.539062 54.488281 Z M 44.089844 69.183594 L 58.800781 69.183594 L 58.800781 54.488281 L 44.089844 54.488281 Z M 59.65625 69.183594 L 74.371094 69.183594 L 74.371094 54.488281 L 59.65625 54.488281 Z M 75.226562 69.183594 L 89.921875 69.183594 L 89.921875 54.488281 L 75.226562 54.488281 Z M 90.777344 69.183594 L 105.488281 69.183594 L 105.488281 54.488281 L 90.777344 54.488281 Z M 106.34375 69.183594 L 121.054688 69.183594 L 121.054688 54.488281 L 106.34375 54.488281 Z M 121.894531 69.183594 L 136.609375 69.183594 L 136.609375 54.488281 L 121.894531 54.488281 Z M 137.464844 69.183594 L 152.175781 69.183594 L 152.175781 54.488281 L 137.464844 54.488281 Z M 153.03125 69.183594 L 167.726562 69.183594 L 167.726562 54.488281 L 153.03125 54.488281 Z M 12.972656 53.632812 L 27.683594 53.632812 L 27.683594 38.921875 L 12.972656 38.921875 Z M 28.539062 53.632812 L 43.25 53.632812 L 43.25 38.921875 L 28.539062 38.921875 Z M 44.089844 53.632812 L 58.800781 53.632812 L 58.800781 38.921875 L 44.089844 38.921875 Z M 59.65625 53.632812 L 74.371094 53.632812 L 74.371094 38.921875 L 59.65625 38.921875 Z M 75.226562 53.632812 L 89.921875 53.632812 L 89.921875 38.921875 L 75.226562 38.921875 Z M 90.777344 53.632812 L 105.488281 53.632812 L 105.488281 38.921875 L 90.777344 38.921875 Z M 106.34375 53.632812 L 121.054688 53.632812 L 121.054688 38.921875 L 106.34375 38.921875 Z M 121.894531 53.632812 L 136.609375 53.632812 L 136.609375 38.921875 L 121.894531 38.921875 Z M 137.464844 53.632812 L 152.175781 53.632812 L 152.175781 38.921875 L 137.464844 38.921875 Z M 153.03125 53.632812 L 167.726562 53.632812 L 167.726562 38.921875 L 153.03125 38.921875 Z M 12.972656 38.066406 L 27.683594 38.066406 L 27.683594 23.355469 L 12.972656 23.355469 Z M 28.539062 38.066406 L 43.25 38.066406 L 43.25 23.355469 L 28.539062 23.355469 Z M 44.089844 38.066406 L 58.800781 38.066406 L 58.800781 23.355469 L 44.089844 23.355469 Z M 59.65625 38.066406 L 74.371094 38.066406 L 74.371094 23.355469 L 59.65625 23.355469 Z M 75.226562 38.066406 L 89.921875 38.066406 L 89.921875 23.355469 L 75.226562 23.355469 Z M 90.777344 38.066406 L 105.488281 38.066406 L 105.488281 23.355469 L 90.777344 23.355469 Z M 106.34375 38.066406 L 121.054688 38.066406 L 121.054688 23.355469 L 106.34375 23.355469 Z M 121.894531 38.066406 L 136.609375 38.066406 L 136.609375 23.355469 L 121.894531 23.355469 Z M 137.464844 38.066406 L 152.175781 38.066406 L 152.175781 23.355469 L 137.464844 23.355469 Z M 153.03125 38.066406 L 167.726562 38.066406 L 167.726562 23.355469 L 153.03125 23.355469 Z M 12.972656 22.515625 L 27.683594 22.515625 L 27.683594 7.800781 L 12.972656 7.800781 Z M 28.539062 22.515625 L 43.25 22.515625 L 43.25 7.800781 L 28.539062 7.800781 Z M 44.089844 22.515625 L 58.800781 22.515625 L 58.800781 7.800781 L 44.089844 7.800781 Z M 59.65625 22.515625 L 74.371094 22.515625 L 74.371094 7.800781 L 59.65625 7.800781 Z M 75.226562 22.515625 L 89.921875 22.515625 L 89.921875 7.800781 L 75.226562 7.800781 Z M 90.777344 22.515625 L 105.488281 22.515625 L 105.488281 7.800781 L 90.777344 7.800781 Z M 106.34375 22.515625 L 121.054688 22.515625 L 121.054688 7.800781 L 106.34375 7.800781 Z M 121.894531 22.515625 L 136.609375 22.515625 L 136.609375 7.800781 L 121.894531 7.800781 Z M 137.464844 22.515625 L 152.175781 22.515625 L 152.175781 7.800781 L 137.464844 7.800781 Z M 153.03125 22.515625 L 167.726562 22.515625 L 167.726562 7.800781 L 153.03125 7.800781 Z M 12.972656 6.945312 L 27.683594 6.945312 L 27.683594 -7.765625 L 12.972656 -7.765625 Z M 28.539062 6.945312 L 43.25 6.945312 L 43.25 -7.765625 L 28.539062 -7.765625 Z M 44.089844 6.945312 L 58.800781 6.945312 L 58.800781 -7.765625 L 44.089844 -7.765625 Z M 59.65625 6.945312 L 74.371094 6.945312 L 74.371094 -7.765625 L 59.65625 -7.765625 Z M 75.226562 6.945312 L 89.921875 6.945312 L 89.921875 -7.765625 L 75.226562 -7.765625 Z M 90.777344 6.945312 L 105.488281 6.945312 L 105.488281 -7.765625 L 90.777344 -7.765625 Z M 106.34375 6.945312 L 121.054688 6.945312 L 121.054688 -7.765625 L 106.34375 -7.765625 Z M 121.894531 6.945312 L 136.609375 6.945312 L 136.609375 -7.765625 L 121.894531 -7.765625 Z M 137.464844 6.945312 L 152.175781 6.945312 L 152.175781 -7.765625 L 137.464844 -7.765625 Z M 153.03125 6.945312 L 167.726562 6.945312 L 167.726562 -7.765625 L 153.03125 -7.765625 Z M 153.03125 6.945312 "
                            fill-opacity="1" fill-rule="nonzero" />
                    </g>
                </g>
            </g>
        </g>
    </g>
</svg>