<svg width="52" height="100" viewBox="0 0 52 100" fill="none" xmlns="http://www.w3.org/2000/svg">
<mask id="mask0_1621_1175" style="mask-type:luminance" maskUnits="userSpaceOnUse" x="8" y="8" width="36" height="48">
<path d="M8 8H43.3084V55.4944H8V8Z" fill="white"/>
</mask>
<g mask="url(#mask0_1621_1175)">
<mask id="mask1_1621_1175" style="mask-type:luminance" maskUnits="userSpaceOnUse" x="8" y="8" width="36" height="48">
<path d="M40.4718 14.6283C33.7683 16.4507 30.0353 19.4894 27.7518 21.4664C26.0005 22.9877 24.7059 24.3545 23.4112 26.0264C22.1166 27.6983 21.1238 29.2157 20.135 31.2679C18.7649 34.0016 17.089 37.7257 16.402 41.1448C15.7189 44.7896 17.2399 50.3362 16.1756 52.6935C15.568 54.0603 14.3488 54.8963 13.356 55.2766C12.5975 55.5024 11.5292 55.3519 10.8462 55.0468C10.0837 54.7457 9.24578 54.1356 8.86454 53.3789C8.40784 52.4637 8.40784 50.566 8.71363 49.6548C9.0909 48.8188 9.85338 48.1334 10.5404 47.8323C11.3029 47.452 12.2917 47.2222 13.0542 47.452C14.1185 47.6778 15.568 48.8188 16.0247 49.73C16.4814 50.4907 16.4814 51.4772 16.2511 52.3132C16.1002 53.0738 15.568 53.985 14.9564 54.4407C14.2734 54.9715 13.356 55.4272 12.5181 55.3519C11.4538 55.3519 9.77792 54.5159 9.0909 53.7553C8.55875 53.0738 8.4833 52.3884 8.33239 51.3267C8.0266 49.1239 8.10205 44.6391 8.55875 41.3706C9.0909 38.0308 10.0837 34.687 11.4538 31.4185C12.8993 27.9994 14.881 24.3545 17.2399 21.3911C19.6783 18.4277 22.8791 15.7693 25.9251 13.6418C28.8161 11.6648 32.3227 9.68787 34.9875 8.85588C36.8897 8.24576 38.8713 7.9407 40.166 8.17049C41.0794 8.24576 41.7664 8.55082 42.2985 9.15698C42.8307 9.7671 43.3628 11.1339 43.1365 12.0452C42.9061 13.0316 40.4718 14.6283 40.4718 14.6283Z" fill="white"/>
</mask>
<g mask="url(#mask1_1621_1175)">
<path d="M5.28516 5.13184H46.1811V58.5214H5.28516V5.13184Z" fill="white"/>
</g>
</g>
<mask id="mask2_1621_1175" style="mask-type:luminance" maskUnits="userSpaceOnUse" x="12" y="70" width="8" height="9">
<path d="M12.8945 70.6128H19.1095V78.0888H12.8945V70.6128Z" fill="white"/>
</mask>
<g mask="url(#mask2_1621_1175)">
<mask id="mask3_1621_1175" style="mask-type:luminance" maskUnits="userSpaceOnUse" x="12" y="70" width="8" height="9">
<path d="M19.0715 75.1055C17.0898 77.9936 15.7952 78.1442 15.0327 77.8431C14.2742 77.538 13.3568 76.5515 13.2059 75.7156C13.055 74.9549 13.4363 73.6634 13.9684 73.0532C14.5006 72.4471 15.7952 72.0667 16.6331 72.142C17.3956 72.2965 18.4599 73.1325 18.8412 73.8892C19.1469 74.5746 18.996 75.9414 18.6902 76.6268C18.3845 77.233 17.7769 77.6133 17.2407 77.8431C16.6331 78.0689 15.8707 78.1442 15.3385 77.9936C14.7309 77.8431 14.1193 77.4627 13.7381 76.9279C13.2059 76.1712 12.8247 74.5746 12.9002 73.5881C12.9756 72.8274 13.3568 71.9915 13.893 71.5359C14.4251 71.005 15.2631 70.5494 16.0255 70.6246C16.9389 70.6999 19.0715 72.5976 19.0715 72.5976" fill="white"/>
</mask>
<g mask="url(#mask3_1621_1175)">
<path d="M9.85547 67.5859H22.1942V81.0482H9.85547V67.5859Z" fill="white"/>
</g>
</g>
<mask id="mask4_1621_1175" style="mask-type:luminance" maskUnits="userSpaceOnUse" x="17" y="86" width="6" height="6">
<path d="M17.0977 86.0361H22.5859V91.7332H17.0977V86.0361Z" fill="white"/>
</mask>
<g mask="url(#mask4_1621_1175)">
<mask id="mask5_1621_1175" style="mask-type:luminance" maskUnits="userSpaceOnUse" x="17" y="86" width="6" height="6">
<path d="M22.5749 88.021C21.8879 90.9844 21.4312 91.2895 21.0499 91.4401C20.6687 91.5946 20.212 91.7451 19.6799 91.6698C18.9968 91.5946 17.8531 90.9844 17.4718 90.303C17.0152 89.6176 17.0906 88.3261 17.2415 87.6446C17.3964 87.1851 17.7776 86.884 18.1589 86.5789C18.4607 86.3531 18.8419 86.048 19.3741 86.048C20.0611 85.9727 21.8879 86.8087 21.8879 86.8087" fill="white"/>
</mask>
<g mask="url(#mask5_1621_1175)">
<path d="M14.1953 83.0093H25.6206V94.8036H14.1953V83.0093Z" fill="white"/>
</g>
</g>
</svg>
