<svg width="52" height="44" viewBox="0 0 52 44" fill="none" xmlns="http://www.w3.org/2000/svg">
<mask id="mask0_1621_1177" style="mask-type:luminance" maskUnits="userSpaceOnUse" x="39" y="1" width="12" height="13">
<path d="M39.4805 1H50.8065V13.5194H39.4805V1Z" fill="white"/>
</mask>
<g mask="url(#mask0_1621_1177)">
<mask id="mask1_1621_1177" style="mask-type:luminance" maskUnits="userSpaceOnUse" x="39" y="1" width="12" height="13">
<path d="M39.543 6.53064C40.2261 3.94752 41.064 2.5807 41.9774 1.97454C42.8908 1.36441 44.4158 1.06332 45.4046 1.06332C46.0162 0.984079 46.5483 1.13859 47.1559 1.43969C47.9939 1.82002 49.213 2.73124 49.8246 3.7217C50.4322 4.63292 50.5831 6.22954 50.5831 7.14076C50.5831 7.82219 50.4322 8.2778 50.1264 8.88792C49.5943 9.72387 48.4506 10.9401 47.692 11.471C47.0805 11.7761 46.5483 11.9266 45.9407 12.0019C45.4046 12.0772 44.797 12.1525 44.1854 12.0019C43.272 11.7761 41.8265 11.166 41.064 10.33C40.3015 9.56936 39.7694 8.05198 39.543 7.14076C39.4636 6.45536 39.543 5.92448 39.6939 5.39359C39.7694 4.78347 39.9243 4.25258 40.3015 3.7217C40.9131 2.96103 42.1323 1.82002 43.0457 1.43969C43.6533 1.13859 44.11 0.984079 44.797 1.06332C45.7104 1.06332 47.2354 1.36441 48.1487 1.97454C49.1376 2.5807 49.9001 3.79698 50.3568 4.78347C50.738 5.77393 50.8889 6.8357 50.738 7.90143C50.5831 9.11375 50.1264 10.7104 49.213 11.6216C48.3751 12.5328 46.9296 13.2935 45.6349 13.444C44.4158 13.5985 42.7399 13.1429 41.7511 12.3823C40.7582 11.6969 39.543 9.03847 39.543 9.03847" fill="white"/>
</mask>
<g mask="url(#mask1_1621_1177)">
<path d="M36.4961 -1.97925H53.8584V16.5621H36.4961V-1.97925Z" fill="white"/>
</g>
</g>
<mask id="mask2_1621_1177" style="mask-type:luminance" maskUnits="userSpaceOnUse" x="24" y="18" width="12" height="12">
<path d="M24.4805 18.4836H35.2942V29.5094H24.4805V18.4836Z" fill="white"/>
</mask>
<g mask="url(#mask2_1621_1177)">
<mask id="mask3_1621_1177" style="mask-type:luminance" maskUnits="userSpaceOnUse" x="24" y="18" width="12" height="12">
<path d="M35.2812 22.4097C35.2812 25.8288 34.9 26.744 34.3679 27.4254C33.8317 28.1108 33.0732 28.717 32.3107 29.022C31.5483 29.4024 30.5594 29.5529 29.7215 29.4776C28.8836 29.4776 27.9702 29.1726 27.2077 28.717C26.4452 28.2613 25.7621 27.5759 25.3809 26.8945C24.9242 26.1338 24.6184 25.2226 24.543 24.3867C24.543 23.5507 24.6939 22.5642 25.0751 21.8036C25.3809 21.0429 25.9885 20.2822 26.6755 19.7513C27.3586 19.2205 28.1965 18.8401 29.0345 18.6143C29.8724 18.4598 30.8612 18.5351 31.6992 18.8401C32.4617 19.0699 33.9112 20.1317 33.9112 20.1317" fill="white"/>
</mask>
<g mask="url(#mask3_1621_1177)">
<path d="M21.4961 15.5715H38.4772V32.5163H21.4961V15.5715Z" fill="white"/>
</g>
</g>
<mask id="mask4_1621_1177" style="mask-type:luminance" maskUnits="userSpaceOnUse" x="2" y="31" width="11" height="12">
<path d="M2 31.0068H12.7621V42.0128H2V31.0068Z" fill="white"/>
</mask>
<g mask="url(#mask4_1621_1177)">
<mask id="mask5_1621_1177" style="mask-type:luminance" maskUnits="userSpaceOnUse" x="2" y="31" width="11" height="11">
<path d="M12.7319 34.9488C12.7319 38.3679 12.3507 39.2038 11.8186 39.8852C11.2864 40.5706 10.5239 41.1768 9.76145 41.4819C8.99897 41.8622 8.01012 42.0127 7.17219 41.9375C6.33425 41.9375 5.42087 41.6324 4.65838 41.1768C3.97533 40.7212 3.2883 40.0398 2.83161 39.3544C2.37491 38.5937 2.14855 37.6825 2.06913 36.8465C1.99367 36.0106 2.224 35.0994 2.52582 34.2634C2.90706 33.5027 3.51863 32.746 4.12624 32.2112C4.81326 31.7556 5.72665 31.3 6.56459 31.1494C7.32707 30.9949 8.31591 31.0741 9.15385 31.3C9.91633 31.605 11.3619 32.6668 11.3619 32.6668" fill="white"/>
</mask>
<g mask="url(#mask5_1621_1177)">
<path d="M-0.976562 28.1106H15.933V44.9761H-0.976562V28.1106Z" fill="white"/>
</g>
</g>
</svg>
