<svg xmlns="http://www.w3.org/2000/svg" xmlns:xlink="http://www.w3.org/1999/xlink" width="152" zoomAndPan="magnify" viewBox="0 0 114 116.999995" height="156" preserveAspectRatio="xMidYMid meet" version="1.0"><path fill="#ff5757" d="M 104.179688 87.191406 C 103.3125 87.707031 103.4375 88.445312 103.679688 89.324219 C 104.320312 91.316406 104.835938 93.960938 104.9375 96.046875 C 105.523438 100.871094 101.21875 102.988281 96.90625 100.90625 C 91.960938 98.835938 86.5 95.4375 82.195312 92.703125 C 81.269531 92.097656 80.214844 91.425781 79.195312 90.929688 C 76.511719 89.480469 73.015625 90.519531 69.871094 90.910156 C 62.003906 91.375 55.753906 96.988281 49.925781 101.558594 C 45.511719 105.007812 41.320312 108.335938 36.75 111.589844 C 29.679688 116.667969 28.246094 110.527344 27.710938 104.425781 C 26.34375 93.089844 26.722656 86.425781 28.144531 73.414062 C 28.15625 71.960938 28.835938 69.859375 28.273438 68.777344 C 27.625 68.1875 26.082031 68.011719 25.140625 67.683594 C 20.304688 66.351562 11.378906 64.105469 7.390625 63.113281 C 5.953125 62.757812 4.558594 62.417969 3.253906 61.820312 C 1.203125 61.082031 0 58.457031 0.714844 56.824219 C 1.949219 54.539062 5.730469 52.273438 8.171875 50.617188 C 16.589844 44.933594 25.496094 41.042969 34.695312 36.933594 C 36.964844 35.910156 36.75 33.472656 37.769531 31.195312 C 40.425781 23.324219 44.257812 12.339844 47.339844 5.988281 C 48.378906 3.988281 49.71875 1.386719 51.996094 0.890625 C 57.6875 0.00390625 61 5.898438 63.824219 10.070312 C 67.394531 15.339844 70.488281 21.101562 73.960938 26.328125 C 74.738281 27.101562 75.746094 27.011719 76.816406 26.855469 C 84.105469 26.105469 94.753906 25.425781 102.113281 25.382812 C 105.28125 25.375 110.714844 25.417969 112.386719 27.710938 C 113.988281 29.660156 113.9375 33.40625 112.429688 35.617188 C 105.628906 43.164062 90.34375 49.222656 94.140625 61.402344 C 95.980469 68 98.355469 74.628906 100.664062 80.992188 C 102.097656 85.457031 102.214844 83.847656 106.261719 83.503906 C 109.472656 83.417969 106.4375 86.257812 104.367188 87.082031 Z M 33.261719 108.882812 C 39.886719 104.578125 46.007812 99.273438 52.316406 94.777344 C 55.417969 92.457031 59.960938 89.292969 62.699219 88.460938 C 64.945312 87.730469 68.316406 87.132812 70.800781 86.777344 C 71.914062 86.625 71.492188 86.175781 70.851562 85.773438 C 63.234375 81.191406 55.570312 78.328125 47.132812 74.828125 C 43.445312 73.410156 38.277344 71.730469 34.476562 70.5 C 33.339844 69.972656 32.882812 70.617188 32.671875 71.675781 C 31.066406 83.519531 30.621094 95.351562 31.992188 107.070312 C 32.070312 107.730469 32.253906 109.015625 33.007812 108.964844 Z M 100.175781 97.4375 C 100.808594 97.164062 100.300781 94.285156 99.964844 93.277344 C 99.464844 91.441406 98.703125 88.761719 98.375 88.417969 C 97.609375 88.132812 96.902344 88.46875 95.832031 88.480469 C 91.378906 88.808594 86.753906 88.636719 86.804688 88.828125 C 89.46875 91.300781 93.074219 94.332031 96.054688 96.277344 C 97.183594 96.78125 98.949219 98.101562 100.042969 97.527344 Z M 96.792969 84.578125 C 91.960938 73.019531 87.203125 60.613281 81.601562 49.324219 C 78.792969 43.511719 76.109375 37.890625 73.246094 32.582031 C 72.976562 32.128906 72.507812 31.53125 72.058594 31.578125 C 66.691406 32.003906 51.226562 36.34375 44.535156 38.742188 C 42.691406 39.535156 39.65625 39.90625 38.941406 41.96875 C 37.414062 46.859375 36.242188 52.695312 35.042969 58.09375 C 34.792969 59.460938 34.546875 60.640625 34.273438 61.921875 C 34.03125 63 34.003906 63.765625 35.355469 64.078125 C 46.855469 67.304688 58.195312 71.800781 68.8125 77.324219 C 73.4375 79.699219 78.261719 82.636719 83.054688 84.960938 C 84.296875 85.207031 85.949219 84.988281 87.265625 85.003906 C 89.730469 84.835938 95.753906 85.15625 96.78125 84.671875 Z M 30.242188 59.742188 C 31.132812 55.625 33.136719 46.945312 33.753906 44.210938 C 34.023438 43.378906 33.738281 42.964844 32.773438 43.40625 C 24.171875 47.328125 15.839844 51.378906 8.117188 56.488281 C 7.488281 56.960938 6.460938 57.53125 6.253906 58.046875 C 6.242188 58.144531 6.304688 58.21875 6.4375 58.285156 C 8.128906 58.808594 11.789062 59.398438 14.53125 60.011719 C 15.917969 60.289062 17.398438 60.589844 18.75 60.871094 C 21.304688 61.363281 24.09375 62.035156 26.855469 62.644531 C 28.234375 62.902344 28.988281 63.257812 29.316406 62.832031 C 29.664062 62.5 30.050781 60.589844 30.148438 60.1875 Z M 89.40625 54.078125 C 91.511719 46.984375 97.875 42.40625 103.46875 37.996094 C 105.070312 36.910156 106.386719 35.742188 108.027344 34.355469 C 109.199219 33.488281 110.1875 31.753906 109.597656 30.382812 C 108.992188 29.007812 108.007812 28.980469 106.597656 28.746094 C 104.601562 28.507812 102.261719 28.488281 100.175781 28.523438 C 94.253906 28.640625 90.113281 28.859375 86.742188 29.449219 C 83.011719 29.898438 79.433594 29.90625 75.886719 30.769531 C 75.695312 30.910156 75.652344 31.117188 75.726562 31.390625 C 76.3125 32.757812 77.472656 34.5625 78.214844 36.03125 C 80.566406 40.460938 84.425781 48.253906 85.996094 51.644531 C 86.789062 53.15625 87.523438 55.472656 88.472656 56.671875 C 88.921875 56.929688 89.183594 54.628906 89.296875 54.484375 Z M 45.414062 33.503906 C 51.222656 31.613281 62.183594 29.269531 69.621094 28.019531 C 70.964844 27.839844 69.816406 26.363281 69.628906 25.851562 C 68.988281 24.664062 68.324219 23.558594 67.640625 22.355469 C 65.527344 18.976562 63.652344 15.738281 61.578125 12.371094 C 59.160156 8.980469 57.167969 4.355469 53.046875 4.214844 C 51.90625 4.582031 51.554688 5.535156 50.882812 6.722656 C 49.621094 9.226562 48.949219 11.933594 47.777344 14.449219 C 45.523438 20.519531 43.441406 26.515625 41.582031 32.710938 C 41.101562 34.53125 40.828125 34.820312 42.410156 34.425781 C 43.292969 34.199219 44.429688 33.816406 45.191406 33.574219 Z M 45.414062 33.503906 " fill-opacity="1" fill-rule="nonzero"/><path fill="#ff5757" d="M 104.179688 87.191406 C 103.3125 87.707031 103.4375 88.445312 103.679688 89.324219 C 104.320312 91.316406 104.835938 93.960938 104.9375 96.046875 C 105.523438 100.871094 101.21875 102.988281 96.90625 100.90625 C 91.960938 98.835938 86.5 95.4375 82.195312 92.703125 C 81.269531 92.097656 80.214844 91.425781 79.195312 90.929688 C 76.511719 89.480469 73.015625 90.519531 69.871094 90.910156 C 62.003906 91.375 55.753906 96.988281 49.925781 101.558594 C 45.511719 105.007812 41.320312 108.335938 36.75 111.589844 C 29.679688 116.667969 28.246094 110.527344 27.710938 104.425781 C 26.34375 93.089844 26.722656 86.425781 28.144531 73.414062 C 28.15625 71.960938 28.835938 69.859375 28.273438 68.777344 C 27.625 68.1875 26.082031 68.011719 25.140625 67.683594 C 20.304688 66.351562 11.378906 64.105469 7.390625 63.113281 C 5.953125 62.757812 4.558594 62.417969 3.253906 61.820312 C 1.203125 61.082031 0 58.457031 0.714844 56.824219 C 1.949219 54.539062 5.730469 52.273438 8.171875 50.617188 C 16.589844 44.933594 25.496094 41.042969 34.695312 36.933594 C 36.964844 35.910156 36.75 33.472656 37.769531 31.195312 C 40.425781 23.324219 44.257812 12.339844 47.339844 5.988281 C 48.378906 3.988281 49.71875 1.386719 51.996094 0.890625 C 57.6875 0.00390625 61 5.898438 63.824219 10.070312 C 67.394531 15.339844 70.488281 21.101562 73.960938 26.328125 C 74.738281 27.101562 75.746094 27.011719 76.816406 26.855469 C 84.105469 26.105469 94.753906 25.425781 102.113281 25.382812 C 105.28125 25.375 110.714844 25.417969 112.386719 27.710938 C 113.988281 29.660156 113.9375 33.40625 112.429688 35.617188 C 105.628906 43.164062 90.34375 49.222656 94.140625 61.402344 C 95.980469 68 98.355469 74.628906 100.664062 80.992188 C 102.097656 85.457031 102.214844 83.847656 106.261719 83.503906 C 109.472656 83.417969 106.4375 86.257812 104.367188 87.082031 Z M 33.261719 108.882812 C 39.886719 104.578125 46.007812 99.273438 52.316406 94.777344 C 55.417969 92.457031 59.960938 89.292969 62.699219 88.460938 C 64.945312 87.730469 68.316406 87.132812 70.800781 86.777344 C 71.914062 86.625 71.492188 86.175781 70.851562 85.773438 C 63.234375 81.191406 55.570312 78.328125 47.132812 74.828125 C 43.445312 73.410156 38.277344 71.730469 34.476562 70.5 C 33.339844 69.972656 32.882812 70.617188 32.671875 71.675781 C 31.066406 83.519531 30.621094 95.351562 31.992188 107.070312 C 32.070312 107.730469 32.253906 109.015625 33.007812 108.964844 Z M 100.175781 97.4375 C 100.808594 97.164062 100.300781 94.285156 99.964844 93.277344 C 99.464844 91.441406 98.703125 88.761719 98.375 88.417969 C 97.609375 88.132812 96.902344 88.46875 95.832031 88.480469 C 91.378906 88.808594 86.753906 88.636719 86.804688 88.828125 C 89.46875 91.300781 93.074219 94.332031 96.054688 96.277344 C 97.183594 96.78125 98.949219 98.101562 100.042969 97.527344 Z M 96.792969 84.578125 C 91.960938 73.019531 87.203125 60.613281 81.601562 49.324219 C 78.792969 43.511719 76.109375 37.890625 73.246094 32.582031 C 72.976562 32.128906 72.507812 31.53125 72.058594 31.578125 C 66.691406 32.003906 51.226562 36.34375 44.535156 38.742188 C 42.691406 39.535156 39.65625 39.90625 38.941406 41.96875 C 37.414062 46.859375 36.242188 52.695312 35.042969 58.09375 C 34.792969 59.460938 34.546875 60.640625 34.273438 61.921875 C 34.03125 63 34.003906 63.765625 35.355469 64.078125 C 46.855469 67.304688 58.195312 71.800781 68.8125 77.324219 C 73.4375 79.699219 78.261719 82.636719 83.054688 84.960938 C 84.296875 85.207031 85.949219 84.988281 87.265625 85.003906 C 89.730469 84.835938 95.753906 85.15625 96.78125 84.671875 Z M 30.242188 59.742188 C 31.132812 55.625 33.136719 46.945312 33.753906 44.210938 C 34.023438 43.378906 33.738281 42.964844 32.773438 43.40625 C 24.171875 47.328125 15.839844 51.378906 8.117188 56.488281 C 7.488281 56.960938 6.460938 57.53125 6.253906 58.046875 C 6.242188 58.144531 6.304688 58.21875 6.4375 58.285156 C 8.128906 58.808594 11.789062 59.398438 14.53125 60.011719 C 15.917969 60.289062 17.398438 60.589844 18.75 60.871094 C 21.304688 61.363281 24.09375 62.035156 26.855469 62.644531 C 28.234375 62.902344 28.988281 63.257812 29.316406 62.832031 C 29.664062 62.5 30.050781 60.589844 30.148438 60.1875 Z M 89.40625 54.078125 C 91.511719 46.984375 97.875 42.40625 103.46875 37.996094 C 105.070312 36.910156 106.386719 35.742188 108.027344 34.355469 C 109.199219 33.488281 110.1875 31.753906 109.597656 30.382812 C 108.992188 29.007812 108.007812 28.980469 106.597656 28.746094 C 104.601562 28.507812 102.261719 28.488281 100.175781 28.523438 C 94.253906 28.640625 90.113281 28.859375 86.742188 29.449219 C 83.011719 29.898438 79.433594 29.90625 75.886719 30.769531 C 75.695312 30.910156 75.652344 31.117188 75.726562 31.390625 C 76.3125 32.757812 77.472656 34.5625 78.214844 36.03125 C 80.566406 40.460938 84.425781 48.253906 85.996094 51.644531 C 86.789062 53.15625 87.523438 55.472656 88.472656 56.671875 C 88.921875 56.929688 89.183594 54.628906 89.296875 54.484375 Z M 45.414062 33.503906 C 51.222656 31.613281 62.183594 29.269531 69.621094 28.019531 C 70.964844 27.839844 69.816406 26.363281 69.628906 25.851562 C 68.988281 24.664062 68.324219 23.558594 67.640625 22.355469 C 65.527344 18.976562 63.652344 15.738281 61.578125 12.371094 C 59.160156 8.980469 57.167969 4.355469 53.046875 4.214844 C 51.90625 4.582031 51.554688 5.535156 50.882812 6.722656 C 49.621094 9.226562 48.949219 11.933594 47.777344 14.449219 C 45.523438 20.519531 43.441406 26.515625 41.582031 32.710938 C 41.101562 34.53125 40.828125 34.820312 42.410156 34.425781 C 43.292969 34.199219 44.429688 33.816406 45.191406 33.574219 Z M 45.414062 33.503906 " fill-opacity="1" fill-rule="nonzero"/></svg>