<svg xmlns="http://www.w3.org/2000/svg" xmlns:xlink="http://www.w3.org/1999/xlink" width="147" zoomAndPan="magnify" viewBox="0 0 110.25 107.999999" height="144" preserveAspectRatio="xMidYMid meet" version="1.0"><defs><clipPath id="285685d4b7"><path d="M 20 18 L 95 18 L 95 103 L 20 103 Z M 20 18 " clip-rule="nonzero"/></clipPath><clipPath id="63b6b988ff"><path d="M 37.324219 0.367188 L 108.8125 40.417969 L 71.3125 107.355469 L -0.175781 67.304688 Z M 37.324219 0.367188 " clip-rule="nonzero"/></clipPath><clipPath id="9ea573ff73"><path d="M 37.324219 0.367188 L 108.8125 40.417969 L 71.3125 107.355469 L -0.175781 67.304688 Z M 37.324219 0.367188 " clip-rule="nonzero"/></clipPath><clipPath id="efd92db586"><path d="M 63.488281 69.824219 L 64.679688 69.824219 L 64.679688 71.015625 L 63.488281 71.015625 Z M 63.488281 69.824219 " clip-rule="nonzero"/></clipPath><clipPath id="dcbbd6cffb"><path d="M 64.082031 69.824219 C 63.753906 69.824219 63.488281 70.089844 63.488281 70.421875 C 63.488281 70.75 63.753906 71.015625 64.082031 71.015625 C 64.414062 71.015625 64.679688 70.75 64.679688 70.421875 C 64.679688 70.089844 64.414062 69.824219 64.082031 69.824219 Z M 64.082031 69.824219 " clip-rule="nonzero"/></clipPath></defs><g clip-path="url(#285685d4b7)"><g clip-path="url(#63b6b988ff)"><g clip-path="url(#9ea573ff73)"><path fill="#0dbcb7" d="M 64.671875 101.902344 C 64.117188 100.929688 63.285156 98.484375 62.613281 96.34375 C 62.464844 95.820312 62.308594 95.511719 62.261719 95.59375 C 62.085938 95.714844 61.308594 95.722656 60.890625 95.488281 C 60.722656 95.394531 60.433594 95.121094 60.230469 94.898438 C 59.703125 94.269531 59.398438 93.4375 57.691406 87.636719 C 56.722656 84.453125 55.492188 81.339844 53.992188 78.519531 C 53.675781 77.902344 53.203125 76.976562 52.84375 76.445312 C 52.480469 75.910156 52.128906 75.164062 51.972656 74.855469 L 51.609375 74.324219 L 50.527344 74.484375 C 49.921875 74.585938 49.054688 74.761719 48.445312 74.863281 C 47.835938 74.960938 46.707031 75.210938 45.839844 75.382812 C 44.972656 75.558594 43.710938 75.84375 42.972656 75.980469 C 42.234375 76.117188 41.320312 76.375 40.84375 76.4375 C 40.367188 76.503906 39.84375 76.648438 39.628906 76.640625 C 38.761719 76.816406 36.847656 77.285156 35.066406 77.714844 C 34.066406 77.925781 32.28125 78.359375 31.285156 78.570312 C 28.976562 79.148438 27.546875 79.339844 26.738281 79.214844 C 25.925781 79.09375 25.023438 78.148438 24.886719 77.410156 C 24.710938 76.542969 24.769531 76.242188 25.183594 74.714844 C 25.542969 73.484375 25.824219 72.980469 27.46875 70.046875 C 28.734375 67.785156 29.429688 66.742188 29.5625 66.707031 C 29.691406 66.667969 30.199219 65.960938 30.703125 65.253906 C 31.257812 64.464844 32 63.335938 32.410156 62.796875 C 32.824219 62.257812 33.648438 61.179688 34.109375 60.554688 C 34.566406 59.929688 35.484375 58.683594 36.125 57.941406 L 37.21875 56.574219 L 36.773438 55.992188 C 36.535156 55.636719 33.179688 51.996094 31.664062 50.378906 C 31.171875 49.882812 30.230469 48.804688 29.667969 48.046875 C 29.015625 47.242188 27.222656 45.136719 26.777344 44.554688 C 23.476562 40.617188 21.109375 34.226562 20.855469 32.320312 C 20.636719 30.546875 20.753906 29.949219 21.25 29.457031 C 21.792969 28.878906 22.398438 28.78125 23.414062 29.128906 C 24.515625 29.523438 24.71875 29.75 28.140625 32.875 C 31.230469 35.816406 33.21875 37.375 35.386719 38.808594 C 36.429688 39.503906 37.808594 40.386719 38.515625 40.890625 C 40.347656 42.140625 45.320312 45.253906 45.535156 45.261719 C 45.664062 45.226562 46.265625 44.351562 47.089844 43.273438 C 47.914062 42.191406 48.75 40.898438 49.066406 40.527344 C 49.433594 40.070312 49.988281 39.28125 50.445312 38.65625 C 51.316406 37.492188 53.203125 34.914062 54.570312 33.257812 C 55.621094 31.972656 55.570312 32.058594 57.128906 30.066406 C 57.8125 29.238281 58.636719 28.160156 59.003906 27.703125 C 59.367188 27.25 60.003906 26.503906 60.453125 26.097656 C 60.902344 25.6875 61.410156 24.980469 61.632812 24.777344 C 61.90625 24.488281 62.449219 23.910156 62.8125 23.453125 C 63.546875 22.542969 65.933594 20.246094 66.773438 19.726562 C 67.664062 19.125 68.96875 18.757812 69.78125 18.878906 C 70.761719 19.097656 71.851562 19.710938 72.25 20.371094 C 73.128906 21.746094 73.019531 24.105469 71.847656 30.71875 C 71.621094 31.910156 71.371094 33.53125 71.257812 34.132812 C 71.097656 34.8125 70.78125 36.945312 70.429688 38.953125 C 69.230469 45.214844 68.605469 48.5 68.085938 52.175781 L 67.839844 53.796875 L 68.390625 53.996094 C 68.808594 54.230469 73.058594 55.289062 73.953125 55.460938 C 74.167969 55.472656 75.914062 55.898438 77.738281 56.371094 C 79.652344 56.890625 81.523438 57.277344 81.820312 57.335938 C 83.398438 57.667969 86.789062 58.6875 88.09375 59.308594 C 89.695312 59.984375 91.613281 61.28125 93.019531 62.507812 C 94.257812 63.640625 94.753906 64.910156 94.359375 66.007812 C 93.964844 67.109375 91.078125 68.132812 86.007812 68.925781 C 84.925781 69.089844 82.976562 69.429688 81.675781 69.582031 C 80.378906 69.738281 78.773438 70.046875 78.082031 70.101562 C 77.394531 70.15625 76.527344 70.332031 75.917969 70.429688 C 73.96875 70.769531 73.574219 70.878906 72.40625 70.996094 C 71.800781 71.097656 70.847656 71.226562 70.417969 71.203125 C 69.121094 71.359375 66.609375 71.714844 65.871094 71.851562 C 65.3125 71.867188 65.132812 71.988281 65.125 72.203125 C 64.964844 72.882812 64.714844 79.019531 64.863281 80.535156 C 64.867188 81.308594 64.914062 82.210938 64.871094 83.070312 C 64.828125 83.929688 64.910156 84.964844 65.175781 89.40625 C 65.179688 90.179688 65.394531 91.179688 65.503906 91.574219 C 65.613281 91.964844 65.667969 92.65625 65.730469 93.132812 C 65.796875 93.605469 65.765625 94.25 65.957031 94.691406 C 66.070312 95.082031 66.242188 95.949219 66.390625 96.472656 C 66.601562 97.472656 67.617188 100.574219 67.867188 100.714844 C 67.953125 100.761719 68.074219 100.9375 68.0625 101.152344 C 68.210938 101.683594 65.703125 103.800781 64.671875 101.902344 Z M 29.683594 75.914062 C 30.601562 75.65625 33.597656 75.023438 35.296875 74.542969 C 35.644531 74.515625 36.429688 74.296875 37.164062 74.160156 C 37.855469 74.105469 38.6875 73.800781 39.03125 73.773438 C 39.425781 73.664062 40.160156 73.527344 40.683594 73.378906 C 43.503906 72.867188 45.242188 72.519531 46.285156 72.222656 C 47.414062 71.976562 48.972656 71.746094 49.710938 71.609375 C 49.925781 71.621094 50.058594 71.582031 50.019531 71.453125 C 49.910156 71.058594 46.910156 67.175781 44.828125 64.800781 C 42.503906 62.070312 39.765625 59.101562 39.515625 58.960938 C 39.429688 58.914062 38.792969 59.65625 38.191406 60.53125 C 37.460938 61.445312 36.636719 62.523438 36.269531 62.980469 C 35.90625 63.433594 35.128906 64.429688 34.574219 65.222656 C 34.023438 66.011719 33.421875 66.886719 33.148438 67.175781 C 32.289062 68.125 29.613281 72.902344 28.933594 74.503906 C 28.640625 75.222656 28.351562 75.9375 28.433594 75.984375 C 28.519531 76.03125 29.03125 76.097656 29.683594 75.914062 Z M 61.800781 86.199219 C 61.785156 85.636719 61.777344 84.863281 61.761719 84.304688 C 61.691406 83.054688 61.691406 83.054688 61.742188 80.21875 C 61.765625 78.800781 61.824219 77.511719 61.75 77.25 C 61.761719 77.035156 61.8125 75.964844 61.816406 74.972656 C 61.992188 72.101562 62.199219 72.324219 59.769531 72.726562 C 56.128906 73.332031 55.652344 73.394531 55.605469 73.476562 C 55.558594 73.558594 56.03125 74.484375 56.753906 75.550781 C 58.144531 77.980469 61.617188 85.542969 61.429688 85.878906 C 61.335938 86.046875 61.582031 87.175781 61.632812 87.09375 C 61.796875 87.1875 61.816406 86.757812 61.800781 86.199219 Z M 55.605469 70.726562 C 56.34375 70.585938 60.367188 70.089844 61.105469 69.953125 L 62.363281 69.667969 L 62.453125 68.726562 C 62.519531 68.210938 62.597656 67.484375 62.570312 67.140625 C 62.542969 66.792969 62.65625 66.199219 62.714844 65.898438 C 62.773438 65.601562 62.792969 65.171875 62.800781 64.957031 C 62.8125 64.742188 62.9375 63.933594 63.0625 63.121094 C 63.539062 60.304688 63.652344 59.707031 63.691406 58.851562 C 63.710938 58.421875 63.847656 57.394531 63.96875 56.585938 L 64.125 55.128906 L 62.726562 54.675781 C 61.960938 54.46875 61.199219 54.261719 60.902344 54.203125 C 59.660156 54.0625 55.355469 52.308594 48.191406 49.175781 L 47.476562 48.882812 L 46.789062 49.710938 C 46.105469 50.539062 44.960938 51.992188 42.769531 54.726562 C 42.265625 55.433594 41.804688 56.054688 41.886719 56.105469 C 41.925781 56.234375 42.945312 57.359375 44.089844 58.660156 C 45.234375 59.960938 46.867188 61.757812 47.554688 62.691406 C 48.292969 63.542969 49.144531 64.574219 49.554688 65.023438 C 50.816406 66.5 53.289062 69.757812 53.566406 70.242188 C 53.878906 70.859375 54.175781 70.914062 55.605469 70.726562 Z M 66.910156 69.023438 C 67.515625 68.921875 68.253906 68.785156 68.46875 68.792969 C 68.683594 68.804688 69.632812 68.675781 70.503906 68.503906 C 71.457031 68.375 72.453125 68.164062 72.800781 68.136719 C 73.144531 68.113281 74.097656 67.984375 74.964844 67.808594 C 80.902344 66.84375 83.023438 66.597656 83.28125 66.523438 C 83.410156 66.488281 84.148438 66.351562 84.757812 66.25 C 85.363281 66.152344 86.230469 65.976562 86.707031 65.914062 C 89.144531 65.296875 89.882812 65.15625 89.929688 65.074219 C 90.210938 64.570312 89.160156 63.101562 88.035156 62.363281 C 86.117188 61.066406 83.621094 60.21875 78.519531 58.90625 C 77.246094 58.628906 75.929688 58.222656 75.632812 58.167969 C 75.332031 58.109375 74.269531 57.84375 73.207031 57.578125 C 72.144531 57.316406 70.402344 56.890625 69.472656 56.585938 C 68.109375 56.265625 67.597656 56.199219 67.550781 56.28125 C 67.070312 58.324219 66.953125 58.917969 66.878906 59.644531 C 66.859375 60.074219 66.675781 61.183594 66.515625 61.863281 C 66.390625 62.675781 66.316406 63.402344 66.304688 63.617188 C 66.292969 63.832031 66.226562 64.34375 66.113281 64.941406 C 66.046875 65.457031 65.910156 66.480469 65.917969 67.253906 C 65.839844 67.980469 65.847656 68.757812 65.753906 68.921875 C 65.742188 69.136719 65.695312 69.222656 65.78125 69.269531 C 65.695312 69.222656 66.304688 69.121094 66.910156 69.023438 Z M 41.355469 50.960938 C 41.953125 50.085938 42.824219 48.921875 43.238281 48.382812 C 43.925781 47.511719 44.222656 47.082031 44.222656 47.082031 C 43.011719 46.292969 37.472656 42.949219 34.921875 41.410156 C 30.191406 38.652344 28.273438 37.355469 26.710938 35.820312 C 26.21875 35.324219 25.765625 34.960938 25.679688 34.914062 C 25.34375 34.726562 26.203125 37.515625 26.914062 38.796875 C 27.628906 40.078125 29.691406 42.886719 30.386719 43.605469 C 30.796875 44.054688 31.324219 44.683594 31.566406 45.039062 C 32.339844 46.019531 34.046875 48.078125 35.527344 49.566406 C 36.222656 50.289062 37.414062 51.503906 37.980469 52.261719 L 39.265625 53.664062 C 39.269531 53.667969 40.75 51.832031 41.355469 50.960938 Z M 51.710938 48.394531 C 54.617188 49.691406 55.96875 50.226562 56.984375 50.578125 C 57.449219 50.726562 58.332031 51.113281 59.011719 51.273438 C 60.113281 51.667969 62.105469 52.238281 63.933594 52.710938 L 64.699219 52.917969 L 64.730469 52.273438 C 64.703125 51.929688 64.921875 50.949219 65.140625 49.972656 C 65.355469 48.992188 65.480469 48.179688 65.445312 48.050781 C 65.40625 47.921875 65.417969 47.707031 65.464844 47.621094 C 65.476562 47.40625 65.804688 45.832031 66.113281 43.910156 C 67.339844 37.003906 67.464844 36.191406 67.742188 34.914062 C 67.902344 34.234375 68.140625 32.824219 68.226562 31.882812 C 68.363281 30.859375 68.636719 29.578125 68.667969 28.9375 C 69.132812 26.335938 69.414062 23.078125 69.21875 22.640625 C 68.988281 22.070312 68.859375 22.109375 67.867188 23.09375 C 64.699219 26.386719 62.070312 29.316406 60.785156 31.019531 C 60.511719 31.308594 60.101562 31.847656 59.78125 32.21875 C 58.875 33.25 57.648438 34.65625 57.082031 35.660156 C 56.71875 36.117188 56.304688 36.65625 56.117188 36.992188 C 55.929688 37.328125 55.199219 38.238281 54.515625 39.066406 C 53.914062 39.941406 53.136719 40.9375 52.820312 41.308594 C 52.5 41.683594 51.945312 42.472656 51.535156 43.011719 C 51.121094 43.550781 50.296875 44.632812 49.746094 45.421875 C 49.191406 46.210938 48.730469 46.835938 48.769531 46.964844 C 49.019531 47.105469 49.269531 47.246094 51.710938 48.394531 Z M 51.710938 48.394531 " fill-opacity="1" fill-rule="nonzero"/></g></g></g><g clip-path="url(#efd92db586)"><g clip-path="url(#dcbbd6cffb)"><path fill="#0dbcb7" d="M 63.488281 69.824219 L 64.679688 69.824219 L 64.679688 71.015625 L 63.488281 71.015625 Z M 63.488281 69.824219 " fill-opacity="1" fill-rule="nonzero"/></g></g></svg>