<svg xmlns="http://www.w3.org/2000/svg" xmlns:xlink="http://www.w3.org/1999/xlink" width="200" zoomAndPan="magnify" viewBox="0 0 150 150.749998" height="201" preserveAspectRatio="xMidYMid meet" version="1.0"><defs><clipPath id="ba8f1fc9b9"><path d="M 18 21 L 130 21 L 130 144 L 18 144 Z M 18 21 " clip-rule="nonzero"/></clipPath><clipPath id="d2474aa92e"><path d="M 0.125 43.40625 L 106.128906 -0.0390625 L 149.855469 106.65625 L 43.851562 150.101562 Z M 0.125 43.40625 " clip-rule="nonzero"/></clipPath><clipPath id="dc5ff0ce47"><path d="M 0.125 43.40625 L 106.128906 -0.0390625 L 149.855469 106.65625 L 43.851562 150.101562 Z M 0.125 43.40625 " clip-rule="nonzero"/></clipPath><clipPath id="cb272b7d5f"><path d="M 84.675781 98.664062 L 85.871094 98.664062 L 85.871094 99.863281 L 84.675781 99.863281 Z M 84.675781 98.664062 " clip-rule="nonzero"/></clipPath><clipPath id="9b099cfcb3"><path d="M 85.273438 98.664062 C 84.941406 98.664062 84.675781 98.933594 84.675781 99.261719 C 84.675781 99.59375 84.941406 99.863281 85.273438 99.863281 C 85.605469 99.863281 85.871094 99.59375 85.871094 99.261719 C 85.871094 98.933594 85.605469 98.664062 85.273438 98.664062 Z M 85.273438 98.664062 " clip-rule="nonzero"/></clipPath></defs><g clip-path="url(#ba8f1fc9b9)"><g clip-path="url(#d2474aa92e)"><g clip-path="url(#dc5ff0ce47)"><path fill="#f6d20c" d="M 57.628906 142.789062 C 53.996094 141.445312 54.144531 141.507812 53.777344 140.917969 C 53.457031 140.433594 53.539062 140.027344 53.703125 137.125 C 54.046875 132.542969 54.359375 129.703125 54.660156 127.113281 C 54.890625 124.675781 55.234375 120.097656 55.304688 118.464844 C 55.300781 117.851562 55.375 116.832031 55.371094 116.21875 C 55.363281 115.605469 55.441406 114.585938 55.4375 113.972656 C 55.429688 113.359375 55.421875 112.128906 55.328125 111.304688 C 55.308594 106.75 55.0625 102.535156 54.914062 102.46875 C 54.914062 102.46875 54.105469 102.308594 53.152344 102.082031 C 51.390625 101.695312 47.777344 100.707031 46.269531 100.339844 C 45.824219 100.152344 44.871094 99.929688 44.316406 99.785156 C 38.453125 98.121094 28.164062 94.074219 23.628906 91.738281 C 19.546875 89.585938 18.863281 89.125 18.558594 88.386719 C 18.257812 87.648438 18.445312 87.199219 19.558594 86.003906 C 22.160156 83.332031 27.960938 79.722656 37.371094 75.003906 C 43.597656 71.839844 49.882812 68.519531 49.945312 68.371094 C 49.945312 68.371094 49.910156 66.78125 49.789062 64.984375 C 49.488281 59.433594 49.519531 55.597656 49.925781 48.773438 C 50.113281 45.613281 50.53125 40.015625 50.671875 38.847656 C 50.773438 38.191406 50.828125 37.429688 50.910156 37.023438 C 50.921875 36.152344 51.179688 34.074219 51.238281 33.3125 C 51.394531 31.890625 52.140625 24.679688 52.089844 23.957031 C 52.0625 22.984375 52.328125 22.132812 52.601562 21.898438 C 52.8125 21.8125 53.277344 21.746094 53.789062 21.785156 C 55.058594 21.878906 55.207031 21.941406 55.125 22.34375 C 55.089844 22.855469 55.34375 22.871094 56.335938 22.589844 C 56.90625 22.480469 57.265625 22.453125 57.566406 22.578125 C 58.054688 22.871094 61.082031 24.835938 61.65625 25.34375 C 61.894531 25.617188 62.234375 25.847656 62.382812 25.910156 C 63.171875 26.328125 70.132812 32.476562 72.566406 34.808594 C 75.429688 37.582031 75.664062 37.855469 77.976562 40.484375 C 80.328125 43.21875 82.859375 46.375 84.53125 48.648438 C 84.808594 49.03125 84.597656 49.117188 89.914062 46.441406 C 94.113281 44.351562 97.871094 42.6875 106.296875 38.867188 C 111.277344 36.578125 112.652344 36.015625 114.25 35.109375 C 115.367188 34.527344 115.367188 34.527344 116.492188 34.5625 C 118.527344 34.714844 119.1875 34.8125 119.335938 34.875 C 119.484375 34.9375 119.675781 35.105469 119.976562 35.230469 C 120.613281 35.582031 120.917969 36.324219 120.882812 37.445312 C 120.828125 38.210938 120.472656 38.847656 118.164062 41.644531 C 112.476562 48.535156 110.425781 51.351562 108.191406 55.226562 C 106.480469 58.269531 104.148438 63.417969 102.390625 68.457031 C 101.9375 69.75 101.417969 71.199219 101.230469 71.644531 C 100.980469 72.242188 100.941406 72.75 101.027344 72.960938 C 101.160156 73.277344 103.859375 76.855469 105.53125 79.128906 C 110.585938 85.445312 112.683594 88.160156 113.671875 89.359375 C 114.140625 89.90625 114.742188 90.769531 115.125 91.105469 C 115.40625 91.488281 116.816406 93.128906 118.125 94.8125 C 120.605469 97.859375 121.035156 98.304688 126.535156 104.804688 C 128.226562 106.824219 129.726562 108.675781 129.8125 108.886719 C 129.988281 109.3125 129.570312 110.097656 129.042969 110.3125 C 128.832031 110.398438 127.960938 110.386719 127.15625 110.222656 C 126.347656 110.058594 125.585938 110.003906 125.585938 110.003906 C 125.585938 110.003906 124.824219 109.945312 123.910156 109.824219 C 122.996094 109.707031 120.558594 109.472656 118.269531 109.300781 C 116.082031 109.085938 113.539062 108.894531 112.625 108.773438 C 111.714844 108.65625 109.574219 108.546875 107.898438 108.371094 C 106.222656 108.191406 103.167969 107.964844 101.132812 107.8125 C 99.097656 107.660156 95.898438 107.371094 93.859375 107.21875 C 91.824219 107.066406 89.894531 106.867188 89.386719 106.832031 C 88.875 106.792969 87.351562 106.679688 86.035156 106.476562 L 83.59375 106.242188 L 78.824219 113.253906 C 76.230469 117.15625 73.988281 120.417969 73.925781 120.566406 C 72.25 123.101562 70.929688 125 70.808594 125.296875 C 70.640625 125.488281 70.285156 126.125 69.886719 126.660156 C 69.132812 127.832031 66.644531 131.6875 65.769531 133.15625 C 65.476562 133.648438 64.179688 135.90625 62.90625 137.90625 C 61.628906 139.910156 60.398438 142.019531 60.167969 142.359375 C 59.980469 142.804688 59.644531 143.1875 59.539062 143.230469 C 59.480469 143.390625 58.523438 143.167969 57.628906 142.789062 Z M 60.171875 132.75 C 60.757812 131.769531 61.40625 130.640625 61.695312 130.152344 C 61.988281 129.660156 62.34375 129.023438 62.574219 128.679688 C 63.054688 127.746094 65.605469 123.742188 67.84375 120.480469 C 68.535156 119.457031 69.917969 117.410156 70.796875 115.941406 C 71.671875 114.472656 72.929688 112.722656 73.390625 112.039062 C 74.246094 110.824219 75.753906 108.484375 76.859375 106.671875 C 77.046875 106.226562 77.277344 105.882812 77.277344 105.882812 C 77.277344 105.882812 76.980469 105.761719 76.726562 105.742188 C 75.261719 105.476562 71.105469 104.960938 70.636719 105.027344 C 70.382812 105.007812 69.175781 104.765625 67.902344 104.671875 C 66.691406 104.425781 65.527344 104.289062 65.121094 104.207031 C 64.71875 104.125 63.445312 104.03125 62.238281 103.785156 C 60.921875 103.585938 59.902344 103.507812 59.839844 103.65625 C 59.777344 103.808594 59.828125 104.527344 59.855469 105.5 C 59.984375 107.917969 60.179688 113.507812 60.082031 114.78125 C 60.046875 115.289062 60.09375 116.011719 60.011719 116.414062 C 60.050781 118.617188 59.390625 128.136719 58.832031 132.191406 C 58.734375 132.847656 58.613281 133.761719 58.574219 134.269531 C 58.648438 135.347656 58.585938 135.496094 60.171875 132.75 Z M 123.457031 106.316406 C 123.414062 106.210938 121.210938 103.539062 120.632812 103.035156 C 119.96875 102.320312 113.164062 94.132812 111.425781 92.007812 C 110.675781 91.082031 109.886719 90.050781 109.605469 89.671875 C 107.3125 86.789062 100.953125 78.789062 99.878906 77.378906 C 99.410156 76.832031 99.085938 76.34375 99.046875 76.242188 C 99 76.136719 98.148438 77.964844 97.257812 80.304688 C 96.324219 82.535156 95.09375 85.257812 94.65625 86.300781 C 93.511719 88.621094 91.53125 92.511719 91.132812 93.046875 C 91.007812 93.34375 90.363281 94.472656 89.714844 95.601562 C 88.417969 97.859375 87.523438 99.582031 86.183594 101.734375 C 85.660156 102.566406 85.308594 103.203125 85.351562 103.308594 C 85.394531 103.417969 86.667969 103.511719 88.191406 103.625 C 89.71875 103.738281 93.535156 104.023438 96.738281 104.316406 C 107.214844 105.203125 118.199219 106.125 120.191406 106.171875 C 121.207031 106.25 122.332031 106.277344 122.734375 106.363281 C 123.183594 106.554688 123.542969 106.527344 123.457031 106.316406 Z M 81.382812 99.636719 C 82.320312 98.019531 83.324219 96.253906 83.617188 95.761719 C 83.910156 95.273438 84.972656 93.359375 85.914062 91.738281 C 88.792969 86.734375 90.566406 82.925781 92.683594 77.867188 C 93.804688 75.1875 94.863281 72.65625 95.050781 72.207031 L 95.425781 71.316406 L 93.535156 68.511719 C 92.527344 66.953125 91.152344 64.804688 90.421875 63.621094 C 87.460938 58.796875 84.710938 54.496094 84.558594 54.433594 C 84.410156 54.371094 81.691406 55.855469 76.820312 58.714844 C 75.425781 59.53125 73.339844 60.757812 72.117188 61.382812 C 70.9375 62.113281 69.816406 62.695312 69.605469 62.78125 C 69.226562 63.0625 67.308594 64.09375 62.964844 66.738281 C 61.679688 67.511719 59.867188 68.5 58.957031 68.996094 C 56.828125 70.113281 54.738281 71.339844 54.679688 71.488281 C 54.617188 71.640625 54.925781 72.992188 55.210938 74.597656 C 55.503906 76.207031 55.921875 78.128906 56.011719 78.957031 C 56.105469 79.78125 56.414062 81.136719 56.65625 82.023438 C 57.757812 87.121094 58.789062 93.847656 59.234375 98.847656 C 59.304688 99.925781 59.503906 100.710938 59.546875 100.816406 C 59.589844 100.921875 60.097656 100.960938 60.757812 101.0625 C 61.414062 101.160156 62.433594 101.238281 63.089844 101.339844 C 65.316406 101.660156 68.921875 102.03125 70.132812 102.273438 C 70.789062 102.375 71.554688 102.429688 71.660156 102.390625 C 71.914062 102.410156 72.675781 102.464844 73.378906 102.667969 C 74.078125 102.875 75.351562 102.972656 76.070312 102.921875 C 76.832031 102.980469 77.597656 103.035156 78 103.117188 C 78.507812 103.152344 78.867188 103.128906 79.183594 103 C 79.519531 102.621094 80.441406 101.257812 81.382812 99.636719 Z M 54.796875 98.570312 C 54.40625 94.910156 53.59375 89.320312 53.046875 87.082031 C 52.476562 84.476562 51.679688 80.734375 51.5 79.699219 C 51.277344 78.554688 50.527344 74.917969 50.351562 73.878906 C 50.285156 73.414062 50.242188 73.308594 49.96875 73.542969 C 49.417969 74.011719 44.882812 76.492188 42.121094 77.867188 C 41.214844 78.363281 39.671875 79.117188 38.660156 79.65625 C 34.355469 81.792969 28.894531 85.015625 26.453125 86.878906 C 25.589844 87.480469 24.453125 88.316406 24.007812 88.746094 C 23.566406 89.175781 22.980469 89.535156 23.023438 89.644531 C 22.835938 90.089844 23.433594 90.339844 30.789062 93.242188 C 31.382812 93.492188 32.378906 93.824219 32.933594 93.964844 C 33.378906 94.152344 34.335938 94.375 34.933594 94.625 C 36.972656 95.394531 38.671875 95.929688 40.222656 96.40625 C 45.382812 97.867188 47.890625 98.566406 48.355469 98.496094 C 48.609375 98.519531 49.269531 98.617188 49.714844 98.804688 C 50.714844 99.132812 54.960938 99.863281 55.0625 99.820312 C 54.914062 99.753906 54.910156 99.140625 54.796875 98.570312 Z M 100.464844 58.640625 C 101.773438 55.515625 102.917969 53.195312 104.613281 50.40625 C 106.011719 48.101562 108.464844 44.757812 109.808594 43.21875 C 110.417969 42.601562 110.476562 42.449219 110.226562 42.433594 C 110.074219 42.371094 109.757812 42.5 109.546875 42.585938 C 109.382812 42.777344 107.902344 43.386719 106.425781 43.992188 C 100.089844 46.585938 88.734375 51.980469 87.703125 52.773438 C 87.539062 52.964844 87.582031 53.070312 88.074219 53.980469 C 88.441406 54.570312 89.449219 56.128906 90.457031 57.6875 C 92.109375 60.21875 92.605469 61.125 95.632812 65.804688 L 96.921875 67.742188 L 97.957031 64.851562 C 98.640625 63.214844 99.761719 60.53125 100.464844 58.640625 Z M 55.617188 65.058594 C 55.996094 64.78125 57.328125 64.113281 58.335938 63.574219 C 59.347656 63.035156 62.722656 61.039062 65.929688 59.230469 C 73.265625 54.867188 76.789062 52.929688 80.839844 50.773438 C 82.0625 50.148438 82.152344 50.363281 80.4375 47.980469 C 78.3125 44.90625 75.550781 41.476562 72.941406 38.722656 C 72.28125 38.007812 71.574219 37.183594 71.335938 36.910156 C 71.101562 36.640625 70.675781 36.199219 70.289062 35.859375 C 69.90625 35.523438 69.476562 35.085938 69.390625 34.875 C 68.964844 34.433594 66.632812 32.058594 66.335938 31.933594 C 66.1875 31.871094 65.953125 31.597656 65.761719 31.429688 C 65.4375 30.945312 59.570312 25.953125 58.546875 25.261719 C 57.183594 24.339844 57.183594 24.339844 56.980469 25.65625 C 56.660156 27.886719 56.625 28.394531 56.527344 29.667969 C 56.425781 30.324219 56.226562 31.640625 56.105469 32.550781 C 55.984375 33.464844 55.769531 35.035156 55.648438 35.949219 C 55.527344 36.859375 55.394531 38.640625 55.257812 39.804688 C 54.800781 43.816406 54.289062 50.6875 54.285156 52.785156 C 54.25 53.910156 54.175781 54.925781 54.21875 55.03125 C 54.078125 55.582031 54.261719 62.660156 54.472656 64.671875 C 54.542969 65.75 54.433594 65.792969 55.617188 65.058594 Z M 55.617188 65.058594 " fill-opacity="1" fill-rule="nonzero"/></g></g></g><g clip-path="url(#cb272b7d5f)"><g clip-path="url(#9b099cfcb3)"><path fill="#f6d20c" d="M 84.675781 98.664062 L 85.871094 98.664062 L 85.871094 99.863281 L 84.675781 99.863281 Z M 84.675781 98.664062 " fill-opacity="1" fill-rule="nonzero"/></g></g></svg>