<svg xmlns="http://www.w3.org/2000/svg" xmlns:xlink="http://www.w3.org/1999/xlink" width="112" zoomAndPan="magnify" viewBox="0 0 84 83.249999" height="111" preserveAspectRatio="xMidYMid meet" version="1.0"><defs><clipPath id="853f404286"><path d="M 5 12 L 73 12 L 73 74 L 5 74 Z M 5 12 " clip-rule="nonzero"/></clipPath><clipPath id="28218d5c44"><path d="M 21.824219 0 L 82.777344 21.597656 L 61.429688 81.851562 L 0.476562 60.253906 Z M 21.824219 0 " clip-rule="nonzero"/></clipPath><clipPath id="8bf38861c5"><path d="M 21.824219 0 L 82.777344 21.597656 L 61.429688 81.851562 L 0.476562 60.253906 Z M 21.824219 0 " clip-rule="nonzero"/></clipPath><clipPath id="bbf93f4891"><path d="M 36.035156 51.21875 L 37.222656 51.21875 L 37.222656 52.40625 L 36.035156 52.40625 Z M 36.035156 51.21875 " clip-rule="nonzero"/></clipPath><clipPath id="10cef101de"><path d="M 36.628906 51.21875 C 36.300781 51.21875 36.035156 51.484375 36.035156 51.8125 C 36.035156 52.140625 36.300781 52.40625 36.628906 52.40625 C 36.957031 52.40625 37.222656 52.140625 37.222656 51.8125 C 37.222656 51.484375 36.957031 51.21875 36.628906 51.21875 Z M 36.628906 51.21875 " clip-rule="nonzero"/></clipPath></defs><g clip-path="url(#853f404286)"><g clip-path="url(#28218d5c44)"><g clip-path="url(#8bf38861c5)"><path fill="#80aa53" d="M 16.082031 65.921875 C 12.683594 64.152344 9.648438 62.003906 6.125 60.078125 C 3.6875 58.300781 6.046875 57.859375 7.707031 58.75 C 10.921875 60.207031 14.183594 63.203125 17.777344 64.234375 C 18.535156 64.460938 19.582031 64.304688 19.144531 63.347656 C 18.820312 62.507812 17.28125 61.332031 16.964844 60.339844 C 16.386719 57.910156 19.945312 58.355469 21.425781 58.53125 C 27.949219 59.164062 33.75 62.175781 39.195312 65.703125 C 42.40625 67.582031 45.570312 69.863281 49.214844 70.34375 C 50.382812 70.425781 51.851562 69.761719 50.464844 69.023438 C 47.085938 68.140625 44.671875 65.070312 42.675781 62.480469 C 41.472656 60.945312 40.453125 59.511719 39.210938 57.765625 C 38.253906 56.515625 37.289062 54.757812 36.046875 54.027344 C 34.644531 53.179688 33.03125 53.96875 31.273438 54.558594 C 28.457031 55.496094 25.675781 56.6875 22.871094 57.621094 C 20.355469 58.601562 18.316406 56.746094 19.183594 54.226562 C 19.558594 53.234375 20.292969 52.441406 21.023438 51.664062 C 22.613281 50.074219 23.957031 48.554688 25.246094 46.734375 C 26.449219 45.054688 27.742188 43.6875 26.738281 41.941406 C 23.863281 37.875 19.957031 34.140625 16.335938 30.589844 C 15.316406 29.546875 13.882812 28.472656 13.445312 27.101562 C 12.890625 25.222656 14.953125 23.328125 16.703125 22.984375 C 19.667969 22.421875 22.441406 24.3125 25.125 25.316406 C 28.695312 26.757812 32.292969 28.605469 35.964844 29.847656 C 37.460938 30.261719 38.640625 29.269531 39.476562 28.140625 C 42.59375 23.9375 46.949219 18.566406 50.078125 15.253906 C 50.925781 14.386719 51.816406 13.402344 52.96875 12.976562 C 55.976562 12.101562 56.203125 15.765625 55.398438 17.816406 C 54.054688 21.800781 53.550781 26.441406 53.292969 30.449219 C 53.253906 32.144531 52.78125 34.082031 53.714844 35.589844 C 54.335938 36.519531 55.585938 36.714844 57.195312 37.308594 C 58.40625 37.726562 59.871094 38.234375 61.136719 38.671875 C 64.203125 39.949219 75.535156 42.484375 72.386719 47.15625 C 71.171875 48.277344 68.105469 47.640625 66.210938 47.765625 C 62.359375 47.816406 58.640625 47.695312 54.917969 48.371094 C 53.429688 48.71875 53.402344 50.242188 53.492188 51.511719 C 53.574219 53.683594 53.722656 55.878906 53.859375 58.03125 C 53.941406 62.207031 54.890625 67.121094 53.753906 71.203125 C 52.632812 74.355469 48.644531 74.457031 46.023438 73.097656 C 38.351562 69.695312 29.832031 60.730469 21.132812 61.175781 C 20.523438 61.492188 21.054688 62.316406 21.238281 62.777344 C 21.722656 63.734375 22.152344 65.035156 21.578125 65.976562 C 20.515625 67.671875 17.714844 66.683594 16.277344 66.011719 Z M 50.980469 65.058594 C 51.1875 65.078125 51.324219 65.089844 51.441406 64.960938 C 51.742188 64.324219 51.65625 61.503906 51.671875 60.3125 C 51.65625 57.507812 51.621094 54.582031 51.542969 51.738281 C 51.445312 50.726562 51.6875 49.527344 50.992188 48.726562 C 50.335938 48.046875 48.238281 48.617188 46.9375 48.839844 C 45.199219 49.175781 43.125 49.671875 41.371094 50.144531 C 40.6875 50.332031 39.777344 50.640625 39.636719 51.359375 C 39.449219 52.152344 40.449219 53.347656 41.136719 54.449219 C 42.066406 55.835938 42.820312 57.023438 43.832031 58.527344 C 45.789062 61.324219 47.558594 64.503906 50.863281 65.042969 Z M 25.691406 52.386719 C 28.089844 51.738281 30.488281 51 32.859375 50.023438 C 33.425781 49.605469 33.082031 49.160156 32.6875 48.59375 C 32.003906 47.710938 31.183594 46.753906 30.460938 45.902344 C 29.730469 45.074219 29.691406 45.023438 29.15625 45.730469 C 28.867188 46.105469 28.59375 46.488281 28.3125 46.886719 C 27.542969 47.988281 26.828125 49.054688 26.078125 50.179688 C 25.757812 50.804688 24.265625 52.375 25.539062 52.394531 Z M 38.878906 48.175781 C 42.195312 47.316406 44.882812 46.722656 48.039062 46.15625 C 50.375 45.828125 51.574219 45.425781 51.363281 42.941406 C 51.339844 41.898438 51.324219 40.90625 51.246094 39.914062 C 51.167969 38.929688 51.027344 38.691406 50.0625 38.324219 C 46.71875 37.164062 42.804688 36.046875 39.566406 34.921875 C 37.570312 34.054688 36.742188 35.199219 35.671875 36.734375 C 34.742188 38 33.839844 39.175781 33.066406 40.210938 C 32.1875 41.304688 32.132812 42.378906 33.164062 43.640625 C 33.90625 44.648438 34.707031 45.683594 35.46875 46.691406 C 36.375 47.996094 37.15625 48.707031 38.652344 48.226562 Z M 30.671875 39.410156 C 31.851562 38.839844 33.382812 36.1875 34.308594 35.089844 C 34.710938 34.527344 34.984375 34.117188 35.070312 33.847656 C 35.128906 33.660156 35.097656 33.53125 34.984375 33.425781 C 32.398438 32.234375 23.789062 29.273438 20.117188 27.964844 C 18.28125 27.367188 18.804688 28.460938 19.816406 29.414062 C 22.6875 32.066406 25.660156 34.574219 28.347656 37.535156 C 29.070312 38.179688 29.597656 39.261719 30.554688 39.425781 Z M 53.441406 45.292969 C 56.429688 45.265625 59.371094 44.796875 62.46875 44.886719 C 63.125 44.808594 68.886719 45.160156 67.128906 44.085938 C 65.53125 43.203125 61.683594 41.878906 57.042969 40.460938 C 55.917969 40.144531 54.695312 39.710938 53.59375 39.546875 C 52.769531 39.453125 52.472656 39.832031 52.398438 40.773438 C 52.347656 41.507812 52.375 41.984375 52.375 42.667969 C 52.445312 43.664062 52.222656 44.957031 53.285156 45.265625 Z M 48.050781 34.640625 C 51.507812 35.933594 50.957031 34.609375 51.25 31.734375 C 51.484375 28.59375 51.859375 25.519531 52.316406 22.457031 C 52.480469 20.996094 53.5625 16.253906 50.707031 18.714844 C 47.863281 21.246094 45.425781 24.117188 43.113281 26.871094 C 42.21875 27.964844 41.246094 29.132812 40.382812 30.289062 C 40.019531 30.792969 39.785156 31.183594 39.824219 31.472656 C 39.867188 31.789062 40.203125 31.917969 40.476562 32.039062 C 42.128906 32.664062 45.863281 33.929688 47.933594 34.601562 Z M 48.050781 34.640625 " fill-opacity="1" fill-rule="nonzero"/></g></g></g><g clip-path="url(#bbf93f4891)"><g clip-path="url(#10cef101de)"><path fill="#80aa53" d="M 36.035156 51.21875 L 37.222656 51.21875 L 37.222656 52.40625 L 36.035156 52.40625 Z M 36.035156 51.21875 " fill-opacity="1" fill-rule="nonzero"/></g></g></svg>