<svg width="17" height="17" viewBox="0 0 17 17" fill="none" xmlns="http://www.w3.org/2000/svg">
<g clip-path="url(#clip0_1800_1283)">
<path d="M10.0431 0.147081C9.94095 0.128284 9.83593 0.132175 9.73546 0.158479C9.635 0.184783 9.54155 0.232856 9.46173 0.299293C9.38191 0.365731 9.31768 0.448906 9.27358 0.542929C9.22948 0.636952 9.20659 0.739522 9.20654 0.843372V2.88266C8.34891 2.76888 7.47659 2.85414 6.65721 3.13182C5.83784 3.4095 5.09342 3.87216 4.48166 4.48391C3.86991 5.09566 3.40726 5.84008 3.12957 6.65946C2.85189 7.47883 2.76663 8.35115 2.88042 9.20879H0.841125C0.737274 9.20884 0.634705 9.23172 0.540682 9.27582C0.446659 9.31992 0.363483 9.38416 0.297046 9.46398C0.230609 9.54379 0.182536 9.63725 0.156232 9.73771C0.129928 9.83818 0.126036 9.94319 0.144833 10.0453C0.425341 11.5693 1.11711 12.9876 2.14536 14.1469C3.1736 15.3062 4.49919 16.1623 5.97879 16.6228C7.45839 17.0832 9.03571 17.1304 10.5402 16.7593C12.0447 16.3881 13.4191 15.6128 14.5148 14.5171C15.6105 13.4213 16.3859 12.0469 16.757 10.5424C17.1282 9.03796 17.0809 7.46064 16.6205 5.98104C16.1601 4.50144 15.3039 3.17585 14.1447 2.14761C12.9854 1.11936 11.5671 0.427588 10.0431 0.147081V0.147081ZM8.49821 9.91712C8.25053 9.91643 8.00739 9.85062 7.79318 9.72629C7.57897 9.60197 7.40122 9.4235 7.27775 9.20879H5.66488C5.47701 9.20879 5.29685 9.13416 5.16401 9.00132C5.03117 8.86848 4.95654 8.68832 4.95654 8.50046C4.95654 8.31259 5.03117 8.13243 5.16401 7.99959C5.29685 7.86675 5.47701 7.79212 5.66488 7.79212H7.27775C7.4012 7.57992 7.57768 7.40345 7.78988 7.28V4.95879C7.78988 4.77093 7.8645 4.59076 7.99734 4.45792C8.13018 4.32508 8.31035 4.25046 8.49821 4.25046C8.68607 4.25046 8.86624 4.32508 8.99908 4.45792C9.13191 4.59076 9.20654 4.77093 9.20654 4.95879V7.28C9.47673 7.43521 9.688 7.67541 9.80747 7.96319C9.92693 8.25097 9.94788 8.57018 9.86705 8.8711C9.78623 9.17203 9.60815 9.43778 9.36057 9.62697C9.11299 9.81616 8.8098 9.91818 8.49821 9.91712V9.91712ZM7.06171 0.0712891C7.2018 0.0712891 7.33875 0.112832 7.45524 0.190665C7.57172 0.268497 7.66251 0.379124 7.71612 0.508555C7.76974 0.637986 7.78376 0.780408 7.75643 0.917811C7.7291 1.05521 7.66164 1.18143 7.56258 1.28049C7.46351 1.37955 7.3373 1.44701 7.1999 1.47435C7.06249 1.50168 6.92007 1.48765 6.79064 1.43404C6.66121 1.38042 6.55058 1.28964 6.47275 1.17315C6.39492 1.05667 6.35338 0.919717 6.35338 0.779622C6.35338 0.591761 6.428 0.411593 6.56084 0.278755C6.69368 0.145917 6.87385 0.0712891 7.06171 0.0712891V0.0712891ZM4.15754 1.31512C4.29764 1.31512 4.43459 1.35667 4.55107 1.4345C4.66756 1.51233 4.75834 1.62296 4.81196 1.75239C4.86557 1.88182 4.8796 2.02424 4.85226 2.16164C4.82493 2.29905 4.75747 2.42526 4.65841 2.52432C4.55935 2.62339 4.43313 2.69085 4.29573 2.71818C4.15833 2.74551 4.01591 2.73148 3.88647 2.67787C3.75704 2.62426 3.64642 2.53347 3.56858 2.41698C3.49075 2.3005 3.44921 2.16355 3.44921 2.02346C3.44883 1.83572 3.523 1.65551 3.65542 1.52242C3.78784 1.38934 3.96768 1.31427 4.15542 1.31371L4.15754 1.31512ZM1.96667 3.4295C2.10676 3.4295 2.24371 3.47104 2.3602 3.54887C2.47668 3.62671 2.56747 3.73733 2.62108 3.86676C2.67469 3.99619 2.68872 4.13862 2.66139 4.27602C2.63406 4.41342 2.5666 4.53964 2.46753 4.6387C2.36847 4.73776 2.24226 4.80522 2.10486 4.83255C1.96745 4.85988 1.82503 4.84586 1.6956 4.79225C1.56617 4.73863 1.45554 4.64784 1.37771 4.53136C1.29988 4.41487 1.25833 4.27793 1.25833 4.13783C1.25833 3.94997 1.33296 3.7698 1.4658 3.63696C1.59864 3.50412 1.77881 3.4295 1.96667 3.4295V3.4295ZM0.833333 6.38112C0.973428 6.38112 1.11038 6.42267 1.22686 6.5005C1.34335 6.57833 1.43414 6.68896 1.48775 6.81839C1.54136 6.94782 1.55539 7.09024 1.52806 7.22764C1.50073 7.36505 1.43326 7.49126 1.3342 7.59032C1.23514 7.68938 1.10893 7.75685 0.971522 7.78418C0.834119 7.81151 0.691697 7.79748 0.562266 7.74387C0.432835 7.69026 0.322208 7.59947 0.244376 7.48298C0.166543 7.3665 0.125 7.22955 0.125 7.08946C0.125 6.90184 0.199433 6.72189 0.331965 6.58909C0.464497 6.45629 0.644301 6.3815 0.831917 6.38112H0.833333Z" fill="#373C4A"/>
</g>
<defs>
<clipPath id="clip0_1800_1283">
<rect width="17" height="17" fill="white"/>
</clipPath>
</defs>
</svg>
