<svg width="51" height="50" viewBox="0 0 51 50" fill="none" xmlns="http://www.w3.org/2000/svg">
<path d="M46.125 10.8959L30.7625 3.57712C27.3809 1.55719 23.1719 1.52135 19.7563 3.48337L4.22094 10.8959C4.16264 10.9251 4.10219 10.9563 4.04594 10.9896C0.35922 13.0976 -0.920663 17.7952 1.18734 21.4819C1.9019 22.7317 2.95297 23.7557 4.22094 24.4376L8.50639 26.4793V36.6876C8.50893 41.2523 11.4791 45.2851 15.8376 46.6418C18.8707 47.5192 22.0158 47.9488 25.1731 47.9168C28.3299 47.9521 31.4749 47.5261 34.5085 46.6522C38.867 45.2957 41.8372 41.2628 41.8398 36.698V26.4751L46.0065 24.4834V41.6667C46.0065 42.8173 46.9392 43.75 48.0898 43.75C49.2404 43.75 50.1731 42.8173 50.1731 41.6667V16.6667C50.187 14.2203 48.2553 11.9603 46.125 10.8959ZM37.673 36.698C37.6741 39.4284 35.9026 41.8435 33.298 42.6626C30.6568 43.4173 27.9198 43.7836 25.173 43.7501C22.4262 43.7836 19.6892 43.4173 17.048 42.6626C14.4434 41.8434 12.6719 39.4284 12.673 36.698V28.4647L19.5834 31.7564C21.2885 32.7689 23.2359 33.3009 25.2189 33.296C27.1064 33.3093 28.9622 32.8096 30.5876 31.8502L37.673 28.4646V36.698ZM44.3397 20.6771L28.6272 28.1771C26.4364 29.4528 23.7208 29.4167 21.5647 28.0834L6.19174 20.7709C4.47816 19.8468 3.83813 17.7087 4.76215 15.9952C5.07465 15.4157 5.5432 14.9353 6.11469 14.6084L21.7292 7.15007C23.9207 5.87721 26.6348 5.91325 28.7917 7.24382L44.1542 14.5626C45.284 15.1899 45.9909 16.3746 46.0063 17.6668C46.0083 18.8908 45.3781 20.0291 44.3397 20.6771Z" fill="#F7CB4E"/>
</svg>
