<svg width="50" height="50" viewBox="0 0 50 50" fill="none" xmlns="http://www.w3.org/2000/svg">
<g clip-path="url(#clip0_1724_1169)">
<path d="M34.375 0C33.5462 0 32.7513 0.32924 32.1653 0.915291C31.5792 1.50134 31.25 2.2962 31.25 3.125C31.25 5.86875 30.5333 8.33333 21.875 8.33333H9.375C6.88944 8.33609 4.50648 9.3247 2.74892 11.0823C0.991363 12.8398 0.00275714 15.2228 0 17.7083L0 23.9583C0.00570493 25.6473 0.469228 27.3032 1.34124 28.7497C2.21326 30.1962 3.46114 31.3793 4.95208 32.1729L11.5729 46.95C11.9768 47.8576 12.6351 48.6288 13.4681 49.1701C14.3012 49.7114 15.2732 49.9996 16.2667 50C17.0265 49.9995 17.7742 49.8092 18.4418 49.4465C19.1094 49.0838 19.6759 48.56 20.0898 47.9228C20.5037 47.2856 20.7519 46.5552 20.8119 45.7977C20.8719 45.0403 20.7418 44.2798 20.4333 43.5854L15.7312 33.3333H21.875C30.5333 33.3333 31.25 35.7979 31.25 38.5417C31.25 39.3705 31.5792 40.1653 32.1653 40.7514C32.7513 41.3374 33.5462 41.6667 34.375 41.6667C35.2038 41.6667 35.9987 41.3374 36.5847 40.7514C37.1708 40.1653 37.5 39.3705 37.5 38.5417V3.125C37.5 2.2962 37.1708 1.50134 36.5847 0.915291C35.9987 0.32924 35.2038 0 34.375 0ZM31.25 28.5646C28.2533 27.4572 25.0671 26.9538 21.875 27.0833H9.375C8.5462 27.0833 7.75134 26.7541 7.16529 26.168C6.57924 25.582 6.25 24.7871 6.25 23.9583V17.7083C6.25 16.8795 6.57924 16.0847 7.16529 15.4986C7.75134 14.9126 8.5462 14.5833 9.375 14.5833H21.875C25.0671 14.7129 28.2533 14.2094 31.25 13.1021V28.5646ZM49.6708 32.6479C49.4873 33.0151 49.2333 33.3426 48.9232 33.6116C48.6131 33.8807 48.253 34.0859 47.8636 34.2158C47.4741 34.3456 47.0629 34.3974 46.6534 34.3682C46.2439 34.3391 45.8442 34.2295 45.4771 34.0458L43.3937 33.0042C42.6522 32.6334 42.0884 31.9833 41.8262 31.1968C41.5641 30.4103 41.6251 29.5519 41.9958 28.8104C42.3666 28.0689 43.0167 27.5051 43.8032 27.2429C44.5897 26.9807 45.4481 27.0417 46.1896 27.4125L48.2729 28.4542C48.6401 28.6377 48.9676 28.8917 49.2366 29.2018C49.5057 29.5119 49.7109 29.872 49.8408 30.2614C49.9706 30.6509 50.0224 31.0621 49.9932 31.4716C49.9641 31.8811 49.8545 32.2808 49.6708 32.6479ZM41.9958 12.8562C41.8121 12.4891 41.7026 12.0894 41.6734 11.6799C41.6443 11.2704 41.6961 10.8592 41.8259 10.4697C41.9557 10.0803 42.161 9.72023 42.43 9.41014C42.699 9.10004 43.0265 8.84599 43.3937 8.6625L45.4771 7.62083C46.2186 7.25008 47.077 7.18908 47.8635 7.45124C48.65 7.7134 49.3001 8.27725 49.6708 9.01875C50.0416 9.76025 50.1026 10.6187 49.8404 11.4051C49.5783 12.1916 49.0144 12.8417 48.2729 13.2125L46.1896 14.2542C45.8224 14.4379 45.4227 14.5474 45.0132 14.5766C44.6038 14.6057 44.1925 14.5539 43.8031 14.4241C43.4136 14.2943 43.0536 14.089 42.7435 13.82C42.4334 13.551 42.1793 13.2235 41.9958 12.8562ZM41.6667 20.8333C41.6667 20.0045 41.9959 19.2097 42.582 18.6236C43.168 18.0376 43.9629 17.7083 44.7917 17.7083H46.875C47.7038 17.7083 48.4987 18.0376 49.0847 18.6236C49.6708 19.2097 50 20.0045 50 20.8333C50 21.6621 49.6708 22.457 49.0847 23.043C48.4987 23.6291 47.7038 23.9583 46.875 23.9583H44.7917C43.9629 23.9583 43.168 23.6291 42.582 23.043C41.9959 22.457 41.6667 21.6621 41.6667 20.8333Z" fill="#F7CB4E"/>
</g>
<defs>
<clipPath id="clip0_1724_1169">
<rect width="50" height="50" fill="white"/>
</clipPath>
</defs>
</svg>
