<svg width="50" height="50" viewBox="0 0 50 50" fill="none" xmlns="http://www.w3.org/2000/svg">
<g clip-path="url(#clip0_1733_1267)">
<path d="M42.7083 20.8332H38.5417C34.875 20.8332 31.8312 23.5541 31.325 27.0832H21.875C18.2083 27.0832 15.1646 29.8041 14.6583 33.3332H7.29167C3.27083 33.3332 0 36.604 0 40.6249V42.7082C0 46.729 3.27083 49.9999 7.29167 49.9999H42.7083C46.7292 49.9999 50 46.729 50 42.7082V28.1249C50 24.1041 46.7292 20.8332 42.7083 20.8332ZM4.16667 42.7082V40.6249C4.16667 38.902 5.56875 37.4999 7.29167 37.4999H14.5833V45.8332H7.29167C5.56875 45.8332 4.16667 44.4311 4.16667 42.7082ZM18.75 34.3749C18.75 32.652 20.1521 31.2499 21.875 31.2499H31.25V45.8332H18.75V34.3749ZM45.8333 42.7082C45.8333 44.4311 44.4312 45.8332 42.7083 45.8332H35.4167V28.1249C35.4167 26.402 36.8187 24.9999 38.5417 24.9999H42.7083C44.4312 24.9999 45.8333 26.402 45.8333 28.1249V42.7082ZM33.4188 5.95197C33.6187 5.40614 34.1396 5.04155 34.7229 5.04155H38.8917L40.3667 0.901969C40.5687 0.358219 41.0875 -0.00219727 41.6687 -0.00219727C42.25 -0.00219727 42.7687 0.358219 42.9708 0.901969L44.4458 5.04155H48.6146C49.1979 5.04155 49.7188 5.40614 49.9188 5.95405C50.1187 6.50197 49.9542 7.11655 49.5083 7.49364L46.2229 10.1707L47.5812 14.3103C47.7667 14.8707 47.5792 15.4874 47.1104 15.8478C46.6417 16.2082 45.9979 16.2332 45.5042 15.9124L41.6792 13.4207L37.9188 15.9374C37.6854 16.0936 37.4146 16.1728 37.1458 16.1728C36.8521 16.1728 36.5583 16.0791 36.3125 15.8957C35.8396 15.5416 35.6437 14.9291 35.8208 14.3666L37.1271 10.177L33.825 7.48947C33.3812 7.11239 33.2167 6.4978 33.4188 5.95197ZM16.7521 12.202C16.9521 11.6561 17.4729 11.2916 18.0562 11.2916H22.225L23.7 7.15197C23.9021 6.60822 24.4208 6.2478 25.0021 6.2478C25.5833 6.2478 26.1021 6.60822 26.3042 7.15197L27.7792 11.2916H31.9479C32.5312 11.2916 33.0521 11.6561 33.2521 12.2041C33.4521 12.752 33.2875 13.3666 32.8417 13.7436L29.5562 16.4207L30.9146 20.5603C31.1 21.1207 30.9125 21.7374 30.4437 22.0978C29.975 22.4582 29.3312 22.4832 28.8375 22.1624L25.0125 19.6707L21.2521 22.1874C21.0187 22.3436 20.7479 22.4228 20.4792 22.4228C20.1854 22.4228 19.8917 22.3291 19.6458 22.1457C19.1729 21.7916 18.9771 21.1791 19.1542 20.6166L20.4604 16.427L17.1583 13.7395C16.7146 13.3624 16.55 12.7478 16.7521 12.202ZM0.0854167 18.452C0.285417 17.9061 0.80625 17.5416 1.38958 17.5416H5.55833L7.03333 13.402C7.23542 12.8582 7.75417 12.4978 8.33542 12.4978C8.91667 12.4978 9.43542 12.8582 9.6375 13.402L11.1125 17.5416H15.2812C15.8646 17.5416 16.3854 17.9061 16.5854 18.4541C16.7854 19.002 16.6208 19.6166 16.175 19.9936L12.8896 22.6707L14.2479 26.8103C14.4333 27.3707 14.2458 27.9874 13.7771 28.3478C13.3083 28.7082 12.6646 28.7332 12.1708 28.4124L8.34583 25.9207L4.58542 28.4374C4.35208 28.5936 4.08125 28.6728 3.8125 28.6728C3.51875 28.6728 3.225 28.5791 2.97917 28.3957C2.50625 28.0416 2.31042 27.4291 2.4875 26.8666L3.79375 22.677L0.491667 19.9895C0.0479167 19.6124 -0.116667 18.9978 0.0854167 18.452Z" fill="#F7CB4E"/>
</g>
<defs>
<clipPath id="clip0_1733_1267">
<rect width="50" height="50" fill="white"/>
</clipPath>
</defs>
</svg>
